%TF.GenerationSoftware,KiCad,Pcbnew,9.0.0*%
%TF.CreationDate,2025-04-27T20:52:48-05:00*%
%TF.ProjectId,ESP32_S3_CAM,45535033-325f-4533-935f-43414d2e6b69,rev?*%
%TF.SameCoordinates,Original*%
%TF.FileFunction,Paste,Top*%
%TF.FilePolarity,Positive*%
%FSLAX46Y46*%
G04 Gerber Fmt 4.6, Leading zero omitted, Abs format (unit mm)*
G04 Created by KiCad (PCBNEW 9.0.0) date 2025-04-27 20:52:48*
%MOMM*%
%LPD*%
G01*
G04 APERTURE LIST*
G04 Aperture macros list*
%AMRoundRect*
0 Rectangle with rounded corners*
0 $1 Rounding radius*
0 $2 $3 $4 $5 $6 $7 $8 $9 X,Y pos of 4 corners*
0 Add a 4 corners polygon primitive as box body*
4,1,4,$2,$3,$4,$5,$6,$7,$8,$9,$2,$3,0*
0 Add four circle primitives for the rounded corners*
1,1,$1+$1,$2,$3*
1,1,$1+$1,$4,$5*
1,1,$1+$1,$6,$7*
1,1,$1+$1,$8,$9*
0 Add four rect primitives between the rounded corners*
20,1,$1+$1,$2,$3,$4,$5,0*
20,1,$1+$1,$4,$5,$6,$7,0*
20,1,$1+$1,$6,$7,$8,$9,0*
20,1,$1+$1,$8,$9,$2,$3,0*%
G04 Aperture macros list end*
%ADD10RoundRect,0.140000X-0.140000X-0.170000X0.140000X-0.170000X0.140000X0.170000X-0.140000X0.170000X0*%
%ADD11RoundRect,0.250000X-0.250000X-0.750000X0.250000X-0.750000X0.250000X0.750000X-0.250000X0.750000X0*%
%ADD12RoundRect,0.140000X0.140000X0.170000X-0.140000X0.170000X-0.140000X-0.170000X0.140000X-0.170000X0*%
%ADD13RoundRect,0.147500X-0.147500X-0.172500X0.147500X-0.172500X0.147500X0.172500X-0.147500X0.172500X0*%
%ADD14RoundRect,0.160000X-0.160000X0.245000X-0.160000X-0.245000X0.160000X-0.245000X0.160000X0.245000X0*%
%ADD15RoundRect,0.093750X-0.106250X0.093750X-0.106250X-0.093750X0.106250X-0.093750X0.106250X0.093750X0*%
%ADD16RoundRect,0.140000X0.170000X-0.140000X0.170000X0.140000X-0.170000X0.140000X-0.170000X-0.140000X0*%
%ADD17R,0.304800X0.533400*%
%ADD18R,0.300000X1.000000*%
%ADD19R,1.000000X0.400000*%
%ADD20RoundRect,0.140000X-0.170000X0.140000X-0.170000X-0.140000X0.170000X-0.140000X0.170000X0.140000X0*%
%ADD21RoundRect,0.147500X0.147500X0.172500X-0.147500X0.172500X-0.147500X-0.172500X0.147500X-0.172500X0*%
%ADD22RoundRect,0.220000X0.220000X0.255000X-0.220000X0.255000X-0.220000X-0.255000X0.220000X-0.255000X0*%
%ADD23R,1.000000X1.000000*%
%ADD24RoundRect,0.147500X-0.172500X0.147500X-0.172500X-0.147500X0.172500X-0.147500X0.172500X0.147500X0*%
%ADD25RoundRect,0.250130X-0.524870X-0.524870X0.524870X-0.524870X0.524870X0.524870X-0.524870X0.524870X0*%
%ADD26RoundRect,0.050000X-0.350000X-0.050000X0.350000X-0.050000X0.350000X0.050000X-0.350000X0.050000X0*%
%ADD27RoundRect,0.050000X-0.050000X-0.350000X0.050000X-0.350000X0.050000X0.350000X-0.050000X0.350000X0*%
%ADD28R,0.850000X0.750000*%
%ADD29RoundRect,0.225000X0.225000X0.250000X-0.225000X0.250000X-0.225000X-0.250000X0.225000X-0.250000X0*%
G04 APERTURE END LIST*
D10*
%TO.C,R5*%
X155020000Y-79100000D03*
X156020000Y-79100000D03*
%TD*%
%TO.C,C5*%
X165500000Y-86325000D03*
X166500000Y-86325000D03*
%TD*%
D11*
%TO.C,J7*%
X164076667Y-72080000D03*
%TD*%
D12*
%TO.C,C13*%
X153870000Y-94620000D03*
X152870000Y-94620000D03*
%TD*%
D10*
%TO.C,C16*%
X158370000Y-93746879D03*
X159370000Y-93746879D03*
%TD*%
D13*
%TO.C,D1*%
X155725000Y-91750000D03*
X156695000Y-91750000D03*
%TD*%
D14*
%TO.C,U3*%
X156705000Y-93600000D03*
X155905000Y-93600000D03*
D15*
X156955000Y-92712500D03*
X156305000Y-92712500D03*
X155655000Y-92712500D03*
X155655000Y-94487500D03*
X156305000Y-94487500D03*
X156955000Y-94487500D03*
%TD*%
D16*
%TO.C,C8*%
X161625000Y-77050000D03*
X161625000Y-76050000D03*
%TD*%
D14*
%TO.C,U4*%
X163480000Y-93600000D03*
X162680000Y-93600000D03*
D15*
X163730000Y-92712500D03*
X163080000Y-92712500D03*
X162430000Y-92712500D03*
X162430000Y-94487500D03*
X163080000Y-94487500D03*
X163730000Y-94487500D03*
%TD*%
D10*
%TO.C,C3*%
X166700000Y-89510000D03*
X167700000Y-89510000D03*
%TD*%
D17*
%TO.C,U5*%
X154259999Y-89476400D03*
X153760000Y-89476400D03*
X153260001Y-89476400D03*
X153260001Y-91203600D03*
X154259999Y-91203600D03*
%TD*%
D18*
%TO.C,U2*%
X165900000Y-75225000D03*
X165900000Y-76825000D03*
D19*
X164700000Y-74825000D03*
X164700000Y-75625000D03*
X164700000Y-76425000D03*
X164700000Y-77225000D03*
X167100000Y-77225000D03*
X167100000Y-76425000D03*
X167100000Y-75625000D03*
X167100000Y-74825000D03*
%TD*%
D10*
%TO.C,FB2*%
X158370000Y-92896879D03*
X159370000Y-92896879D03*
%TD*%
D20*
%TO.C,R3*%
X166423333Y-93660000D03*
X166423333Y-94660000D03*
%TD*%
D16*
%TO.C,C14*%
X157175000Y-78010000D03*
X157175000Y-77010000D03*
%TD*%
D12*
%TO.C,R9*%
X156230000Y-86400000D03*
X155230000Y-86400000D03*
%TD*%
D10*
%TO.C,C22*%
X153260000Y-87960000D03*
X154260000Y-87960000D03*
%TD*%
%TO.C,C4*%
X166700000Y-88660000D03*
X167700000Y-88660000D03*
%TD*%
D21*
%TO.C,D3*%
X154045000Y-86400000D03*
X153075000Y-86400000D03*
%TD*%
D22*
%TO.C,FB1*%
X155980000Y-77680000D03*
X154400000Y-77680000D03*
%TD*%
D10*
%TO.C,R2*%
X166700000Y-87810000D03*
X167700000Y-87810000D03*
%TD*%
D12*
%TO.C,C12*%
X153870000Y-93770000D03*
X152870000Y-93770000D03*
%TD*%
D10*
%TO.C,C10*%
X166700000Y-91210000D03*
X167700000Y-91210000D03*
%TD*%
D11*
%TO.C,J6*%
X162330000Y-72080000D03*
%TD*%
D23*
%TO.C,J8*%
X152410000Y-84880000D03*
%TD*%
D12*
%TO.C,C19*%
X159370000Y-92050000D03*
X158370000Y-92050000D03*
%TD*%
D24*
%TO.C,D2*%
X152660000Y-96865000D03*
X152660000Y-97835000D03*
%TD*%
D10*
%TO.C,R7*%
X155020000Y-80800000D03*
X156020000Y-80800000D03*
%TD*%
D23*
%TO.C,J9*%
X152410000Y-83140000D03*
%TD*%
D11*
%TO.C,J4*%
X165823333Y-72080000D03*
%TD*%
%TO.C,J5*%
X167570000Y-72080000D03*
%TD*%
D25*
%TO.C,U1*%
X159920000Y-81740000D03*
X159920000Y-83500000D03*
X161680000Y-81740000D03*
X161680000Y-83500000D03*
D26*
X157350000Y-80020000D03*
X157350000Y-80420000D03*
X157350000Y-80820000D03*
X157350000Y-81220000D03*
X157350000Y-81620000D03*
X157350000Y-82020000D03*
X157350000Y-82420000D03*
X157350000Y-82820000D03*
X157350000Y-83220000D03*
X157350000Y-83620000D03*
X157350000Y-84020000D03*
X157350000Y-84420000D03*
X157350000Y-84820000D03*
X157350000Y-85220000D03*
D27*
X158200000Y-86070000D03*
X158600000Y-86070000D03*
X159000000Y-86070000D03*
X159400000Y-86070000D03*
X159800000Y-86070000D03*
X160200000Y-86070000D03*
X160600000Y-86070000D03*
X161000000Y-86070000D03*
X161400000Y-86070000D03*
X161800000Y-86070000D03*
X162200000Y-86070000D03*
X162600000Y-86070000D03*
X163000000Y-86070000D03*
X163400000Y-86070000D03*
D26*
X164250000Y-85220000D03*
X164250000Y-84820000D03*
X164250000Y-84420000D03*
X164250000Y-84020000D03*
X164250000Y-83620000D03*
X164250000Y-83220000D03*
X164250000Y-82820000D03*
X164250000Y-82420000D03*
X164250000Y-82020000D03*
X164250000Y-81620000D03*
X164250000Y-81220000D03*
X164250000Y-80820000D03*
X164250000Y-80420000D03*
X164250000Y-80020000D03*
D27*
X163400000Y-79170000D03*
X163000000Y-79170000D03*
X162600000Y-79170000D03*
X162200000Y-79170000D03*
X161800000Y-79170000D03*
X161400000Y-79170000D03*
X161000000Y-79170000D03*
X160600000Y-79170000D03*
X160200000Y-79170000D03*
X159800000Y-79170000D03*
X159400000Y-79170000D03*
X159000000Y-79170000D03*
X158600000Y-79170000D03*
X158200000Y-79170000D03*
%TD*%
D12*
%TO.C,C7*%
X162200000Y-74600000D03*
X161200000Y-74600000D03*
%TD*%
D20*
%TO.C,C6*%
X157650000Y-74650000D03*
X157650000Y-75650000D03*
%TD*%
D10*
%TO.C,R1*%
X166700000Y-90360000D03*
X167700000Y-90360000D03*
%TD*%
D20*
%TO.C,R4*%
X167270000Y-93660000D03*
X167270000Y-94660000D03*
%TD*%
D16*
%TO.C,C23*%
X154170000Y-80800000D03*
X154170000Y-79800000D03*
%TD*%
D28*
%TO.C,Y1*%
X158725000Y-75650000D03*
X160075000Y-75650000D03*
X160075000Y-74600000D03*
X158725000Y-74600000D03*
%TD*%
D29*
%TO.C,C17*%
X164070000Y-89650000D03*
X162510000Y-89650000D03*
%TD*%
D12*
%TO.C,C11*%
X156020000Y-79950000D03*
X155020000Y-79950000D03*
%TD*%
M02*
