%TF.GenerationSoftware,KiCad,Pcbnew,9.0.0*%
%TF.CreationDate,2025-04-27T20:52:48-05:00*%
%TF.ProjectId,ESP32_S3_CAM,45535033-325f-4533-935f-43414d2e6b69,rev?*%
%TF.SameCoordinates,Original*%
%TF.FileFunction,Copper,L3,Inr*%
%TF.FilePolarity,Positive*%
%FSLAX46Y46*%
G04 Gerber Fmt 4.6, Leading zero omitted, Abs format (unit mm)*
G04 Created by KiCad (PCBNEW 9.0.0) date 2025-04-27 20:52:48*
%MOMM*%
%LPD*%
G01*
G04 APERTURE LIST*
%TA.AperFunction,ComponentPad*%
%ADD10C,0.500000*%
%TD*%
%TA.AperFunction,ComponentPad*%
%ADD11R,1.400000X1.400000*%
%TD*%
%TA.AperFunction,ComponentPad*%
%ADD12C,1.400000*%
%TD*%
%TA.AperFunction,ViaPad*%
%ADD13C,0.584200*%
%TD*%
%TA.AperFunction,Conductor*%
%ADD14C,0.152400*%
%TD*%
%TA.AperFunction,Conductor*%
%ADD15C,0.254000*%
%TD*%
%TA.AperFunction,Conductor*%
%ADD16C,0.203200*%
%TD*%
%TA.AperFunction,Conductor*%
%ADD17C,0.381000*%
%TD*%
G04 APERTURE END LIST*
D10*
%TO.N,GND*%
%TO.C,U1*%
X159800000Y-81620000D03*
X159800000Y-82620000D03*
X159800000Y-83620000D03*
X160800000Y-81620000D03*
X160800000Y-82620000D03*
X160800000Y-83620000D03*
X161800000Y-81620000D03*
X161800000Y-82620000D03*
X161800000Y-83620000D03*
%TD*%
D11*
%TO.N,+BATT*%
%TO.C,J2*%
X154500000Y-97470000D03*
D12*
%TO.N,GPIO_1*%
X156500000Y-97470000D03*
%TO.N,GPIO_2*%
X158500000Y-97470000D03*
%TO.N,GPIO_3*%
X160500000Y-97470000D03*
%TO.N,GPIO_4*%
X162500000Y-97470000D03*
%TO.N,GPIO_5*%
X164500000Y-97470000D03*
%TO.N,GND*%
X166500000Y-97470000D03*
%TD*%
D13*
%TO.N,GND*%
X153000000Y-74500000D03*
X154000000Y-74500000D03*
X155000000Y-74500000D03*
X156000000Y-74500000D03*
X153000000Y-73500000D03*
X153000000Y-72500000D03*
X153000000Y-71500000D03*
X154000000Y-73500000D03*
X155000000Y-73500000D03*
X156000000Y-73500000D03*
X154000000Y-72500000D03*
X155000000Y-72500000D03*
X156000000Y-72500000D03*
%TO.N,+3.3V*%
X163740000Y-90100000D03*
X167140000Y-74080000D03*
X160540000Y-94180000D03*
X154400000Y-77680000D03*
X167270000Y-93660000D03*
X165500000Y-86325000D03*
X156020000Y-79950000D03*
X166700000Y-90360000D03*
X161625000Y-77075000D03*
%TO.N,GPIO_1*%
X154460000Y-82510000D03*
%TO.N,GPIO_14*%
X157750000Y-90730000D03*
%TO.N,GPIO_11*%
X156250000Y-89990000D03*
%TO.N,SPICS0*%
X163280000Y-75060000D03*
X167580000Y-82780000D03*
%TO.N,GPIO_12*%
X156750000Y-90730000D03*
%TO.N,GND*%
X158000000Y-73500000D03*
X157000000Y-71500000D03*
X168500000Y-92500000D03*
X156000000Y-71500000D03*
X157140000Y-79000000D03*
X156000000Y-76500000D03*
X159000000Y-71500000D03*
X167500000Y-86250000D03*
X154250000Y-76500000D03*
X160500000Y-77750000D03*
X167500000Y-85000000D03*
X155000000Y-71500000D03*
X160000000Y-71500000D03*
X158000000Y-71500000D03*
X161000000Y-72500000D03*
X161000000Y-71500000D03*
X168500000Y-95750000D03*
X166500000Y-95750000D03*
X158000000Y-72500000D03*
X163425000Y-96025000D03*
X168500000Y-93750000D03*
X159000000Y-73500000D03*
X165500000Y-95750000D03*
X168500000Y-96750000D03*
X154000000Y-71500000D03*
X160000000Y-73500000D03*
X168500000Y-94750000D03*
X168500000Y-97750000D03*
X157000000Y-72500000D03*
X161410000Y-96040000D03*
X167500000Y-95750000D03*
X157000000Y-73500000D03*
X159000000Y-72500000D03*
X160000000Y-72500000D03*
%TO.N,GPIO_2*%
X154360000Y-83460000D03*
%TO.N,GPIO_38*%
X163940000Y-78140000D03*
%TO.N,GPIO_17*%
X159250000Y-89970000D03*
%TO.N,GPIO_3*%
X155245000Y-83395000D03*
%TO.N,GPIO_10*%
X155750000Y-90730000D03*
%TO.N,SPIWP*%
X165790000Y-78590000D03*
X166650000Y-83890000D03*
%TO.N,GPIO_13*%
X157250000Y-89990000D03*
%TO.N,CHIP_PU*%
X165823333Y-72080000D03*
X154170000Y-80800000D03*
%TO.N,GPIO_0*%
X162330000Y-72080000D03*
X154990000Y-75680000D03*
%TO.N,SPIQ*%
X165650000Y-82730000D03*
X163530000Y-76630000D03*
%TO.N,Net-(C10-Pad1)*%
X166700000Y-91210000D03*
%TO.N,GPIO_48*%
X166000000Y-79975000D03*
X160750000Y-90730000D03*
%TO.N,GPIO_47*%
X162250000Y-91100000D03*
X165175000Y-81150000D03*
%TO.N,GPIO_16*%
X158750000Y-90730000D03*
%TO.N,AVCC_2V8*%
X161480000Y-91490000D03*
X165100000Y-91480000D03*
%TO.N,GPIO_40*%
X162600000Y-75880000D03*
X167270000Y-94660000D03*
%TO.N,GPIO_15*%
X158250000Y-89990000D03*
%TO.N,GPIO_18*%
X159750000Y-90730000D03*
%TO.N,GPIO_39*%
X166423333Y-94660000D03*
X163000000Y-77720000D03*
%TO.N,GPIO_4*%
X155000000Y-84450000D03*
%TO.N,USB-*%
X161090000Y-89130000D03*
%TO.N,USB+*%
X162970000Y-87910000D03*
%TO.N,GPIO_5*%
X155925000Y-84375000D03*
%TO.N,+BATT*%
X155750000Y-87560000D03*
X165075000Y-94925000D03*
%TO.N,VCC_1V3*%
X152710000Y-92540000D03*
%TO.N,Net-(J1-Pad17)*%
X166700000Y-87810000D03*
X164220000Y-87810000D03*
%TO.N,Net-(D1-K)*%
X153870000Y-93770000D03*
%TO.N,Net-(D2-K)*%
X152660000Y-96850000D03*
%TD*%
D14*
%TO.N,+3.3V*%
X167270000Y-93660000D02*
X167270000Y-90930000D01*
D15*
X163350000Y-83275000D02*
X165500000Y-85425000D01*
X156020000Y-82220000D02*
X160125000Y-86325000D01*
X165500000Y-85425000D02*
X165500000Y-86325000D01*
X160125000Y-86325000D02*
X165500000Y-86325000D01*
D14*
X154400000Y-78330000D02*
X156020000Y-79950000D01*
X154400000Y-77680000D02*
X154400000Y-78330000D01*
D15*
X161625000Y-78815000D02*
X163350000Y-80540000D01*
X163730000Y-90990000D02*
X163730000Y-90110000D01*
D14*
X165500000Y-88430000D02*
X165500000Y-86325000D01*
X167140000Y-74080000D02*
X163040000Y-74080000D01*
D15*
X156020000Y-79950000D02*
X156020000Y-82220000D01*
D14*
X166700000Y-90360000D02*
X166700000Y-89630000D01*
D15*
X163350000Y-80540000D02*
X163350000Y-83275000D01*
D14*
X163040000Y-74080000D02*
X161625000Y-75495000D01*
X166700000Y-89630000D02*
X165500000Y-88430000D01*
X161625000Y-75495000D02*
X161625000Y-77075000D01*
D15*
X161625000Y-77075000D02*
X161625000Y-78815000D01*
D14*
X167270000Y-90930000D02*
X166700000Y-90360000D01*
D15*
X160540000Y-94180000D02*
X163730000Y-90990000D01*
D16*
%TO.N,AVCC_2V8*%
X165100000Y-89960000D02*
X165100000Y-91480000D01*
X161480000Y-90110000D02*
X162480000Y-89110000D01*
X162480000Y-89110000D02*
X164250000Y-89110000D01*
X164250000Y-89110000D02*
X165100000Y-89960000D01*
X161480000Y-91490000D02*
X161480000Y-90110000D01*
D15*
%TO.N,+BATT*%
X154460000Y-89570000D02*
X154460000Y-92390000D01*
D17*
X165040000Y-94890000D02*
X165075000Y-94925000D01*
X154500000Y-96430000D02*
X155270000Y-95660000D01*
X155270000Y-95660000D02*
X160600000Y-95660000D01*
X161370000Y-94890000D02*
X165040000Y-94890000D01*
D15*
X155750000Y-87560000D02*
X155750000Y-88280000D01*
X154460000Y-92390000D02*
X155270000Y-93200000D01*
D17*
X160600000Y-95660000D02*
X161370000Y-94890000D01*
X154500000Y-97470000D02*
X154500000Y-96430000D01*
D15*
X155270000Y-93200000D02*
X155270000Y-95660000D01*
X155750000Y-88280000D02*
X154460000Y-89570000D01*
%TD*%
%TA.AperFunction,Conductor*%
%TO.N,GND*%
G36*
X169070238Y-70967593D02*
G01*
X169095958Y-71012142D01*
X169097100Y-71025200D01*
X169097100Y-98271900D01*
X169079507Y-98320238D01*
X169034958Y-98345958D01*
X169021900Y-98347100D01*
X166969508Y-98347100D01*
X166921170Y-98329507D01*
X166895450Y-98284958D01*
X166904383Y-98234300D01*
X166927729Y-98209374D01*
X167043370Y-98132104D01*
X167048855Y-98126618D01*
X167048855Y-98126617D01*
X166724502Y-97802264D01*
X166745606Y-97790080D01*
X166820080Y-97715606D01*
X166832264Y-97694501D01*
X167156618Y-98018855D01*
X167162104Y-98013370D01*
X167255385Y-97873765D01*
X167319640Y-97718639D01*
X167319641Y-97718637D01*
X167352400Y-97553955D01*
X167352400Y-97386044D01*
X167319641Y-97221362D01*
X167319640Y-97221360D01*
X167255385Y-97066234D01*
X167162105Y-96926630D01*
X167162097Y-96926621D01*
X167156620Y-96921144D01*
X167156618Y-96921144D01*
X166832264Y-97245497D01*
X166820080Y-97224394D01*
X166745606Y-97149920D01*
X166724501Y-97137735D01*
X167048855Y-96813381D01*
X167048855Y-96813379D01*
X167043378Y-96807902D01*
X167043369Y-96807894D01*
X166903765Y-96714614D01*
X166748639Y-96650359D01*
X166748637Y-96650358D01*
X166583956Y-96617600D01*
X166416044Y-96617600D01*
X166251362Y-96650358D01*
X166251360Y-96650359D01*
X166096234Y-96714614D01*
X165956633Y-96807893D01*
X165956625Y-96807899D01*
X165951143Y-96813380D01*
X166275498Y-97137735D01*
X166254394Y-97149920D01*
X166179920Y-97224394D01*
X166167735Y-97245498D01*
X165843380Y-96921144D01*
X165837899Y-96926625D01*
X165837893Y-96926633D01*
X165744614Y-97066234D01*
X165680359Y-97221360D01*
X165680358Y-97221362D01*
X165647600Y-97386044D01*
X165647600Y-97553955D01*
X165680358Y-97718637D01*
X165680359Y-97718639D01*
X165744614Y-97873765D01*
X165837894Y-98013369D01*
X165837902Y-98013378D01*
X165843379Y-98018855D01*
X165843381Y-98018855D01*
X166167735Y-97694500D01*
X166179920Y-97715606D01*
X166254394Y-97790080D01*
X166275497Y-97802264D01*
X165951144Y-98126618D01*
X165951144Y-98126620D01*
X165956621Y-98132097D01*
X165956630Y-98132105D01*
X166072271Y-98209374D01*
X166102688Y-98250857D01*
X166099323Y-98302187D01*
X166063752Y-98339345D01*
X166030492Y-98347100D01*
X164970408Y-98347100D01*
X164922070Y-98329507D01*
X164896350Y-98284958D01*
X164905283Y-98234300D01*
X164928627Y-98209374D01*
X165043692Y-98132491D01*
X165162491Y-98013692D01*
X165255830Y-97874000D01*
X165320124Y-97718782D01*
X165352900Y-97554003D01*
X165352900Y-97385997D01*
X165320124Y-97221218D01*
X165255830Y-97066000D01*
X165162491Y-96926308D01*
X165162488Y-96926305D01*
X165162486Y-96926302D01*
X165043697Y-96807513D01*
X165043694Y-96807511D01*
X165043692Y-96807509D01*
X164904000Y-96714170D01*
X164894758Y-96710342D01*
X164817241Y-96678233D01*
X164748782Y-96649876D01*
X164748780Y-96649875D01*
X164748779Y-96649875D01*
X164584004Y-96617100D01*
X164584003Y-96617100D01*
X164415997Y-96617100D01*
X164415996Y-96617100D01*
X164251220Y-96649875D01*
X164251218Y-96649876D01*
X164096001Y-96714169D01*
X163956305Y-96807511D01*
X163956302Y-96807513D01*
X163837513Y-96926302D01*
X163837511Y-96926305D01*
X163744169Y-97066001D01*
X163679876Y-97221218D01*
X163679875Y-97221220D01*
X163647100Y-97385996D01*
X163647100Y-97554003D01*
X163679875Y-97718779D01*
X163679876Y-97718781D01*
X163744072Y-97873765D01*
X163744170Y-97874000D01*
X163837509Y-98013692D01*
X163837511Y-98013694D01*
X163837513Y-98013697D01*
X163956302Y-98132486D01*
X163956305Y-98132488D01*
X163956308Y-98132491D01*
X164071371Y-98209373D01*
X164101788Y-98250857D01*
X164098423Y-98302186D01*
X164062852Y-98339345D01*
X164029592Y-98347100D01*
X162970408Y-98347100D01*
X162922070Y-98329507D01*
X162896350Y-98284958D01*
X162905283Y-98234300D01*
X162928627Y-98209374D01*
X163043692Y-98132491D01*
X163162491Y-98013692D01*
X163255830Y-97874000D01*
X163320124Y-97718782D01*
X163352900Y-97554003D01*
X163352900Y-97385997D01*
X163320124Y-97221218D01*
X163255830Y-97066000D01*
X163162491Y-96926308D01*
X163162488Y-96926305D01*
X163162486Y-96926302D01*
X163043697Y-96807513D01*
X163043694Y-96807511D01*
X163043692Y-96807509D01*
X162904000Y-96714170D01*
X162894758Y-96710342D01*
X162817241Y-96678233D01*
X162748782Y-96649876D01*
X162748780Y-96649875D01*
X162748779Y-96649875D01*
X162584004Y-96617100D01*
X162584003Y-96617100D01*
X162415997Y-96617100D01*
X162415996Y-96617100D01*
X162251220Y-96649875D01*
X162251218Y-96649876D01*
X162096001Y-96714169D01*
X161956305Y-96807511D01*
X161956302Y-96807513D01*
X161837513Y-96926302D01*
X161837511Y-96926305D01*
X161744169Y-97066001D01*
X161679876Y-97221218D01*
X161679875Y-97221220D01*
X161647100Y-97385996D01*
X161647100Y-97554003D01*
X161679875Y-97718779D01*
X161679876Y-97718781D01*
X161744072Y-97873765D01*
X161744170Y-97874000D01*
X161837509Y-98013692D01*
X161837511Y-98013694D01*
X161837513Y-98013697D01*
X161956302Y-98132486D01*
X161956305Y-98132488D01*
X161956308Y-98132491D01*
X162071371Y-98209373D01*
X162101788Y-98250857D01*
X162098423Y-98302186D01*
X162062852Y-98339345D01*
X162029592Y-98347100D01*
X160970408Y-98347100D01*
X160922070Y-98329507D01*
X160896350Y-98284958D01*
X160905283Y-98234300D01*
X160928627Y-98209374D01*
X161043692Y-98132491D01*
X161162491Y-98013692D01*
X161255830Y-97874000D01*
X161320124Y-97718782D01*
X161352900Y-97554003D01*
X161352900Y-97385997D01*
X161320124Y-97221218D01*
X161255830Y-97066000D01*
X161162491Y-96926308D01*
X161162488Y-96926305D01*
X161162486Y-96926302D01*
X161043697Y-96807513D01*
X161043694Y-96807511D01*
X161043692Y-96807509D01*
X160904000Y-96714170D01*
X160894758Y-96710342D01*
X160817241Y-96678233D01*
X160748782Y-96649876D01*
X160748780Y-96649875D01*
X160748779Y-96649875D01*
X160584004Y-96617100D01*
X160584003Y-96617100D01*
X160415997Y-96617100D01*
X160415996Y-96617100D01*
X160251220Y-96649875D01*
X160251218Y-96649876D01*
X160096001Y-96714169D01*
X159956305Y-96807511D01*
X159956302Y-96807513D01*
X159837513Y-96926302D01*
X159837511Y-96926305D01*
X159744169Y-97066001D01*
X159679876Y-97221218D01*
X159679875Y-97221220D01*
X159647100Y-97385996D01*
X159647100Y-97554003D01*
X159679875Y-97718779D01*
X159679876Y-97718781D01*
X159744072Y-97873765D01*
X159744170Y-97874000D01*
X159837509Y-98013692D01*
X159837511Y-98013694D01*
X159837513Y-98013697D01*
X159956302Y-98132486D01*
X159956305Y-98132488D01*
X159956308Y-98132491D01*
X160071371Y-98209373D01*
X160101788Y-98250857D01*
X160098423Y-98302186D01*
X160062852Y-98339345D01*
X160029592Y-98347100D01*
X158970408Y-98347100D01*
X158922070Y-98329507D01*
X158896350Y-98284958D01*
X158905283Y-98234300D01*
X158928627Y-98209374D01*
X159043692Y-98132491D01*
X159162491Y-98013692D01*
X159255830Y-97874000D01*
X159320124Y-97718782D01*
X159352900Y-97554003D01*
X159352900Y-97385997D01*
X159320124Y-97221218D01*
X159255830Y-97066000D01*
X159162491Y-96926308D01*
X159162488Y-96926305D01*
X159162486Y-96926302D01*
X159043697Y-96807513D01*
X159043694Y-96807511D01*
X159043692Y-96807509D01*
X158904000Y-96714170D01*
X158894758Y-96710342D01*
X158817241Y-96678233D01*
X158748782Y-96649876D01*
X158748780Y-96649875D01*
X158748779Y-96649875D01*
X158584004Y-96617100D01*
X158584003Y-96617100D01*
X158415997Y-96617100D01*
X158415996Y-96617100D01*
X158251220Y-96649875D01*
X158251218Y-96649876D01*
X158096001Y-96714169D01*
X157956305Y-96807511D01*
X157956302Y-96807513D01*
X157837513Y-96926302D01*
X157837511Y-96926305D01*
X157744169Y-97066001D01*
X157679876Y-97221218D01*
X157679875Y-97221220D01*
X157647100Y-97385996D01*
X157647100Y-97554003D01*
X157679875Y-97718779D01*
X157679876Y-97718781D01*
X157744072Y-97873765D01*
X157744170Y-97874000D01*
X157837509Y-98013692D01*
X157837511Y-98013694D01*
X157837513Y-98013697D01*
X157956302Y-98132486D01*
X157956305Y-98132488D01*
X157956308Y-98132491D01*
X158071371Y-98209373D01*
X158101788Y-98250857D01*
X158098423Y-98302186D01*
X158062852Y-98339345D01*
X158029592Y-98347100D01*
X156970408Y-98347100D01*
X156922070Y-98329507D01*
X156896350Y-98284958D01*
X156905283Y-98234300D01*
X156928627Y-98209374D01*
X157043692Y-98132491D01*
X157162491Y-98013692D01*
X157255830Y-97874000D01*
X157320124Y-97718782D01*
X157352900Y-97554003D01*
X157352900Y-97385997D01*
X157320124Y-97221218D01*
X157255830Y-97066000D01*
X157162491Y-96926308D01*
X157162488Y-96926305D01*
X157162486Y-96926302D01*
X157043697Y-96807513D01*
X157043694Y-96807511D01*
X157043692Y-96807509D01*
X156904000Y-96714170D01*
X156894758Y-96710342D01*
X156817241Y-96678233D01*
X156748782Y-96649876D01*
X156748780Y-96649875D01*
X156748779Y-96649875D01*
X156584004Y-96617100D01*
X156584003Y-96617100D01*
X156415997Y-96617100D01*
X156415996Y-96617100D01*
X156251220Y-96649875D01*
X156251218Y-96649876D01*
X156096001Y-96714169D01*
X155956305Y-96807511D01*
X155956302Y-96807513D01*
X155837513Y-96926302D01*
X155837511Y-96926305D01*
X155744169Y-97066001D01*
X155679876Y-97221218D01*
X155679875Y-97221220D01*
X155647100Y-97385996D01*
X155647100Y-97554003D01*
X155679875Y-97718779D01*
X155679876Y-97718781D01*
X155744072Y-97873765D01*
X155744170Y-97874000D01*
X155837509Y-98013692D01*
X155837511Y-98013694D01*
X155837513Y-98013697D01*
X155956302Y-98132486D01*
X155956305Y-98132488D01*
X155956308Y-98132491D01*
X156071371Y-98209373D01*
X156101788Y-98250857D01*
X156098423Y-98302186D01*
X156062852Y-98339345D01*
X156029592Y-98347100D01*
X155406245Y-98347100D01*
X155357907Y-98329507D01*
X155332187Y-98284958D01*
X155341120Y-98234300D01*
X155343709Y-98230134D01*
X155344028Y-98229658D01*
X155352900Y-98185057D01*
X155352899Y-96754944D01*
X155344028Y-96710342D01*
X155322575Y-96678236D01*
X155310235Y-96659767D01*
X155310231Y-96659764D01*
X155259658Y-96625972D01*
X155259656Y-96625971D01*
X155215057Y-96617100D01*
X154980089Y-96617100D01*
X154931751Y-96599507D01*
X154906031Y-96554958D01*
X154914964Y-96504300D01*
X154926915Y-96488726D01*
X155390215Y-96025426D01*
X155436835Y-96003686D01*
X155443389Y-96003400D01*
X160645207Y-96003400D01*
X160645209Y-96003400D01*
X160709146Y-95986268D01*
X160732548Y-95979998D01*
X160810853Y-95934788D01*
X161490215Y-95255426D01*
X161536835Y-95233686D01*
X161543389Y-95233400D01*
X164722927Y-95233400D01*
X164771265Y-95250993D01*
X164776090Y-95255415D01*
X164801764Y-95281089D01*
X164801765Y-95281090D01*
X164903233Y-95339673D01*
X164903235Y-95339673D01*
X164903236Y-95339674D01*
X165016415Y-95370000D01*
X165016418Y-95370000D01*
X165133582Y-95370000D01*
X165133585Y-95370000D01*
X165246764Y-95339674D01*
X165348236Y-95281089D01*
X165431089Y-95198236D01*
X165489674Y-95096764D01*
X165520000Y-94983585D01*
X165520000Y-94866415D01*
X165489674Y-94753236D01*
X165489673Y-94753235D01*
X165489673Y-94753233D01*
X165431089Y-94651763D01*
X165348236Y-94568910D01*
X165246766Y-94510326D01*
X165201492Y-94498195D01*
X165133585Y-94480000D01*
X165016415Y-94480000D01*
X164903236Y-94510326D01*
X164903234Y-94510326D01*
X164857858Y-94536525D01*
X164820258Y-94546600D01*
X161324791Y-94546600D01*
X161266565Y-94562201D01*
X161237452Y-94570002D01*
X161235716Y-94571005D01*
X161235712Y-94571007D01*
X161159148Y-94615211D01*
X161159142Y-94615215D01*
X160479785Y-95294574D01*
X160433165Y-95316314D01*
X160426611Y-95316600D01*
X155625100Y-95316600D01*
X155576762Y-95299007D01*
X155551042Y-95254458D01*
X155549900Y-95241400D01*
X155549900Y-94121415D01*
X160095000Y-94121415D01*
X160095000Y-94238585D01*
X160112504Y-94303910D01*
X160125326Y-94351766D01*
X160183910Y-94453236D01*
X160266763Y-94536089D01*
X160368233Y-94594673D01*
X160368235Y-94594673D01*
X160368236Y-94594674D01*
X160481415Y-94625000D01*
X160481418Y-94625000D01*
X160598582Y-94625000D01*
X160598585Y-94625000D01*
X160711764Y-94594674D01*
X160752757Y-94571007D01*
X160813236Y-94536089D01*
X160896089Y-94453236D01*
X160954673Y-94351766D01*
X160954674Y-94351764D01*
X160985000Y-94238585D01*
X160985000Y-94161986D01*
X161002593Y-94113648D01*
X161007026Y-94108812D01*
X163953976Y-91161862D01*
X163960008Y-91151415D01*
X163990825Y-91098038D01*
X164009900Y-91026850D01*
X164009900Y-90953150D01*
X164009900Y-90490574D01*
X164027493Y-90442236D01*
X164031926Y-90437400D01*
X164096089Y-90373236D01*
X164154673Y-90271766D01*
X164155841Y-90267407D01*
X164185000Y-90158585D01*
X164185000Y-90041415D01*
X164154674Y-89928236D01*
X164154673Y-89928235D01*
X164154673Y-89928233D01*
X164096089Y-89826763D01*
X164013236Y-89743910D01*
X163911766Y-89685326D01*
X163866492Y-89673195D01*
X163798585Y-89655000D01*
X163681415Y-89655000D01*
X163624825Y-89670163D01*
X163568233Y-89685326D01*
X163466763Y-89743910D01*
X163383910Y-89826763D01*
X163325326Y-89928233D01*
X163307130Y-89996143D01*
X163295000Y-90041415D01*
X163295000Y-90158585D01*
X163305622Y-90198227D01*
X163325326Y-90271766D01*
X163383909Y-90373234D01*
X163383910Y-90373235D01*
X163383911Y-90373236D01*
X163428074Y-90417399D01*
X163449814Y-90464018D01*
X163450100Y-90470573D01*
X163450100Y-90842914D01*
X163432507Y-90891252D01*
X163428074Y-90896088D01*
X160611188Y-93712974D01*
X160564568Y-93734714D01*
X160558014Y-93735000D01*
X160481415Y-93735000D01*
X160424825Y-93750163D01*
X160368233Y-93765326D01*
X160266763Y-93823910D01*
X160183910Y-93906763D01*
X160125326Y-94008233D01*
X160107524Y-94074673D01*
X160095000Y-94121415D01*
X155549900Y-94121415D01*
X155549900Y-93163151D01*
X155530824Y-93091961D01*
X155523037Y-93078474D01*
X155493976Y-93028138D01*
X155441862Y-92976024D01*
X154761926Y-92296088D01*
X154740186Y-92249468D01*
X154739900Y-92242914D01*
X154739900Y-90671415D01*
X155305000Y-90671415D01*
X155305000Y-90788585D01*
X155322504Y-90853911D01*
X155335326Y-90901766D01*
X155393910Y-91003236D01*
X155476763Y-91086089D01*
X155578233Y-91144673D01*
X155578235Y-91144673D01*
X155578236Y-91144674D01*
X155691415Y-91175000D01*
X155691418Y-91175000D01*
X155808582Y-91175000D01*
X155808585Y-91175000D01*
X155921764Y-91144674D01*
X155934710Y-91137200D01*
X156023236Y-91086089D01*
X156106089Y-91003236D01*
X156164673Y-90901766D01*
X156164674Y-90901764D01*
X156177363Y-90854407D01*
X156206867Y-90812272D01*
X156256554Y-90798958D01*
X156303174Y-90820697D01*
X156322636Y-90854406D01*
X156327903Y-90874062D01*
X156335326Y-90901766D01*
X156393910Y-91003236D01*
X156476763Y-91086089D01*
X156578233Y-91144673D01*
X156578235Y-91144673D01*
X156578236Y-91144674D01*
X156691415Y-91175000D01*
X156691418Y-91175000D01*
X156808582Y-91175000D01*
X156808585Y-91175000D01*
X156921764Y-91144674D01*
X156934710Y-91137200D01*
X157023236Y-91086089D01*
X157106089Y-91003236D01*
X157164673Y-90901766D01*
X157164674Y-90901764D01*
X157177363Y-90854407D01*
X157206867Y-90812272D01*
X157256554Y-90798958D01*
X157303174Y-90820697D01*
X157322636Y-90854406D01*
X157327903Y-90874062D01*
X157335326Y-90901766D01*
X157393910Y-91003236D01*
X157476763Y-91086089D01*
X157578233Y-91144673D01*
X157578235Y-91144673D01*
X157578236Y-91144674D01*
X157691415Y-91175000D01*
X157691418Y-91175000D01*
X157808582Y-91175000D01*
X157808585Y-91175000D01*
X157921764Y-91144674D01*
X157934710Y-91137200D01*
X158023236Y-91086089D01*
X158106089Y-91003236D01*
X158164673Y-90901766D01*
X158164674Y-90901764D01*
X158177363Y-90854407D01*
X158206867Y-90812272D01*
X158256554Y-90798958D01*
X158303174Y-90820697D01*
X158322636Y-90854406D01*
X158327903Y-90874062D01*
X158335326Y-90901766D01*
X158393910Y-91003236D01*
X158476763Y-91086089D01*
X158578233Y-91144673D01*
X158578235Y-91144673D01*
X158578236Y-91144674D01*
X158691415Y-91175000D01*
X158691418Y-91175000D01*
X158808582Y-91175000D01*
X158808585Y-91175000D01*
X158921764Y-91144674D01*
X158934710Y-91137200D01*
X159023236Y-91086089D01*
X159106089Y-91003236D01*
X159164673Y-90901766D01*
X159164674Y-90901764D01*
X159177363Y-90854407D01*
X159206867Y-90812272D01*
X159256554Y-90798958D01*
X159303174Y-90820697D01*
X159322636Y-90854406D01*
X159327903Y-90874062D01*
X159335326Y-90901766D01*
X159393910Y-91003236D01*
X159476763Y-91086089D01*
X159578233Y-91144673D01*
X159578235Y-91144673D01*
X159578236Y-91144674D01*
X159691415Y-91175000D01*
X159691418Y-91175000D01*
X159808582Y-91175000D01*
X159808585Y-91175000D01*
X159921764Y-91144674D01*
X159934710Y-91137200D01*
X160023236Y-91086089D01*
X160106089Y-91003236D01*
X160164673Y-90901766D01*
X160164674Y-90901764D01*
X160177363Y-90854407D01*
X160206867Y-90812272D01*
X160256554Y-90798958D01*
X160303174Y-90820697D01*
X160322636Y-90854406D01*
X160327903Y-90874062D01*
X160335326Y-90901766D01*
X160393910Y-91003236D01*
X160476763Y-91086089D01*
X160578233Y-91144673D01*
X160578235Y-91144673D01*
X160578236Y-91144674D01*
X160691415Y-91175000D01*
X160691418Y-91175000D01*
X160808582Y-91175000D01*
X160808585Y-91175000D01*
X160921764Y-91144674D01*
X160934710Y-91137200D01*
X161023236Y-91086089D01*
X161097126Y-91012200D01*
X161117632Y-91002637D01*
X161137242Y-90991316D01*
X161140629Y-90991913D01*
X161143746Y-90990460D01*
X161165607Y-90996317D01*
X161187900Y-91000249D01*
X161190110Y-91002883D01*
X161193433Y-91003774D01*
X161206415Y-91022314D01*
X161220965Y-91039654D01*
X161221775Y-91044250D01*
X161222938Y-91045911D01*
X161225500Y-91065374D01*
X161225500Y-91084026D01*
X161207907Y-91132364D01*
X161203474Y-91137200D01*
X161123910Y-91216763D01*
X161065326Y-91318233D01*
X161050589Y-91373236D01*
X161035000Y-91431415D01*
X161035000Y-91548585D01*
X161044279Y-91583215D01*
X161065326Y-91661766D01*
X161123910Y-91763236D01*
X161206763Y-91846089D01*
X161308233Y-91904673D01*
X161308235Y-91904673D01*
X161308236Y-91904674D01*
X161421415Y-91935000D01*
X161421418Y-91935000D01*
X161538582Y-91935000D01*
X161538585Y-91935000D01*
X161651764Y-91904674D01*
X161669085Y-91894674D01*
X161753236Y-91846089D01*
X161836089Y-91763236D01*
X161894673Y-91661766D01*
X161894674Y-91661764D01*
X161925000Y-91548585D01*
X161925000Y-91548576D01*
X161925283Y-91546430D01*
X161925888Y-91545267D01*
X161926275Y-91543824D01*
X161926594Y-91543909D01*
X161949035Y-91500802D01*
X161996559Y-91481117D01*
X162037438Y-91491119D01*
X162078236Y-91514674D01*
X162191415Y-91545000D01*
X162191418Y-91545000D01*
X162308582Y-91545000D01*
X162308585Y-91545000D01*
X162421764Y-91514674D01*
X162523236Y-91456089D01*
X162606089Y-91373236D01*
X162664674Y-91271764D01*
X162695000Y-91158585D01*
X162695000Y-91041415D01*
X162664674Y-90928236D01*
X162664673Y-90928235D01*
X162664673Y-90928233D01*
X162606089Y-90826763D01*
X162523236Y-90743910D01*
X162421766Y-90685326D01*
X162376492Y-90673195D01*
X162308585Y-90655000D01*
X162191415Y-90655000D01*
X162134825Y-90670163D01*
X162078233Y-90685326D01*
X161976763Y-90743910D01*
X161893911Y-90826762D01*
X161874825Y-90859821D01*
X161835419Y-90892885D01*
X161783980Y-90892885D01*
X161744575Y-90859819D01*
X161734500Y-90822220D01*
X161734500Y-90246565D01*
X161752093Y-90198227D01*
X161756526Y-90193391D01*
X162563391Y-89386526D01*
X162610011Y-89364786D01*
X162616565Y-89364500D01*
X164113434Y-89364500D01*
X164161772Y-89382093D01*
X164166608Y-89386526D01*
X164823474Y-90043391D01*
X164845214Y-90090011D01*
X164845500Y-90096565D01*
X164845500Y-91074026D01*
X164827907Y-91122364D01*
X164823474Y-91127200D01*
X164743910Y-91206763D01*
X164685326Y-91308233D01*
X164667909Y-91373236D01*
X164655000Y-91421415D01*
X164655000Y-91538585D01*
X164669352Y-91592148D01*
X164685326Y-91651766D01*
X164743910Y-91753236D01*
X164826763Y-91836089D01*
X164928233Y-91894673D01*
X164928235Y-91894673D01*
X164928236Y-91894674D01*
X165041415Y-91925000D01*
X165041418Y-91925000D01*
X165158582Y-91925000D01*
X165158585Y-91925000D01*
X165271764Y-91894674D01*
X165373236Y-91836089D01*
X165456089Y-91753236D01*
X165508899Y-91661766D01*
X165514673Y-91651766D01*
X165514674Y-91651764D01*
X165545000Y-91538585D01*
X165545000Y-91421415D01*
X165514674Y-91308236D01*
X165514673Y-91308235D01*
X165514673Y-91308233D01*
X165456089Y-91206763D01*
X165376526Y-91127200D01*
X165354786Y-91080580D01*
X165354500Y-91074026D01*
X165354500Y-90019384D01*
X165354501Y-90019375D01*
X165354501Y-89909378D01*
X165353817Y-89907727D01*
X165321663Y-89830100D01*
X165315755Y-89815837D01*
X165315754Y-89815836D01*
X165315754Y-89815835D01*
X165239884Y-89739965D01*
X165239869Y-89739952D01*
X164394164Y-88894245D01*
X164300623Y-88855500D01*
X162539383Y-88855500D01*
X162539375Y-88855499D01*
X162530623Y-88855499D01*
X162429377Y-88855499D01*
X162363234Y-88882896D01*
X162335837Y-88894245D01*
X162264245Y-88965837D01*
X162264244Y-88965838D01*
X161325260Y-89904821D01*
X161264245Y-89965835D01*
X161225500Y-90059376D01*
X161225500Y-90394626D01*
X161207907Y-90442964D01*
X161163358Y-90468684D01*
X161112700Y-90459751D01*
X161097126Y-90447800D01*
X161023236Y-90373910D01*
X160921766Y-90315326D01*
X160876492Y-90303195D01*
X160808585Y-90285000D01*
X160691415Y-90285000D01*
X160634825Y-90300163D01*
X160578233Y-90315326D01*
X160476763Y-90373910D01*
X160393910Y-90456763D01*
X160335326Y-90558234D01*
X160322638Y-90605590D01*
X160293133Y-90647727D01*
X160243446Y-90661041D01*
X160196826Y-90639302D01*
X160177362Y-90605590D01*
X160164673Y-90558234D01*
X160106089Y-90456763D01*
X160023236Y-90373910D01*
X159921766Y-90315326D01*
X159876492Y-90303195D01*
X159808585Y-90285000D01*
X159712227Y-90285000D01*
X159663889Y-90267407D01*
X159638169Y-90222858D01*
X159647102Y-90172200D01*
X159664673Y-90141765D01*
X159664674Y-90141764D01*
X159695000Y-90028585D01*
X159695000Y-89911415D01*
X159664674Y-89798236D01*
X159664673Y-89798235D01*
X159664673Y-89798233D01*
X159606089Y-89696763D01*
X159523236Y-89613910D01*
X159421766Y-89555326D01*
X159376492Y-89543195D01*
X159308585Y-89525000D01*
X159191415Y-89525000D01*
X159134825Y-89540163D01*
X159078233Y-89555326D01*
X158976763Y-89613910D01*
X158893910Y-89696763D01*
X158835327Y-89798233D01*
X158835326Y-89798235D01*
X158835326Y-89798236D01*
X158819958Y-89855591D01*
X158790453Y-89897727D01*
X158740766Y-89911041D01*
X158694145Y-89889301D01*
X158674683Y-89855591D01*
X158664674Y-89818236D01*
X158624984Y-89749491D01*
X158606089Y-89716763D01*
X158523236Y-89633910D01*
X158421766Y-89575326D01*
X158376492Y-89563195D01*
X158308585Y-89545000D01*
X158191415Y-89545000D01*
X158134825Y-89560163D01*
X158078233Y-89575326D01*
X157976763Y-89633910D01*
X157893910Y-89716763D01*
X157835326Y-89818234D01*
X157833041Y-89826763D01*
X157825318Y-89855589D01*
X157822638Y-89865590D01*
X157793133Y-89907727D01*
X157743446Y-89921041D01*
X157696826Y-89899302D01*
X157677362Y-89865590D01*
X157674683Y-89855591D01*
X157664674Y-89818236D01*
X157624984Y-89749491D01*
X157606089Y-89716763D01*
X157523236Y-89633910D01*
X157421766Y-89575326D01*
X157376492Y-89563195D01*
X157308585Y-89545000D01*
X157191415Y-89545000D01*
X157134825Y-89560163D01*
X157078233Y-89575326D01*
X156976763Y-89633910D01*
X156893910Y-89716763D01*
X156835326Y-89818234D01*
X156833041Y-89826763D01*
X156825318Y-89855589D01*
X156822638Y-89865590D01*
X156793133Y-89907727D01*
X156743446Y-89921041D01*
X156696826Y-89899302D01*
X156677362Y-89865590D01*
X156674683Y-89855591D01*
X156664674Y-89818236D01*
X156624984Y-89749491D01*
X156606089Y-89716763D01*
X156523236Y-89633910D01*
X156421766Y-89575326D01*
X156376492Y-89563195D01*
X156308585Y-89545000D01*
X156191415Y-89545000D01*
X156134825Y-89560163D01*
X156078233Y-89575326D01*
X155976763Y-89633910D01*
X155893910Y-89716763D01*
X155835326Y-89818233D01*
X155817130Y-89886143D01*
X155805000Y-89931415D01*
X155805000Y-90048585D01*
X155815230Y-90086763D01*
X155835326Y-90161765D01*
X155841351Y-90172200D01*
X155850284Y-90222858D01*
X155824564Y-90267406D01*
X155776226Y-90285000D01*
X155691415Y-90285000D01*
X155634825Y-90300163D01*
X155578233Y-90315326D01*
X155476763Y-90373910D01*
X155393910Y-90456763D01*
X155335326Y-90558233D01*
X155317130Y-90626143D01*
X155305000Y-90671415D01*
X154739900Y-90671415D01*
X154739900Y-89717086D01*
X154757493Y-89668748D01*
X154761926Y-89663912D01*
X155354424Y-89071415D01*
X160645000Y-89071415D01*
X160645000Y-89188585D01*
X160663195Y-89256492D01*
X160675326Y-89301766D01*
X160733910Y-89403236D01*
X160816763Y-89486089D01*
X160918233Y-89544673D01*
X160918235Y-89544673D01*
X160918236Y-89544674D01*
X161031415Y-89575000D01*
X161031418Y-89575000D01*
X161148582Y-89575000D01*
X161148585Y-89575000D01*
X161261764Y-89544674D01*
X161281723Y-89533151D01*
X161363236Y-89486089D01*
X161446089Y-89403236D01*
X161504673Y-89301766D01*
X161504674Y-89301764D01*
X161535000Y-89188585D01*
X161535000Y-89071415D01*
X161504674Y-88958236D01*
X161504673Y-88958235D01*
X161504673Y-88958233D01*
X161446089Y-88856763D01*
X161363236Y-88773910D01*
X161261766Y-88715326D01*
X161216492Y-88703195D01*
X161148585Y-88685000D01*
X161031415Y-88685000D01*
X160974825Y-88700163D01*
X160918233Y-88715326D01*
X160816763Y-88773910D01*
X160733910Y-88856763D01*
X160675326Y-88958233D01*
X160657130Y-89026143D01*
X160645000Y-89071415D01*
X155354424Y-89071415D01*
X155412527Y-89013312D01*
X155973972Y-88451867D01*
X155973972Y-88451866D01*
X155973976Y-88451863D01*
X156010824Y-88388038D01*
X156010825Y-88388037D01*
X156029900Y-88316850D01*
X156029900Y-87940573D01*
X156034529Y-87927853D01*
X156034632Y-87914318D01*
X156045760Y-87896995D01*
X156047493Y-87892235D01*
X156047862Y-87891800D01*
X156049803Y-87889521D01*
X156087910Y-87851415D01*
X162525000Y-87851415D01*
X162525000Y-87968585D01*
X162528532Y-87981766D01*
X162555326Y-88081766D01*
X162613910Y-88183236D01*
X162696763Y-88266089D01*
X162798233Y-88324673D01*
X162798235Y-88324673D01*
X162798236Y-88324674D01*
X162911415Y-88355000D01*
X162911418Y-88355000D01*
X163028582Y-88355000D01*
X163028585Y-88355000D01*
X163141764Y-88324674D01*
X163243236Y-88266089D01*
X163326089Y-88183236D01*
X163384674Y-88081764D01*
X163415000Y-87968585D01*
X163415000Y-87851415D01*
X163388205Y-87751415D01*
X163775000Y-87751415D01*
X163775000Y-87868585D01*
X163785943Y-87909425D01*
X163805326Y-87981766D01*
X163863910Y-88083236D01*
X163946763Y-88166089D01*
X164048233Y-88224673D01*
X164048235Y-88224673D01*
X164048236Y-88224674D01*
X164161415Y-88255000D01*
X164161418Y-88255000D01*
X164278582Y-88255000D01*
X164278585Y-88255000D01*
X164391764Y-88224674D01*
X164493236Y-88166089D01*
X164576089Y-88083236D01*
X164634674Y-87981764D01*
X164665000Y-87868585D01*
X164665000Y-87751415D01*
X164634674Y-87638236D01*
X164634673Y-87638235D01*
X164634673Y-87638233D01*
X164576089Y-87536763D01*
X164493236Y-87453910D01*
X164391766Y-87395326D01*
X164346492Y-87383195D01*
X164278585Y-87365000D01*
X164161415Y-87365000D01*
X164104825Y-87380163D01*
X164048233Y-87395326D01*
X163946763Y-87453910D01*
X163863910Y-87536763D01*
X163805326Y-87638233D01*
X163787130Y-87706143D01*
X163775000Y-87751415D01*
X163388205Y-87751415D01*
X163384674Y-87738236D01*
X163380938Y-87731765D01*
X163326089Y-87636763D01*
X163243236Y-87553910D01*
X163141766Y-87495326D01*
X163096492Y-87483195D01*
X163028585Y-87465000D01*
X162911415Y-87465000D01*
X162854825Y-87480163D01*
X162798233Y-87495326D01*
X162696763Y-87553910D01*
X162613910Y-87636763D01*
X162555326Y-87738233D01*
X162547900Y-87765949D01*
X162525000Y-87851415D01*
X156087910Y-87851415D01*
X156106089Y-87833236D01*
X156164674Y-87731764D01*
X156195000Y-87618585D01*
X156195000Y-87501415D01*
X156164674Y-87388236D01*
X156164673Y-87388235D01*
X156164673Y-87388233D01*
X156106089Y-87286763D01*
X156023236Y-87203910D01*
X155921766Y-87145326D01*
X155876492Y-87133195D01*
X155808585Y-87115000D01*
X155691415Y-87115000D01*
X155634825Y-87130163D01*
X155578233Y-87145326D01*
X155476763Y-87203910D01*
X155393910Y-87286763D01*
X155335326Y-87388233D01*
X155333426Y-87395326D01*
X155305000Y-87501415D01*
X155305000Y-87618585D01*
X155323195Y-87686492D01*
X155335326Y-87731766D01*
X155393909Y-87833234D01*
X155393910Y-87833235D01*
X155393911Y-87833236D01*
X155448074Y-87887399D01*
X155469814Y-87934018D01*
X155470100Y-87940573D01*
X155470100Y-88132913D01*
X155452507Y-88181251D01*
X155448073Y-88186087D01*
X154288138Y-89346024D01*
X154269662Y-89364500D01*
X154236024Y-89398137D01*
X154236023Y-89398139D01*
X154199175Y-89461961D01*
X154192710Y-89486089D01*
X154180100Y-89533150D01*
X154180100Y-92353150D01*
X154180100Y-92426850D01*
X154192816Y-92474308D01*
X154199175Y-92498038D01*
X154236023Y-92561860D01*
X154236027Y-92561866D01*
X154968074Y-93293912D01*
X154989814Y-93340532D01*
X154990100Y-93347086D01*
X154990100Y-95423110D01*
X154972507Y-95471448D01*
X154968074Y-95476284D01*
X154225214Y-96219144D01*
X154225213Y-96219144D01*
X154180001Y-96297452D01*
X154180002Y-96297453D01*
X154156600Y-96384791D01*
X154156600Y-96384793D01*
X154156600Y-96541900D01*
X154139007Y-96590238D01*
X154094458Y-96615958D01*
X154081400Y-96617100D01*
X153784944Y-96617100D01*
X153784942Y-96617101D01*
X153740340Y-96625972D01*
X153689767Y-96659764D01*
X153655972Y-96710342D01*
X153655971Y-96710343D01*
X153647100Y-96754942D01*
X153647100Y-98185055D01*
X153647101Y-98185057D01*
X153655972Y-98229658D01*
X153656280Y-98230119D01*
X153656449Y-98230811D01*
X153658807Y-98236504D01*
X153657931Y-98236866D01*
X153668508Y-98280084D01*
X153645759Y-98326220D01*
X153598676Y-98346939D01*
X153593755Y-98347100D01*
X151978100Y-98347100D01*
X151929762Y-98329507D01*
X151904042Y-98284958D01*
X151902900Y-98271900D01*
X151902900Y-96791415D01*
X152215000Y-96791415D01*
X152215000Y-96908585D01*
X152233195Y-96976492D01*
X152245326Y-97021766D01*
X152303910Y-97123236D01*
X152386763Y-97206089D01*
X152488233Y-97264673D01*
X152488235Y-97264673D01*
X152488236Y-97264674D01*
X152601415Y-97295000D01*
X152601418Y-97295000D01*
X152718582Y-97295000D01*
X152718585Y-97295000D01*
X152831764Y-97264674D01*
X152906783Y-97221362D01*
X152933236Y-97206089D01*
X153016089Y-97123236D01*
X153074673Y-97021766D01*
X153074674Y-97021764D01*
X153105000Y-96908585D01*
X153105000Y-96791415D01*
X153074674Y-96678236D01*
X153074673Y-96678235D01*
X153074673Y-96678233D01*
X153016089Y-96576763D01*
X152933236Y-96493910D01*
X152831766Y-96435326D01*
X152786492Y-96423195D01*
X152718585Y-96405000D01*
X152601415Y-96405000D01*
X152544825Y-96420163D01*
X152488233Y-96435326D01*
X152386763Y-96493910D01*
X152303910Y-96576763D01*
X152245326Y-96678233D01*
X152227130Y-96746143D01*
X152215000Y-96791415D01*
X151902900Y-96791415D01*
X151902900Y-93711415D01*
X153425000Y-93711415D01*
X153425000Y-93828585D01*
X153443195Y-93896492D01*
X153455326Y-93941766D01*
X153513910Y-94043236D01*
X153596763Y-94126089D01*
X153698233Y-94184673D01*
X153698235Y-94184673D01*
X153698236Y-94184674D01*
X153811415Y-94215000D01*
X153811418Y-94215000D01*
X153928582Y-94215000D01*
X153928585Y-94215000D01*
X154041764Y-94184674D01*
X154095853Y-94153446D01*
X154143236Y-94126089D01*
X154226089Y-94043236D01*
X154284673Y-93941766D01*
X154294052Y-93906763D01*
X154315000Y-93828585D01*
X154315000Y-93711415D01*
X154284674Y-93598236D01*
X154284673Y-93598235D01*
X154284673Y-93598233D01*
X154226089Y-93496763D01*
X154143236Y-93413910D01*
X154041766Y-93355326D01*
X153996492Y-93343195D01*
X153928585Y-93325000D01*
X153811415Y-93325000D01*
X153754825Y-93340163D01*
X153698233Y-93355326D01*
X153596763Y-93413910D01*
X153513910Y-93496763D01*
X153455326Y-93598233D01*
X153437130Y-93666143D01*
X153425000Y-93711415D01*
X151902900Y-93711415D01*
X151902900Y-92481415D01*
X152265000Y-92481415D01*
X152265000Y-92598585D01*
X152283195Y-92666492D01*
X152295326Y-92711766D01*
X152353910Y-92813236D01*
X152436763Y-92896089D01*
X152538233Y-92954673D01*
X152538235Y-92954673D01*
X152538236Y-92954674D01*
X152651415Y-92985000D01*
X152651418Y-92985000D01*
X152768582Y-92985000D01*
X152768585Y-92985000D01*
X152881764Y-92954674D01*
X152983236Y-92896089D01*
X153066089Y-92813236D01*
X153124674Y-92711764D01*
X153155000Y-92598585D01*
X153155000Y-92481415D01*
X153124674Y-92368236D01*
X153124673Y-92368235D01*
X153124673Y-92368233D01*
X153066089Y-92266763D01*
X152983236Y-92183910D01*
X152881766Y-92125326D01*
X152836492Y-92113195D01*
X152768585Y-92095000D01*
X152651415Y-92095000D01*
X152594825Y-92110163D01*
X152538233Y-92125326D01*
X152436763Y-92183910D01*
X152353910Y-92266763D01*
X152295326Y-92368233D01*
X152277130Y-92436143D01*
X152265000Y-92481415D01*
X151902900Y-92481415D01*
X151902900Y-84391415D01*
X154555000Y-84391415D01*
X154555000Y-84508585D01*
X154573195Y-84576492D01*
X154585326Y-84621766D01*
X154643910Y-84723236D01*
X154726763Y-84806089D01*
X154828233Y-84864673D01*
X154828235Y-84864673D01*
X154828236Y-84864674D01*
X154941415Y-84895000D01*
X154941418Y-84895000D01*
X155058582Y-84895000D01*
X155058585Y-84895000D01*
X155171764Y-84864674D01*
X155249142Y-84820000D01*
X155273236Y-84806089D01*
X155356089Y-84723236D01*
X155417139Y-84617495D01*
X155418332Y-84618184D01*
X155449109Y-84584590D01*
X155500108Y-84577870D01*
X155543495Y-84605503D01*
X155548965Y-84613690D01*
X155568908Y-84648234D01*
X155651763Y-84731089D01*
X155753233Y-84789673D01*
X155753235Y-84789673D01*
X155753236Y-84789674D01*
X155866415Y-84820000D01*
X155866418Y-84820000D01*
X155983582Y-84820000D01*
X155983585Y-84820000D01*
X156096764Y-84789674D01*
X156198236Y-84731089D01*
X156281089Y-84648236D01*
X156281090Y-84648234D01*
X156339673Y-84546766D01*
X156339674Y-84546764D01*
X156370000Y-84433585D01*
X156370000Y-84316415D01*
X156339674Y-84203236D01*
X156339673Y-84203235D01*
X156339673Y-84203233D01*
X156281089Y-84101763D01*
X156198236Y-84018910D01*
X156096766Y-83960326D01*
X156051492Y-83948195D01*
X155983585Y-83930000D01*
X155866415Y-83930000D01*
X155809825Y-83945163D01*
X155753233Y-83960326D01*
X155651763Y-84018910D01*
X155568910Y-84101763D01*
X155507861Y-84207505D01*
X155506671Y-84206818D01*
X155475869Y-84240420D01*
X155424868Y-84247124D01*
X155381489Y-84219477D01*
X155376037Y-84211315D01*
X155356089Y-84176764D01*
X155356088Y-84176762D01*
X155273236Y-84093910D01*
X155171766Y-84035326D01*
X155126492Y-84023195D01*
X155058585Y-84005000D01*
X154941415Y-84005000D01*
X154889502Y-84018910D01*
X154828233Y-84035326D01*
X154726763Y-84093910D01*
X154643910Y-84176763D01*
X154585326Y-84278233D01*
X154570116Y-84335000D01*
X154555000Y-84391415D01*
X151902900Y-84391415D01*
X151902900Y-83401415D01*
X153915000Y-83401415D01*
X153915000Y-83518585D01*
X153927910Y-83566766D01*
X153945326Y-83631766D01*
X154003910Y-83733236D01*
X154086763Y-83816089D01*
X154188233Y-83874673D01*
X154188235Y-83874673D01*
X154188236Y-83874674D01*
X154301415Y-83905000D01*
X154301418Y-83905000D01*
X154418582Y-83905000D01*
X154418585Y-83905000D01*
X154531764Y-83874674D01*
X154633236Y-83816089D01*
X154716089Y-83733236D01*
X154756139Y-83663867D01*
X154795542Y-83630803D01*
X154846982Y-83630803D01*
X154886387Y-83663866D01*
X154888910Y-83668236D01*
X154971763Y-83751089D01*
X155073233Y-83809673D01*
X155073235Y-83809673D01*
X155073236Y-83809674D01*
X155186415Y-83840000D01*
X155186418Y-83840000D01*
X155303582Y-83840000D01*
X155303585Y-83840000D01*
X155416764Y-83809674D01*
X155518236Y-83751089D01*
X155601089Y-83668236D01*
X155622701Y-83630803D01*
X155659673Y-83566766D01*
X155659674Y-83566764D01*
X155690000Y-83453585D01*
X155690000Y-83336415D01*
X155659674Y-83223236D01*
X155659673Y-83223235D01*
X155659673Y-83223233D01*
X155601089Y-83121763D01*
X155518236Y-83038910D01*
X155416766Y-82980326D01*
X155371492Y-82968195D01*
X155303585Y-82950000D01*
X155186415Y-82950000D01*
X155129825Y-82965163D01*
X155073233Y-82980326D01*
X154971763Y-83038910D01*
X154888910Y-83121763D01*
X154848861Y-83191131D01*
X154809456Y-83224196D01*
X154758016Y-83224196D01*
X154718611Y-83191131D01*
X154716089Y-83186763D01*
X154633236Y-83103910D01*
X154577955Y-83071994D01*
X154544890Y-83032589D01*
X154544890Y-82981149D01*
X154577955Y-82941744D01*
X154596086Y-82934233D01*
X154631764Y-82924674D01*
X154733236Y-82866089D01*
X154816089Y-82783236D01*
X154851780Y-82721417D01*
X154874673Y-82681766D01*
X154877446Y-82671417D01*
X154905000Y-82568585D01*
X154905000Y-82451415D01*
X154874674Y-82338236D01*
X154874673Y-82338235D01*
X154874673Y-82338233D01*
X154816089Y-82236763D01*
X154733236Y-82153910D01*
X154631766Y-82095326D01*
X154586492Y-82083195D01*
X154518585Y-82065000D01*
X154401415Y-82065000D01*
X154347419Y-82079468D01*
X154288233Y-82095326D01*
X154186763Y-82153910D01*
X154103910Y-82236763D01*
X154045326Y-82338233D01*
X154030957Y-82391862D01*
X154015000Y-82451415D01*
X154015000Y-82568585D01*
X154033195Y-82636492D01*
X154045326Y-82681766D01*
X154103910Y-82783236D01*
X154186765Y-82866091D01*
X154242043Y-82898005D01*
X154275109Y-82937410D01*
X154275109Y-82988849D01*
X154242045Y-83028255D01*
X154223908Y-83035767D01*
X154188236Y-83045325D01*
X154086763Y-83103910D01*
X154003910Y-83186763D01*
X153945326Y-83288233D01*
X153932416Y-83336417D01*
X153915000Y-83401415D01*
X151902900Y-83401415D01*
X151902900Y-80741415D01*
X153725000Y-80741415D01*
X153725000Y-80858585D01*
X153743195Y-80926492D01*
X153755326Y-80971766D01*
X153813910Y-81073236D01*
X153896763Y-81156089D01*
X153998233Y-81214673D01*
X153998235Y-81214673D01*
X153998236Y-81214674D01*
X154111415Y-81245000D01*
X154111418Y-81245000D01*
X154228582Y-81245000D01*
X154228585Y-81245000D01*
X154341764Y-81214674D01*
X154352311Y-81208585D01*
X154443236Y-81156089D01*
X154526089Y-81073236D01*
X154584673Y-80971766D01*
X154584674Y-80971764D01*
X154615000Y-80858585D01*
X154615000Y-80741415D01*
X154584674Y-80628236D01*
X154584673Y-80628235D01*
X154584673Y-80628233D01*
X154526089Y-80526763D01*
X154443236Y-80443910D01*
X154341766Y-80385326D01*
X154296492Y-80373195D01*
X154228585Y-80355000D01*
X154111415Y-80355000D01*
X154062387Y-80368137D01*
X153998233Y-80385326D01*
X153896763Y-80443910D01*
X153813910Y-80526763D01*
X153755326Y-80628233D01*
X153747903Y-80655938D01*
X153725000Y-80741415D01*
X151902900Y-80741415D01*
X151902900Y-77621415D01*
X153955000Y-77621415D01*
X153955000Y-77738585D01*
X153965717Y-77778582D01*
X153985326Y-77851766D01*
X154043910Y-77953236D01*
X154126759Y-78036085D01*
X154126762Y-78036087D01*
X154126764Y-78036089D01*
X154133298Y-78039861D01*
X154166364Y-78079264D01*
X154170900Y-78104987D01*
X154170900Y-78375570D01*
X154205778Y-78459776D01*
X155557490Y-79811487D01*
X155579230Y-79858107D01*
X155576953Y-79884122D01*
X155575000Y-79891415D01*
X155575000Y-80008585D01*
X155581698Y-80033582D01*
X155605326Y-80121766D01*
X155663909Y-80223234D01*
X155663910Y-80223235D01*
X155663911Y-80223236D01*
X155718074Y-80277399D01*
X155739814Y-80324018D01*
X155740100Y-80330573D01*
X155740100Y-82183150D01*
X155740100Y-82256850D01*
X155747643Y-82285000D01*
X155759175Y-82328038D01*
X155796023Y-82391860D01*
X155796027Y-82391866D01*
X159901024Y-86496862D01*
X159953138Y-86548976D01*
X160016963Y-86585825D01*
X160088150Y-86604900D01*
X165119427Y-86604900D01*
X165133373Y-86609976D01*
X165148203Y-86610623D01*
X165163817Y-86621056D01*
X165167765Y-86622493D01*
X165170230Y-86624655D01*
X165171424Y-86625749D01*
X165226764Y-86681089D01*
X165240433Y-86688981D01*
X165246503Y-86694542D01*
X165254805Y-86710490D01*
X165266364Y-86724264D01*
X165268611Y-86737010D01*
X165270256Y-86740169D01*
X165269650Y-86742900D01*
X165270900Y-86749987D01*
X165270900Y-88475570D01*
X165305778Y-88559776D01*
X166448874Y-89702871D01*
X166470614Y-89749491D01*
X166470900Y-89756045D01*
X166470900Y-89935011D01*
X166453307Y-89983349D01*
X166433303Y-90000134D01*
X166426765Y-90003908D01*
X166343910Y-90086763D01*
X166285326Y-90188233D01*
X166276049Y-90222858D01*
X166255000Y-90301415D01*
X166255000Y-90418585D01*
X166267174Y-90464018D01*
X166285326Y-90531766D01*
X166343910Y-90633236D01*
X166426762Y-90716088D01*
X166433321Y-90719875D01*
X166466385Y-90759281D01*
X166466385Y-90810721D01*
X166433321Y-90850125D01*
X166426762Y-90853911D01*
X166343910Y-90936763D01*
X166285326Y-91038233D01*
X166272504Y-91086089D01*
X166255000Y-91151415D01*
X166255000Y-91268585D01*
X166268303Y-91318233D01*
X166285326Y-91381766D01*
X166343910Y-91483236D01*
X166426763Y-91566089D01*
X166528233Y-91624673D01*
X166528235Y-91624673D01*
X166528236Y-91624674D01*
X166641415Y-91655000D01*
X166641418Y-91655000D01*
X166758582Y-91655000D01*
X166758585Y-91655000D01*
X166871764Y-91624674D01*
X166928101Y-91592147D01*
X166978758Y-91583215D01*
X167023306Y-91608935D01*
X167040900Y-91657272D01*
X167040900Y-93235011D01*
X167023307Y-93283349D01*
X167003303Y-93300134D01*
X166996765Y-93303908D01*
X166913910Y-93386763D01*
X166855326Y-93488233D01*
X166837130Y-93556143D01*
X166825000Y-93601415D01*
X166825000Y-93718585D01*
X166837524Y-93765326D01*
X166855326Y-93831766D01*
X166913910Y-93933236D01*
X166996763Y-94016089D01*
X167098234Y-94074673D01*
X167098236Y-94074674D01*
X167145590Y-94087362D01*
X167187727Y-94116867D01*
X167201041Y-94166554D01*
X167179302Y-94213174D01*
X167145591Y-94232637D01*
X167126145Y-94237847D01*
X167098234Y-94245326D01*
X166996763Y-94303910D01*
X166913910Y-94386763D01*
X166911788Y-94390439D01*
X166872379Y-94423500D01*
X166820939Y-94423495D01*
X166781541Y-94390433D01*
X166779422Y-94386763D01*
X166696569Y-94303910D01*
X166595099Y-94245326D01*
X166547744Y-94232638D01*
X166481918Y-94215000D01*
X166364748Y-94215000D01*
X166308158Y-94230163D01*
X166251566Y-94245326D01*
X166150096Y-94303910D01*
X166067243Y-94386763D01*
X166008659Y-94488233D01*
X165990463Y-94556143D01*
X165978333Y-94601415D01*
X165978333Y-94718585D01*
X165987617Y-94753233D01*
X166008659Y-94831766D01*
X166067243Y-94933236D01*
X166150096Y-95016089D01*
X166251566Y-95074673D01*
X166251568Y-95074673D01*
X166251569Y-95074674D01*
X166364748Y-95105000D01*
X166364751Y-95105000D01*
X166481915Y-95105000D01*
X166481918Y-95105000D01*
X166595097Y-95074674D01*
X166696569Y-95016089D01*
X166779422Y-94933236D01*
X166781539Y-94929570D01*
X166820942Y-94896503D01*
X166872382Y-94896500D01*
X166911789Y-94929562D01*
X166911790Y-94929563D01*
X166913911Y-94933237D01*
X166996763Y-95016089D01*
X167098233Y-95074673D01*
X167098235Y-95074673D01*
X167098236Y-95074674D01*
X167211415Y-95105000D01*
X167211418Y-95105000D01*
X167328582Y-95105000D01*
X167328585Y-95105000D01*
X167441764Y-95074674D01*
X167543236Y-95016089D01*
X167626089Y-94933236D01*
X167684674Y-94831764D01*
X167715000Y-94718585D01*
X167715000Y-94601415D01*
X167684674Y-94488236D01*
X167684673Y-94488235D01*
X167684673Y-94488233D01*
X167626089Y-94386763D01*
X167543236Y-94303910D01*
X167441766Y-94245326D01*
X167416595Y-94238582D01*
X167394407Y-94232636D01*
X167352272Y-94203133D01*
X167338958Y-94153446D01*
X167360697Y-94106826D01*
X167394406Y-94087363D01*
X167441764Y-94074674D01*
X167543236Y-94016089D01*
X167626089Y-93933236D01*
X167684674Y-93831764D01*
X167715000Y-93718585D01*
X167715000Y-93601415D01*
X167684674Y-93488236D01*
X167684673Y-93488235D01*
X167684673Y-93488233D01*
X167626089Y-93386763D01*
X167543234Y-93303908D01*
X167536697Y-93300134D01*
X167503634Y-93260727D01*
X167499100Y-93235011D01*
X167499100Y-90884430D01*
X167494805Y-90874062D01*
X167466199Y-90805000D01*
X167466197Y-90804993D01*
X167464223Y-90800227D01*
X167464221Y-90800224D01*
X167162509Y-90498512D01*
X167140769Y-90451892D01*
X167143046Y-90425875D01*
X167145000Y-90418585D01*
X167145000Y-90301415D01*
X167114674Y-90188236D01*
X167114673Y-90188235D01*
X167114673Y-90188233D01*
X167056089Y-90086763D01*
X166973234Y-90003908D01*
X166966697Y-90000134D01*
X166933634Y-89960727D01*
X166929100Y-89935011D01*
X166929100Y-89584430D01*
X166929100Y-89584429D01*
X166917045Y-89555326D01*
X166912632Y-89544673D01*
X166894221Y-89500223D01*
X165751126Y-88357128D01*
X165729386Y-88310508D01*
X165729100Y-88303954D01*
X165729100Y-87751415D01*
X166255000Y-87751415D01*
X166255000Y-87868585D01*
X166265943Y-87909425D01*
X166285326Y-87981766D01*
X166343910Y-88083236D01*
X166426763Y-88166089D01*
X166528233Y-88224673D01*
X166528235Y-88224673D01*
X166528236Y-88224674D01*
X166641415Y-88255000D01*
X166641418Y-88255000D01*
X166758582Y-88255000D01*
X166758585Y-88255000D01*
X166871764Y-88224674D01*
X166973236Y-88166089D01*
X167056089Y-88083236D01*
X167114674Y-87981764D01*
X167145000Y-87868585D01*
X167145000Y-87751415D01*
X167114674Y-87638236D01*
X167114673Y-87638235D01*
X167114673Y-87638233D01*
X167056089Y-87536763D01*
X166973236Y-87453910D01*
X166871766Y-87395326D01*
X166826492Y-87383195D01*
X166758585Y-87365000D01*
X166641415Y-87365000D01*
X166584825Y-87380163D01*
X166528233Y-87395326D01*
X166426763Y-87453910D01*
X166343910Y-87536763D01*
X166285326Y-87638233D01*
X166267130Y-87706143D01*
X166255000Y-87751415D01*
X165729100Y-87751415D01*
X165729100Y-86749987D01*
X165746693Y-86701649D01*
X165766700Y-86684862D01*
X165773236Y-86681089D01*
X165856089Y-86598236D01*
X165884530Y-86548975D01*
X165914673Y-86496766D01*
X165914674Y-86496764D01*
X165945000Y-86383585D01*
X165945000Y-86266415D01*
X165914674Y-86153236D01*
X165914673Y-86153235D01*
X165914673Y-86153233D01*
X165856089Y-86051763D01*
X165801926Y-85997600D01*
X165780186Y-85950980D01*
X165779900Y-85944426D01*
X165779900Y-85388149D01*
X165763388Y-85326527D01*
X165763388Y-85326526D01*
X165760825Y-85316963D01*
X165760825Y-85316962D01*
X165742400Y-85285050D01*
X165723976Y-85253137D01*
X164302254Y-83831415D01*
X166205000Y-83831415D01*
X166205000Y-83948585D01*
X166220116Y-84005000D01*
X166235326Y-84061766D01*
X166293910Y-84163236D01*
X166376763Y-84246089D01*
X166478233Y-84304673D01*
X166478235Y-84304673D01*
X166478236Y-84304674D01*
X166591415Y-84335000D01*
X166591418Y-84335000D01*
X166708582Y-84335000D01*
X166708585Y-84335000D01*
X166821764Y-84304674D01*
X166923236Y-84246089D01*
X167006089Y-84163236D01*
X167046114Y-84093911D01*
X167064673Y-84061766D01*
X167064674Y-84061764D01*
X167095000Y-83948585D01*
X167095000Y-83831415D01*
X167064674Y-83718236D01*
X167064673Y-83718235D01*
X167064673Y-83718233D01*
X167006089Y-83616763D01*
X166923236Y-83533910D01*
X166821766Y-83475326D01*
X166776492Y-83463195D01*
X166708585Y-83445000D01*
X166591415Y-83445000D01*
X166534825Y-83460163D01*
X166478233Y-83475326D01*
X166376763Y-83533910D01*
X166293910Y-83616763D01*
X166235326Y-83718233D01*
X166226523Y-83751089D01*
X166205000Y-83831415D01*
X164302254Y-83831415D01*
X163651926Y-83181087D01*
X163630186Y-83134467D01*
X163629900Y-83127913D01*
X163629900Y-82671415D01*
X165205000Y-82671415D01*
X165205000Y-82788585D01*
X165223195Y-82856492D01*
X165235326Y-82901766D01*
X165293910Y-83003236D01*
X165376763Y-83086089D01*
X165478233Y-83144673D01*
X165478235Y-83144673D01*
X165478236Y-83144674D01*
X165591415Y-83175000D01*
X165591418Y-83175000D01*
X165708582Y-83175000D01*
X165708585Y-83175000D01*
X165821764Y-83144674D01*
X165892368Y-83103911D01*
X165923236Y-83086089D01*
X166006089Y-83003236D01*
X166064673Y-82901766D01*
X166074232Y-82866091D01*
X166095000Y-82788585D01*
X166095000Y-82721415D01*
X167135000Y-82721415D01*
X167135000Y-82838585D01*
X167151929Y-82901764D01*
X167165326Y-82951766D01*
X167223910Y-83053236D01*
X167306763Y-83136089D01*
X167408233Y-83194673D01*
X167408235Y-83194673D01*
X167408236Y-83194674D01*
X167521415Y-83225000D01*
X167521418Y-83225000D01*
X167638582Y-83225000D01*
X167638585Y-83225000D01*
X167751764Y-83194674D01*
X167765465Y-83186764D01*
X167853236Y-83136089D01*
X167936089Y-83053236D01*
X167994673Y-82951766D01*
X167994674Y-82951764D01*
X168025000Y-82838585D01*
X168025000Y-82721415D01*
X167994674Y-82608236D01*
X167994673Y-82608235D01*
X167994673Y-82608233D01*
X167936089Y-82506763D01*
X167853236Y-82423910D01*
X167751766Y-82365326D01*
X167706492Y-82353195D01*
X167638585Y-82335000D01*
X167521415Y-82335000D01*
X167464825Y-82350163D01*
X167408233Y-82365326D01*
X167306763Y-82423910D01*
X167223910Y-82506763D01*
X167165326Y-82608233D01*
X167148397Y-82671415D01*
X167135000Y-82721415D01*
X166095000Y-82721415D01*
X166095000Y-82671415D01*
X166064674Y-82558236D01*
X166064673Y-82558235D01*
X166064673Y-82558233D01*
X166006089Y-82456763D01*
X165923236Y-82373910D01*
X165821766Y-82315326D01*
X165776492Y-82303195D01*
X165708585Y-82285000D01*
X165591415Y-82285000D01*
X165534825Y-82300163D01*
X165478233Y-82315326D01*
X165376763Y-82373910D01*
X165293910Y-82456763D01*
X165235326Y-82558233D01*
X165217130Y-82626143D01*
X165205000Y-82671415D01*
X163629900Y-82671415D01*
X163629900Y-81091415D01*
X164730000Y-81091415D01*
X164730000Y-81208585D01*
X164748195Y-81276492D01*
X164760326Y-81321766D01*
X164818910Y-81423236D01*
X164901763Y-81506089D01*
X165003233Y-81564673D01*
X165003235Y-81564673D01*
X165003236Y-81564674D01*
X165116415Y-81595000D01*
X165116418Y-81595000D01*
X165233582Y-81595000D01*
X165233585Y-81595000D01*
X165346764Y-81564674D01*
X165448236Y-81506089D01*
X165531089Y-81423236D01*
X165589674Y-81321764D01*
X165620000Y-81208585D01*
X165620000Y-81091415D01*
X165589674Y-80978236D01*
X165589673Y-80978235D01*
X165589673Y-80978233D01*
X165531089Y-80876763D01*
X165448236Y-80793910D01*
X165346766Y-80735326D01*
X165301492Y-80723195D01*
X165233585Y-80705000D01*
X165116415Y-80705000D01*
X165059825Y-80720163D01*
X165003233Y-80735326D01*
X164901763Y-80793910D01*
X164818910Y-80876763D01*
X164760326Y-80978233D01*
X164742130Y-81046143D01*
X164730000Y-81091415D01*
X163629900Y-81091415D01*
X163629900Y-80503149D01*
X163613388Y-80441527D01*
X163613388Y-80441526D01*
X163610825Y-80431963D01*
X163610825Y-80431962D01*
X163573976Y-80368137D01*
X163573974Y-80368135D01*
X163573972Y-80368132D01*
X163122255Y-79916415D01*
X165555000Y-79916415D01*
X165555000Y-80033585D01*
X165573195Y-80101492D01*
X165585326Y-80146766D01*
X165643910Y-80248236D01*
X165726763Y-80331089D01*
X165828233Y-80389673D01*
X165828235Y-80389673D01*
X165828236Y-80389674D01*
X165941415Y-80420000D01*
X165941418Y-80420000D01*
X166058582Y-80420000D01*
X166058585Y-80420000D01*
X166171764Y-80389674D01*
X166209066Y-80368138D01*
X166273236Y-80331089D01*
X166356089Y-80248236D01*
X166414673Y-80146766D01*
X166421372Y-80121766D01*
X166445000Y-80033585D01*
X166445000Y-79916415D01*
X166414674Y-79803236D01*
X166414673Y-79803235D01*
X166414673Y-79803233D01*
X166356089Y-79701763D01*
X166273236Y-79618910D01*
X166171766Y-79560326D01*
X166126492Y-79548195D01*
X166058585Y-79530000D01*
X165941415Y-79530000D01*
X165884825Y-79545163D01*
X165828233Y-79560326D01*
X165726763Y-79618910D01*
X165643910Y-79701763D01*
X165585326Y-79803233D01*
X165574889Y-79842187D01*
X165555000Y-79916415D01*
X163122255Y-79916415D01*
X161926926Y-78721086D01*
X161905186Y-78674466D01*
X161904900Y-78667912D01*
X161904900Y-77661415D01*
X162555000Y-77661415D01*
X162555000Y-77778585D01*
X162571551Y-77840356D01*
X162585326Y-77891766D01*
X162643910Y-77993236D01*
X162726763Y-78076089D01*
X162828233Y-78134673D01*
X162828235Y-78134673D01*
X162828236Y-78134674D01*
X162941415Y-78165000D01*
X162941418Y-78165000D01*
X163058582Y-78165000D01*
X163058585Y-78165000D01*
X163171764Y-78134674D01*
X163273236Y-78076089D01*
X163356089Y-77993236D01*
X163373788Y-77962579D01*
X163413193Y-77929514D01*
X163464633Y-77929514D01*
X163504039Y-77962578D01*
X163512972Y-78013236D01*
X163511552Y-78019641D01*
X163507145Y-78036089D01*
X163495000Y-78081415D01*
X163495000Y-78198585D01*
X163510687Y-78257129D01*
X163525326Y-78311766D01*
X163583910Y-78413236D01*
X163666763Y-78496089D01*
X163768233Y-78554673D01*
X163768235Y-78554673D01*
X163768236Y-78554674D01*
X163881415Y-78585000D01*
X163881418Y-78585000D01*
X163998582Y-78585000D01*
X163998585Y-78585000D01*
X164111764Y-78554674D01*
X164152050Y-78531415D01*
X165345000Y-78531415D01*
X165345000Y-78648585D01*
X165350179Y-78667912D01*
X165375326Y-78761766D01*
X165433910Y-78863236D01*
X165516763Y-78946089D01*
X165618233Y-79004673D01*
X165618235Y-79004673D01*
X165618236Y-79004674D01*
X165731415Y-79035000D01*
X165731418Y-79035000D01*
X165848582Y-79035000D01*
X165848585Y-79035000D01*
X165961764Y-79004674D01*
X166063236Y-78946089D01*
X166146089Y-78863236D01*
X166204674Y-78761764D01*
X166235000Y-78648585D01*
X166235000Y-78531415D01*
X166204674Y-78418236D01*
X166204673Y-78418235D01*
X166204673Y-78418233D01*
X166146089Y-78316763D01*
X166063236Y-78233910D01*
X165961766Y-78175326D01*
X165916492Y-78163195D01*
X165848585Y-78145000D01*
X165731415Y-78145000D01*
X165674825Y-78160163D01*
X165618233Y-78175326D01*
X165516763Y-78233910D01*
X165433910Y-78316763D01*
X165375326Y-78418233D01*
X165357130Y-78486143D01*
X165345000Y-78531415D01*
X164152050Y-78531415D01*
X164213236Y-78496089D01*
X164236014Y-78473312D01*
X164296089Y-78413236D01*
X164354673Y-78311766D01*
X164369313Y-78257129D01*
X164385000Y-78198585D01*
X164385000Y-78081415D01*
X164354674Y-77968236D01*
X164354673Y-77968235D01*
X164354673Y-77968233D01*
X164296089Y-77866763D01*
X164213236Y-77783910D01*
X164111766Y-77725326D01*
X164066492Y-77713195D01*
X163998585Y-77695000D01*
X163881415Y-77695000D01*
X163824825Y-77710163D01*
X163768233Y-77725326D01*
X163666763Y-77783910D01*
X163583908Y-77866765D01*
X163566209Y-77897421D01*
X163526803Y-77930485D01*
X163475364Y-77930484D01*
X163435959Y-77897419D01*
X163427028Y-77846760D01*
X163428444Y-77840369D01*
X163445000Y-77778585D01*
X163445000Y-77661415D01*
X163414674Y-77548236D01*
X163414673Y-77548235D01*
X163414673Y-77548233D01*
X163356089Y-77446763D01*
X163273236Y-77363910D01*
X163171766Y-77305326D01*
X163126492Y-77293195D01*
X163058585Y-77275000D01*
X162941415Y-77275000D01*
X162884825Y-77290163D01*
X162828233Y-77305326D01*
X162726763Y-77363910D01*
X162643910Y-77446763D01*
X162585326Y-77548233D01*
X162567130Y-77616143D01*
X162555000Y-77661415D01*
X161904900Y-77661415D01*
X161904900Y-77455573D01*
X161922493Y-77407235D01*
X161926915Y-77402409D01*
X161981089Y-77348236D01*
X162039674Y-77246764D01*
X162070000Y-77133585D01*
X162070000Y-77016415D01*
X162039674Y-76903236D01*
X162039673Y-76903235D01*
X162039673Y-76903233D01*
X161981089Y-76801763D01*
X161898234Y-76718908D01*
X161891697Y-76715134D01*
X161877614Y-76698349D01*
X161858635Y-76675731D01*
X161854100Y-76650011D01*
X161854100Y-76571415D01*
X163085000Y-76571415D01*
X163085000Y-76688585D01*
X163092114Y-76715134D01*
X163115326Y-76801766D01*
X163173910Y-76903236D01*
X163256763Y-76986089D01*
X163358233Y-77044673D01*
X163358235Y-77044673D01*
X163358236Y-77044674D01*
X163471415Y-77075000D01*
X163471418Y-77075000D01*
X163588582Y-77075000D01*
X163588585Y-77075000D01*
X163701764Y-77044674D01*
X163750707Y-77016417D01*
X163803236Y-76986089D01*
X163886089Y-76903236D01*
X163944673Y-76801766D01*
X163966874Y-76718911D01*
X163975000Y-76688585D01*
X163975000Y-76571415D01*
X163944674Y-76458236D01*
X163944673Y-76458235D01*
X163944673Y-76458233D01*
X163886089Y-76356763D01*
X163803236Y-76273910D01*
X163701766Y-76215326D01*
X163656492Y-76203195D01*
X163588585Y-76185000D01*
X163471415Y-76185000D01*
X163414825Y-76200163D01*
X163358233Y-76215326D01*
X163256763Y-76273910D01*
X163173910Y-76356763D01*
X163115326Y-76458233D01*
X163097130Y-76526143D01*
X163085000Y-76571415D01*
X161854100Y-76571415D01*
X161854100Y-75821415D01*
X162155000Y-75821415D01*
X162155000Y-75938585D01*
X162158926Y-75953236D01*
X162185326Y-76051766D01*
X162243910Y-76153236D01*
X162326763Y-76236089D01*
X162428233Y-76294673D01*
X162428235Y-76294673D01*
X162428236Y-76294674D01*
X162541415Y-76325000D01*
X162541418Y-76325000D01*
X162658582Y-76325000D01*
X162658585Y-76325000D01*
X162771764Y-76294674D01*
X162873236Y-76236089D01*
X162956089Y-76153236D01*
X162989900Y-76094674D01*
X163014673Y-76051766D01*
X163041074Y-75953236D01*
X163045000Y-75938585D01*
X163045000Y-75821415D01*
X163014674Y-75708236D01*
X163014673Y-75708235D01*
X163014673Y-75708233D01*
X162956089Y-75606763D01*
X162873236Y-75523910D01*
X162771766Y-75465326D01*
X162712431Y-75449428D01*
X162658585Y-75435000D01*
X162541415Y-75435000D01*
X162487569Y-75449428D01*
X162428233Y-75465326D01*
X162326763Y-75523910D01*
X162243910Y-75606763D01*
X162185326Y-75708233D01*
X162177194Y-75738585D01*
X162155000Y-75821415D01*
X161854100Y-75821415D01*
X161854100Y-75621045D01*
X161871693Y-75572707D01*
X161876126Y-75567871D01*
X162442582Y-75001415D01*
X162835000Y-75001415D01*
X162835000Y-75118585D01*
X162853195Y-75186492D01*
X162865326Y-75231766D01*
X162923910Y-75333236D01*
X163006763Y-75416089D01*
X163108233Y-75474673D01*
X163108235Y-75474673D01*
X163108236Y-75474674D01*
X163221415Y-75505000D01*
X163221418Y-75505000D01*
X163338582Y-75505000D01*
X163338585Y-75505000D01*
X163451764Y-75474674D01*
X163553236Y-75416089D01*
X163636089Y-75333236D01*
X163694674Y-75231764D01*
X163725000Y-75118585D01*
X163725000Y-75001415D01*
X163694674Y-74888236D01*
X163694673Y-74888235D01*
X163694673Y-74888233D01*
X163636089Y-74786763D01*
X163553236Y-74703910D01*
X163451766Y-74645326D01*
X163406492Y-74633195D01*
X163338585Y-74615000D01*
X163221415Y-74615000D01*
X163164825Y-74630163D01*
X163108233Y-74645326D01*
X163006763Y-74703910D01*
X162923910Y-74786763D01*
X162865326Y-74888233D01*
X162847130Y-74956143D01*
X162835000Y-75001415D01*
X162442582Y-75001415D01*
X163112871Y-74331126D01*
X163159491Y-74309386D01*
X163166045Y-74309100D01*
X166715012Y-74309100D01*
X166763350Y-74326693D01*
X166780138Y-74346701D01*
X166783911Y-74353237D01*
X166866763Y-74436089D01*
X166968233Y-74494673D01*
X166968235Y-74494673D01*
X166968236Y-74494674D01*
X167081415Y-74525000D01*
X167081418Y-74525000D01*
X167198582Y-74525000D01*
X167198585Y-74525000D01*
X167311764Y-74494674D01*
X167413236Y-74436089D01*
X167496089Y-74353236D01*
X167554674Y-74251764D01*
X167585000Y-74138585D01*
X167585000Y-74021415D01*
X167554674Y-73908236D01*
X167554673Y-73908235D01*
X167554673Y-73908233D01*
X167496089Y-73806763D01*
X167413236Y-73723910D01*
X167311766Y-73665326D01*
X167266492Y-73653195D01*
X167198585Y-73635000D01*
X167081415Y-73635000D01*
X167024825Y-73650163D01*
X166968233Y-73665326D01*
X166866763Y-73723910D01*
X166783911Y-73806762D01*
X166780138Y-73813299D01*
X166740733Y-73846364D01*
X166715012Y-73850900D01*
X162994429Y-73850900D01*
X162969766Y-73861115D01*
X162927662Y-73878555D01*
X162910222Y-73885779D01*
X161430778Y-75365223D01*
X161409710Y-75416088D01*
X161395900Y-75449428D01*
X161395900Y-76650011D01*
X161378307Y-76698349D01*
X161358303Y-76715134D01*
X161351765Y-76718908D01*
X161268910Y-76801763D01*
X161210326Y-76903233D01*
X161192130Y-76971143D01*
X161180000Y-77016415D01*
X161180000Y-77133585D01*
X161198195Y-77201492D01*
X161210326Y-77246766D01*
X161268909Y-77348234D01*
X161268910Y-77348235D01*
X161268911Y-77348236D01*
X161323074Y-77402399D01*
X161344814Y-77449018D01*
X161345100Y-77455573D01*
X161345100Y-78778150D01*
X161345100Y-78851850D01*
X161348151Y-78863236D01*
X161364175Y-78923038D01*
X161401023Y-78986860D01*
X161401027Y-78986866D01*
X163048074Y-80633912D01*
X163069814Y-80680532D01*
X163070100Y-80687086D01*
X163070100Y-83238150D01*
X163070100Y-83311850D01*
X163076683Y-83336417D01*
X163089175Y-83383038D01*
X163126023Y-83446860D01*
X163126027Y-83446866D01*
X165198074Y-85518912D01*
X165219814Y-85565532D01*
X165220100Y-85572086D01*
X165220100Y-85944427D01*
X165214484Y-85959854D01*
X165213054Y-85976208D01*
X165203639Y-85989652D01*
X165202507Y-85992765D01*
X165198075Y-85997600D01*
X165172601Y-86023074D01*
X165125981Y-86044814D01*
X165119427Y-86045100D01*
X160272086Y-86045100D01*
X160223748Y-86027507D01*
X160218912Y-86023074D01*
X156321926Y-82126088D01*
X156300186Y-82079468D01*
X156299900Y-82072914D01*
X156299900Y-80330573D01*
X156317493Y-80282235D01*
X156321915Y-80277409D01*
X156376089Y-80223236D01*
X156434674Y-80121764D01*
X156465000Y-80008585D01*
X156465000Y-79891415D01*
X156434674Y-79778236D01*
X156434673Y-79778235D01*
X156434673Y-79778233D01*
X156376089Y-79676763D01*
X156293236Y-79593910D01*
X156191766Y-79535326D01*
X156146492Y-79523195D01*
X156078585Y-79505000D01*
X155961415Y-79505000D01*
X155954122Y-79506954D01*
X155902878Y-79502470D01*
X155881487Y-79487490D01*
X154651126Y-78257129D01*
X154644188Y-78242252D01*
X154633635Y-78229675D01*
X154630784Y-78213507D01*
X154629386Y-78210509D01*
X154629100Y-78203955D01*
X154629100Y-78104987D01*
X154646693Y-78056649D01*
X154666700Y-78039862D01*
X154673236Y-78036089D01*
X154756089Y-77953236D01*
X154814674Y-77851764D01*
X154845000Y-77738585D01*
X154845000Y-77621415D01*
X154814674Y-77508236D01*
X154814673Y-77508235D01*
X154814673Y-77508233D01*
X154756089Y-77406763D01*
X154673236Y-77323910D01*
X154571766Y-77265326D01*
X154526492Y-77253195D01*
X154458585Y-77235000D01*
X154341415Y-77235000D01*
X154284825Y-77250163D01*
X154228233Y-77265326D01*
X154126763Y-77323910D01*
X154043910Y-77406763D01*
X153985326Y-77508233D01*
X153974609Y-77548233D01*
X153955000Y-77621415D01*
X151902900Y-77621415D01*
X151902900Y-75621415D01*
X154545000Y-75621415D01*
X154545000Y-75738585D01*
X154563195Y-75806492D01*
X154575326Y-75851766D01*
X154633910Y-75953236D01*
X154716763Y-76036089D01*
X154818233Y-76094673D01*
X154818235Y-76094673D01*
X154818236Y-76094674D01*
X154931415Y-76125000D01*
X154931418Y-76125000D01*
X155048582Y-76125000D01*
X155048585Y-76125000D01*
X155161764Y-76094674D01*
X155263236Y-76036089D01*
X155346089Y-75953236D01*
X155404674Y-75851764D01*
X155435000Y-75738585D01*
X155435000Y-75621415D01*
X155404674Y-75508236D01*
X155404673Y-75508235D01*
X155404673Y-75508233D01*
X155346089Y-75406763D01*
X155263236Y-75323910D01*
X155161766Y-75265326D01*
X155116492Y-75253195D01*
X155048585Y-75235000D01*
X154931415Y-75235000D01*
X154874825Y-75250163D01*
X154818233Y-75265326D01*
X154716763Y-75323910D01*
X154633910Y-75406763D01*
X154575326Y-75508233D01*
X154559347Y-75567871D01*
X154545000Y-75621415D01*
X151902900Y-75621415D01*
X151902900Y-72021415D01*
X161885000Y-72021415D01*
X161885000Y-72138585D01*
X161903195Y-72206492D01*
X161915326Y-72251766D01*
X161973910Y-72353236D01*
X162056763Y-72436089D01*
X162158233Y-72494673D01*
X162158235Y-72494673D01*
X162158236Y-72494674D01*
X162271415Y-72525000D01*
X162271418Y-72525000D01*
X162388582Y-72525000D01*
X162388585Y-72525000D01*
X162501764Y-72494674D01*
X162603236Y-72436089D01*
X162686089Y-72353236D01*
X162744674Y-72251764D01*
X162775000Y-72138585D01*
X162775000Y-72021415D01*
X165378333Y-72021415D01*
X165378333Y-72138585D01*
X165396528Y-72206492D01*
X165408659Y-72251766D01*
X165467243Y-72353236D01*
X165550096Y-72436089D01*
X165651566Y-72494673D01*
X165651568Y-72494673D01*
X165651569Y-72494674D01*
X165764748Y-72525000D01*
X165764751Y-72525000D01*
X165881915Y-72525000D01*
X165881918Y-72525000D01*
X165995097Y-72494674D01*
X166096569Y-72436089D01*
X166179422Y-72353236D01*
X166238007Y-72251764D01*
X166268333Y-72138585D01*
X166268333Y-72021415D01*
X166238007Y-71908236D01*
X166238006Y-71908235D01*
X166238006Y-71908233D01*
X166179422Y-71806763D01*
X166096569Y-71723910D01*
X165995099Y-71665326D01*
X165949825Y-71653195D01*
X165881918Y-71635000D01*
X165764748Y-71635000D01*
X165708158Y-71650163D01*
X165651566Y-71665326D01*
X165550096Y-71723910D01*
X165467243Y-71806763D01*
X165408659Y-71908233D01*
X165390463Y-71976143D01*
X165378333Y-72021415D01*
X162775000Y-72021415D01*
X162744674Y-71908236D01*
X162744673Y-71908235D01*
X162744673Y-71908233D01*
X162686089Y-71806763D01*
X162603236Y-71723910D01*
X162501766Y-71665326D01*
X162456492Y-71653195D01*
X162388585Y-71635000D01*
X162271415Y-71635000D01*
X162214825Y-71650163D01*
X162158233Y-71665326D01*
X162056763Y-71723910D01*
X161973910Y-71806763D01*
X161915326Y-71908233D01*
X161897130Y-71976143D01*
X161885000Y-72021415D01*
X151902900Y-72021415D01*
X151902900Y-71025200D01*
X151920493Y-70976862D01*
X151965042Y-70951142D01*
X151978100Y-70950000D01*
X169021900Y-70950000D01*
X169070238Y-70967593D01*
G37*
%TD.AperFunction*%
%TD*%
M02*
