M48
; DRILL file {KiCad 9.0.0} date 2025-04-16T21:25:54-0400
; FORMAT={-:-/ absolute / metric / decimal}
; #@! TF.CreationDate,2025-04-16T21:25:54-04:00
; #@! TF.GenerationSoftware,Kicad,Pcbnew,9.0.0
; #@! TF.FileFunction,Plated,1,4,PTH
FMAT,2
METRIC
; #@! TA.AperFunction,Plated,PTH,ViaDrill
T1C0.330
; #@! TA.AperFunction,Plated,PTH,ComponentDrill
T2C0.330
; #@! TA.AperFunction,Plated,PTH,ViaDrill
T3C0.406
; #@! TA.AperFunction,Plated,PTH,ComponentDrill
T4C0.650
; #@! TA.AperFunction,Plated,PTH,ComponentDrill
T5C0.800
%
G90
G05
T1
X152.66Y-96.85
X152.71Y-92.54
X153.87Y-93.77
X154.17Y-80.8
X154.36Y-83.46
X154.4Y-77.68
X154.46Y-82.51
X155.0Y-84.45
X155.245Y-83.395
X155.27Y-76.52
X155.75Y-87.56
X155.75Y-90.73
X155.925Y-84.375
X156.02Y-79.95
X156.25Y-89.99
X156.75Y-90.73
X157.14Y-79.0
X157.25Y-89.99
X157.75Y-90.73
X158.25Y-89.99
X158.75Y-90.73
X159.25Y-89.97
X159.75Y-90.73
X160.54Y-94.18
X160.75Y-90.73
X161.09Y-89.13
X161.41Y-96.04
X161.48Y-91.49
X161.625Y-77.075
X162.25Y-91.1
X162.33Y-72.08
X162.97Y-87.91
X163.22Y-76.59
X163.28Y-75.06
X163.425Y-96.025
X163.74Y-90.1
X163.94Y-78.14
X164.22Y-87.81
X165.075Y-94.925
X165.1Y-91.48
X165.175Y-81.15
X165.5Y-86.325
X165.65Y-82.73
X165.79Y-78.59
X165.823Y-72.08
X166.0Y-79.975
X166.423Y-94.66
X166.65Y-83.89
X166.7Y-87.81
X166.7Y-90.36
X166.7Y-91.21
X167.14Y-74.08
X167.27Y-93.66
X167.27Y-94.66
X167.58Y-82.78
T2
X159.8Y-81.62
X159.8Y-82.62
X159.8Y-83.62
X160.8Y-81.62
X160.8Y-82.62
X160.8Y-83.62
X161.8Y-81.62
X161.8Y-82.62
X161.8Y-83.62
T3
X154.49Y-95.66
T4
X152.96Y-72.36
X154.23Y-72.36
X155.5Y-72.36
T5
X154.5Y-97.47
X156.5Y-97.47
X158.5Y-97.47
X160.5Y-97.47
X162.5Y-97.47
X164.5Y-97.47
X166.5Y-97.47
M30
