%TF.GenerationSoftware,KiCad,Pcbnew,9.0.0*%
%TF.CreationDate,2025-04-27T20:52:48-05:00*%
%TF.ProjectId,ESP32_S3_CAM,45535033-325f-4533-935f-43414d2e6b69,rev?*%
%TF.SameCoordinates,Original*%
%TF.FileFunction,Paste,Bot*%
%TF.FilePolarity,Positive*%
%FSLAX46Y46*%
G04 Gerber Fmt 4.6, Leading zero omitted, Abs format (unit mm)*
G04 Created by KiCad (PCBNEW 9.0.0) date 2025-04-27 20:52:48*
%MOMM*%
%LPD*%
G01*
G04 APERTURE LIST*
G04 Aperture macros list*
%AMRoundRect*
0 Rectangle with rounded corners*
0 $1 Rounding radius*
0 $2 $3 $4 $5 $6 $7 $8 $9 X,Y pos of 4 corners*
0 Add a 4 corners polygon primitive as box body*
4,1,4,$2,$3,$4,$5,$6,$7,$8,$9,$2,$3,0*
0 Add four circle primitives for the rounded corners*
1,1,$1+$1,$2,$3*
1,1,$1+$1,$4,$5*
1,1,$1+$1,$6,$7*
1,1,$1+$1,$8,$9*
0 Add four rect primitives between the rounded corners*
20,1,$1+$1,$2,$3,$4,$5,0*
20,1,$1+$1,$4,$5,$6,$7,0*
20,1,$1+$1,$6,$7,$8,$9,0*
20,1,$1+$1,$8,$9,$2,$3,0*%
G04 Aperture macros list end*
%ADD10C,0.010000*%
%ADD11R,1.000000X1.000000*%
%ADD12RoundRect,0.225000X0.225000X0.250000X-0.225000X0.250000X-0.225000X-0.250000X0.225000X-0.250000X0*%
%ADD13RoundRect,0.140000X0.170000X-0.140000X0.170000X0.140000X-0.170000X0.140000X-0.170000X-0.140000X0*%
%ADD14RoundRect,0.140000X0.140000X0.170000X-0.140000X0.170000X-0.140000X-0.170000X0.140000X-0.170000X0*%
%ADD15RoundRect,0.140000X-0.140000X-0.170000X0.140000X-0.170000X0.140000X0.170000X-0.140000X0.170000X0*%
%ADD16R,1.000000X2.200000*%
%ADD17RoundRect,0.140000X-0.170000X0.140000X-0.170000X-0.140000X0.170000X-0.140000X0.170000X0.140000X0*%
G04 APERTURE END LIST*
D10*
%TO.C,J1*%
X154875000Y-93460000D02*
X154625000Y-93460000D01*
X154625000Y-92160000D01*
X154875000Y-92160000D01*
X154875000Y-93460000D01*
G36*
X154875000Y-93460000D02*
G01*
X154625000Y-93460000D01*
X154625000Y-92160000D01*
X154875000Y-92160000D01*
X154875000Y-93460000D01*
G37*
X155375000Y-93460000D02*
X155125000Y-93460000D01*
X155125000Y-92160000D01*
X155375000Y-92160000D01*
X155375000Y-93460000D01*
G36*
X155375000Y-93460000D02*
G01*
X155125000Y-93460000D01*
X155125000Y-92160000D01*
X155375000Y-92160000D01*
X155375000Y-93460000D01*
G37*
X155875000Y-93460000D02*
X155625000Y-93460000D01*
X155625000Y-92160000D01*
X155875000Y-92160000D01*
X155875000Y-93460000D01*
G36*
X155875000Y-93460000D02*
G01*
X155625000Y-93460000D01*
X155625000Y-92160000D01*
X155875000Y-92160000D01*
X155875000Y-93460000D01*
G37*
X156375000Y-93460000D02*
X156125000Y-93460000D01*
X156125000Y-92160000D01*
X156375000Y-92160000D01*
X156375000Y-93460000D01*
G36*
X156375000Y-93460000D02*
G01*
X156125000Y-93460000D01*
X156125000Y-92160000D01*
X156375000Y-92160000D01*
X156375000Y-93460000D01*
G37*
X156875000Y-93460000D02*
X156625000Y-93460000D01*
X156625000Y-92160000D01*
X156875000Y-92160000D01*
X156875000Y-93460000D01*
G36*
X156875000Y-93460000D02*
G01*
X156625000Y-93460000D01*
X156625000Y-92160000D01*
X156875000Y-92160000D01*
X156875000Y-93460000D01*
G37*
X157375000Y-93460000D02*
X157125000Y-93460000D01*
X157125000Y-92160000D01*
X157375000Y-92160000D01*
X157375000Y-93460000D01*
G36*
X157375000Y-93460000D02*
G01*
X157125000Y-93460000D01*
X157125000Y-92160000D01*
X157375000Y-92160000D01*
X157375000Y-93460000D01*
G37*
X157875000Y-93460000D02*
X157625000Y-93460000D01*
X157625000Y-92160000D01*
X157875000Y-92160000D01*
X157875000Y-93460000D01*
G36*
X157875000Y-93460000D02*
G01*
X157625000Y-93460000D01*
X157625000Y-92160000D01*
X157875000Y-92160000D01*
X157875000Y-93460000D01*
G37*
X158375000Y-93460000D02*
X158125000Y-93460000D01*
X158125000Y-92160000D01*
X158375000Y-92160000D01*
X158375000Y-93460000D01*
G36*
X158375000Y-93460000D02*
G01*
X158125000Y-93460000D01*
X158125000Y-92160000D01*
X158375000Y-92160000D01*
X158375000Y-93460000D01*
G37*
X158875000Y-93460000D02*
X158625000Y-93460000D01*
X158625000Y-92160000D01*
X158875000Y-92160000D01*
X158875000Y-93460000D01*
G36*
X158875000Y-93460000D02*
G01*
X158625000Y-93460000D01*
X158625000Y-92160000D01*
X158875000Y-92160000D01*
X158875000Y-93460000D01*
G37*
X159375000Y-93460000D02*
X159125000Y-93460000D01*
X159125000Y-92160000D01*
X159375000Y-92160000D01*
X159375000Y-93460000D01*
G36*
X159375000Y-93460000D02*
G01*
X159125000Y-93460000D01*
X159125000Y-92160000D01*
X159375000Y-92160000D01*
X159375000Y-93460000D01*
G37*
X159875000Y-93460000D02*
X159625000Y-93460000D01*
X159625000Y-92160000D01*
X159875000Y-92160000D01*
X159875000Y-93460000D01*
G36*
X159875000Y-93460000D02*
G01*
X159625000Y-93460000D01*
X159625000Y-92160000D01*
X159875000Y-92160000D01*
X159875000Y-93460000D01*
G37*
X160375000Y-93460000D02*
X160125000Y-93460000D01*
X160125000Y-92160000D01*
X160375000Y-92160000D01*
X160375000Y-93460000D01*
G36*
X160375000Y-93460000D02*
G01*
X160125000Y-93460000D01*
X160125000Y-92160000D01*
X160375000Y-92160000D01*
X160375000Y-93460000D01*
G37*
X160875000Y-93460000D02*
X160625000Y-93460000D01*
X160625000Y-92160000D01*
X160875000Y-92160000D01*
X160875000Y-93460000D01*
G36*
X160875000Y-93460000D02*
G01*
X160625000Y-93460000D01*
X160625000Y-92160000D01*
X160875000Y-92160000D01*
X160875000Y-93460000D01*
G37*
X161375000Y-93460000D02*
X161125000Y-93460000D01*
X161125000Y-92160000D01*
X161375000Y-92160000D01*
X161375000Y-93460000D01*
G36*
X161375000Y-93460000D02*
G01*
X161125000Y-93460000D01*
X161125000Y-92160000D01*
X161375000Y-92160000D01*
X161375000Y-93460000D01*
G37*
X161875000Y-93460000D02*
X161625000Y-93460000D01*
X161625000Y-92160000D01*
X161875000Y-92160000D01*
X161875000Y-93460000D01*
G36*
X161875000Y-93460000D02*
G01*
X161625000Y-93460000D01*
X161625000Y-92160000D01*
X161875000Y-92160000D01*
X161875000Y-93460000D01*
G37*
X162375000Y-93460000D02*
X162125000Y-93460000D01*
X162125000Y-92160000D01*
X162375000Y-92160000D01*
X162375000Y-93460000D01*
G36*
X162375000Y-93460000D02*
G01*
X162125000Y-93460000D01*
X162125000Y-92160000D01*
X162375000Y-92160000D01*
X162375000Y-93460000D01*
G37*
X162875000Y-93460000D02*
X162625000Y-93460000D01*
X162625000Y-92160000D01*
X162875000Y-92160000D01*
X162875000Y-93460000D01*
G36*
X162875000Y-93460000D02*
G01*
X162625000Y-93460000D01*
X162625000Y-92160000D01*
X162875000Y-92160000D01*
X162875000Y-93460000D01*
G37*
X163375000Y-93460000D02*
X163125000Y-93460000D01*
X163125000Y-92160000D01*
X163375000Y-92160000D01*
X163375000Y-93460000D01*
G36*
X163375000Y-93460000D02*
G01*
X163125000Y-93460000D01*
X163125000Y-92160000D01*
X163375000Y-92160000D01*
X163375000Y-93460000D01*
G37*
X163875000Y-93460000D02*
X163625000Y-93460000D01*
X163625000Y-92160000D01*
X163875000Y-92160000D01*
X163875000Y-93460000D01*
G36*
X163875000Y-93460000D02*
G01*
X163625000Y-93460000D01*
X163625000Y-92160000D01*
X163875000Y-92160000D01*
X163875000Y-93460000D01*
G37*
X164375000Y-93460000D02*
X164125000Y-93460000D01*
X164125000Y-92160000D01*
X164375000Y-92160000D01*
X164375000Y-93460000D01*
G36*
X164375000Y-93460000D02*
G01*
X164125000Y-93460000D01*
X164125000Y-92160000D01*
X164375000Y-92160000D01*
X164375000Y-93460000D01*
G37*
X164875000Y-93460000D02*
X164625000Y-93460000D01*
X164625000Y-92160000D01*
X164875000Y-92160000D01*
X164875000Y-93460000D01*
G36*
X164875000Y-93460000D02*
G01*
X164625000Y-93460000D01*
X164625000Y-92160000D01*
X164875000Y-92160000D01*
X164875000Y-93460000D01*
G37*
X165375000Y-93460000D02*
X165125000Y-93460000D01*
X165125000Y-92160000D01*
X165375000Y-92160000D01*
X165375000Y-93460000D01*
G36*
X165375000Y-93460000D02*
G01*
X165125000Y-93460000D01*
X165125000Y-92160000D01*
X165375000Y-92160000D01*
X165375000Y-93460000D01*
G37*
X165875000Y-93460000D02*
X165625000Y-93460000D01*
X165625000Y-92160000D01*
X165875000Y-92160000D01*
X165875000Y-93460000D01*
G36*
X165875000Y-93460000D02*
G01*
X165625000Y-93460000D01*
X165625000Y-92160000D01*
X165875000Y-92160000D01*
X165875000Y-93460000D01*
G37*
X166375000Y-93460000D02*
X166125000Y-93460000D01*
X166125000Y-92160000D01*
X166375000Y-92160000D01*
X166375000Y-93460000D01*
G36*
X166375000Y-93460000D02*
G01*
X166125000Y-93460000D01*
X166125000Y-92160000D01*
X166375000Y-92160000D01*
X166375000Y-93460000D01*
G37*
%TD*%
D11*
%TO.C,J11*%
X152425000Y-83150000D03*
%TD*%
%TO.C,J10*%
X152425000Y-84900000D03*
%TD*%
D12*
%TO.C,C18*%
X154490000Y-95660000D03*
X152930000Y-95660000D03*
%TD*%
D13*
%TO.C,R8*%
X152660000Y-97850000D03*
X152660000Y-96850000D03*
%TD*%
D14*
%TO.C,C20*%
X160540000Y-94180000D03*
X159540000Y-94180000D03*
%TD*%
D15*
%TO.C,C21*%
X161750000Y-94180000D03*
X162750000Y-94180000D03*
%TD*%
D16*
%TO.C,J1*%
X168150000Y-89560000D03*
X152850000Y-89560000D03*
%TD*%
D14*
%TO.C,R6*%
X158300000Y-94180000D03*
X157300000Y-94180000D03*
%TD*%
D17*
%TO.C,C15*%
X167150000Y-74080000D03*
X167150000Y-75080000D03*
%TD*%
M02*
