M48
; DRILL file {KiCad 9.0.0} date 2025-04-27T20:52:52-0500
; FORMAT={-:-/ absolute / inch / decimal}
; #@! TF.CreationDate,2025-04-27T20:52:52-05:00
; #@! TF.GenerationSoftware,Kicad,Pcbnew,9.0.0
; #@! TF.FileFunction,Plated,1,4,PTH
FMAT,2
INCH
; #@! TA.AperFunction,Plated,PTH,ViaDrill
T1C0.0130
; #@! TA.AperFunction,Plated,PTH,ComponentDrill
T2C0.0130
; #@! TA.AperFunction,Plated,PTH,ComponentDrill
T3C0.0315
%
G90
G05
T1
X6.0102Y-3.813
X6.0122Y-3.6433
X6.0236Y-2.815
X6.0236Y-2.8543
X6.0236Y-2.8937
X6.0236Y-2.9331
X6.0579Y-3.6917
X6.063Y-2.815
X6.063Y-2.8543
X6.063Y-2.8937
X6.063Y-2.9331
X6.0697Y-3.1811
X6.0728Y-3.0118
X6.0772Y-3.2858
X6.0787Y-3.0583
X6.0811Y-3.2484
X6.102Y-2.9795
X6.1024Y-2.815
X6.1024Y-2.8543
X6.1024Y-2.8937
X6.1024Y-2.9331
X6.1024Y-3.3248
X6.112Y-3.2833
X6.1319Y-3.4472
X6.1319Y-3.572
X6.1388Y-3.3219
X6.1417Y-2.815
X6.1417Y-2.8543
X6.1417Y-2.8937
X6.1417Y-2.9331
X6.1417Y-3.0118
X6.1425Y-3.1476
X6.1516Y-3.5429
X6.1713Y-3.572
X6.1811Y-2.815
X6.1811Y-2.8543
X6.1811Y-2.8937
X6.1866Y-3.1102
X6.1909Y-3.5429
X6.2106Y-3.572
X6.2205Y-2.815
X6.2205Y-2.8543
X6.2205Y-2.8937
X6.2303Y-3.5429
X6.25Y-3.572
X6.2598Y-2.815
X6.2598Y-2.8543
X6.2598Y-2.8937
X6.2697Y-3.5421
X6.2894Y-3.572
X6.2992Y-2.815
X6.2992Y-2.8543
X6.2992Y-2.8937
X6.3189Y-3.061
X6.3205Y-3.7079
X6.3287Y-3.572
X6.3386Y-2.815
X6.3386Y-2.8543
X6.3421Y-3.5091
X6.3547Y-3.7811
X6.3575Y-3.602
X6.3632Y-3.0344
X6.3878Y-3.5866
X6.3909Y-2.8378
X6.4016Y-2.9874
X6.4161Y-3.461
X6.4173Y-3.0598
X6.4283Y-2.9551
X6.4341Y-3.7805
X6.4382Y-3.0169
X6.4465Y-3.5472
X6.4543Y-3.0764
X6.4654Y-3.4571
X6.499Y-3.7372
X6.5Y-3.6016
X6.503Y-3.1949
X6.5157Y-3.3986
X6.5157Y-3.7697
X6.5217Y-3.2571
X6.5272Y-3.0941
X6.5285Y-2.8378
X6.5354Y-3.1486
X6.5521Y-3.7268
X6.5551Y-3.7697
X6.561Y-3.3028
X6.563Y-3.4571
X6.563Y-3.5575
X6.563Y-3.5909
X6.5803Y-2.9165
X6.5854Y-3.6874
X6.5854Y-3.7268
X6.5945Y-3.3465
X6.5945Y-3.3957
X6.5945Y-3.7697
X6.5976Y-3.2591
X6.6339Y-3.6417
X6.6339Y-3.6909
X6.6339Y-3.7303
X6.6339Y-3.7697
X6.6339Y-3.8091
X6.6339Y-3.8484
T2
X6.2913Y-3.2134
X6.2913Y-3.2528
X6.2913Y-3.2921
X6.3307Y-3.2134
X6.3307Y-3.2528
X6.3307Y-3.2921
X6.3701Y-3.2134
X6.3701Y-3.2528
X6.3701Y-3.2921
T3
X6.0827Y-3.8374
X6.1614Y-3.8374
X6.2402Y-3.8374
X6.3189Y-3.8374
X6.3976Y-3.8374
X6.4764Y-3.8374
X6.5551Y-3.8374
M30
