%TF.GenerationSoftware,KiCad,Pcbnew,9.0.0*%
%TF.CreationDate,2025-04-27T20:52:48-05:00*%
%TF.ProjectId,ESP32_S3_CAM,45535033-325f-4533-935f-43414d2e6b69,rev?*%
%TF.SameCoordinates,Original*%
%TF.FileFunction,Soldermask,Bot*%
%TF.FilePolarity,Negative*%
%FSLAX46Y46*%
G04 Gerber Fmt 4.6, Leading zero omitted, Abs format (unit mm)*
G04 Created by KiCad (PCBNEW 9.0.0) date 2025-04-27 20:52:48*
%MOMM*%
%LPD*%
G01*
G04 APERTURE LIST*
G04 Aperture macros list*
%AMRoundRect*
0 Rectangle with rounded corners*
0 $1 Rounding radius*
0 $2 $3 $4 $5 $6 $7 $8 $9 X,Y pos of 4 corners*
0 Add a 4 corners polygon primitive as box body*
4,1,4,$2,$3,$4,$5,$6,$7,$8,$9,$2,$3,0*
0 Add four circle primitives for the rounded corners*
1,1,$1+$1,$2,$3*
1,1,$1+$1,$4,$5*
1,1,$1+$1,$6,$7*
1,1,$1+$1,$8,$9*
0 Add four rect primitives between the rounded corners*
20,1,$1+$1,$2,$3,$4,$5,0*
20,1,$1+$1,$4,$5,$6,$7,0*
20,1,$1+$1,$6,$7,$8,$9,0*
20,1,$1+$1,$8,$9,$2,$3,0*%
G04 Aperture macros list end*
%ADD10C,0.100000*%
%ADD11R,1.000000X1.000000*%
%ADD12R,1.400000X1.400000*%
%ADD13C,1.400000*%
%ADD14RoundRect,0.244000X0.244000X0.269000X-0.244000X0.269000X-0.244000X-0.269000X0.244000X-0.269000X0*%
%ADD15RoundRect,0.159000X0.189000X-0.159000X0.189000X0.159000X-0.189000X0.159000X-0.189000X-0.159000X0*%
%ADD16RoundRect,0.159000X0.159000X0.189000X-0.159000X0.189000X-0.159000X-0.189000X0.159000X-0.189000X0*%
%ADD17RoundRect,0.159000X-0.159000X-0.189000X0.159000X-0.189000X0.159000X0.189000X-0.159000X0.189000X0*%
%ADD18R,0.300000X1.300000*%
%ADD19R,1.000000X2.200000*%
%ADD20RoundRect,0.159000X-0.189000X0.159000X-0.189000X-0.159000X0.189000X-0.159000X0.189000X0.159000X0*%
G04 APERTURE END LIST*
D10*
X158500000Y-80320000D02*
X163100000Y-80320000D01*
X163100000Y-84920000D01*
X158500000Y-84920000D01*
X158500000Y-80320000D01*
G36*
X158500000Y-80320000D02*
G01*
X163100000Y-80320000D01*
X163100000Y-84920000D01*
X158500000Y-84920000D01*
X158500000Y-80320000D01*
G37*
D11*
%TO.C,J11*%
X152425000Y-83150000D03*
%TD*%
%TO.C,J10*%
X152425000Y-84900000D03*
%TD*%
D12*
%TO.C,J2*%
X154500000Y-97470000D03*
D13*
X156500000Y-97470000D03*
X158500000Y-97470000D03*
X160500000Y-97470000D03*
X162500000Y-97470000D03*
X164500000Y-97470000D03*
X166500000Y-97470000D03*
%TD*%
D14*
%TO.C,C18*%
X154490000Y-95660000D03*
X152930000Y-95660000D03*
%TD*%
D15*
%TO.C,R8*%
X152660000Y-97850000D03*
X152660000Y-96850000D03*
%TD*%
D16*
%TO.C,C20*%
X160540000Y-94180000D03*
X159540000Y-94180000D03*
%TD*%
D17*
%TO.C,C21*%
X161750000Y-94180000D03*
X162750000Y-94180000D03*
%TD*%
D18*
%TO.C,J1*%
X154750000Y-92810000D03*
X155250000Y-92810000D03*
X155750000Y-92810000D03*
X156250000Y-92810000D03*
X156750000Y-92810000D03*
X157250000Y-92810000D03*
X157750000Y-92810000D03*
X158250000Y-92810000D03*
X158750000Y-92810000D03*
X159250000Y-92810000D03*
X159750000Y-92810000D03*
X160250000Y-92810000D03*
X160750000Y-92810000D03*
X161250000Y-92810000D03*
X161750000Y-92810000D03*
X162250000Y-92810000D03*
X162750000Y-92810000D03*
X163250000Y-92810000D03*
X163750000Y-92810000D03*
X164250000Y-92810000D03*
X164750000Y-92810000D03*
X165250000Y-92810000D03*
X165750000Y-92810000D03*
X166250000Y-92810000D03*
D19*
X168150000Y-89560000D03*
X152850000Y-89560000D03*
%TD*%
D16*
%TO.C,R6*%
X158300000Y-94180000D03*
X157300000Y-94180000D03*
%TD*%
D20*
%TO.C,C15*%
X167150000Y-74080000D03*
X167150000Y-75080000D03*
%TD*%
M02*
