%TF.GenerationSoftware,KiCad,Pcbnew,9.0.0*%
%TF.CreationDate,2025-04-27T20:43:47-05:00*%
%TF.ProjectId,ESP32_S3_CAM_wifi,45535033-325f-4533-935f-43414d5f7769,rev?*%
%TF.SameCoordinates,Original*%
%TF.FileFunction,Copper,L4,Bot*%
%TF.FilePolarity,Positive*%
%FSLAX46Y46*%
G04 Gerber Fmt 4.6, Leading zero omitted, Abs format (unit mm)*
G04 Created by KiCad (PCBNEW 9.0.0) date 2025-04-27 20:43:47*
%MOMM*%
%LPD*%
G01*
G04 APERTURE LIST*
G04 Aperture macros list*
%AMRoundRect*
0 Rectangle with rounded corners*
0 $1 Rounding radius*
0 $2 $3 $4 $5 $6 $7 $8 $9 X,Y pos of 4 corners*
0 Add a 4 corners polygon primitive as box body*
4,1,4,$2,$3,$4,$5,$6,$7,$8,$9,$2,$3,0*
0 Add four circle primitives for the rounded corners*
1,1,$1+$1,$2,$3*
1,1,$1+$1,$4,$5*
1,1,$1+$1,$6,$7*
1,1,$1+$1,$8,$9*
0 Add four rect primitives between the rounded corners*
20,1,$1+$1,$2,$3,$4,$5,0*
20,1,$1+$1,$4,$5,$6,$7,0*
20,1,$1+$1,$6,$7,$8,$9,0*
20,1,$1+$1,$8,$9,$2,$3,0*%
G04 Aperture macros list end*
%TA.AperFunction,ComponentPad*%
%ADD10C,0.500000*%
%TD*%
%TA.AperFunction,HeatsinkPad*%
%ADD11RoundRect,0.250000X-2.000000X-2.000000X2.000000X-2.000000X2.000000X2.000000X-2.000000X2.000000X0*%
%TD*%
%TA.AperFunction,ComponentPad*%
%ADD12R,1.400000X1.400000*%
%TD*%
%TA.AperFunction,ComponentPad*%
%ADD13C,1.400000*%
%TD*%
%TA.AperFunction,SMDPad,CuDef*%
%ADD14RoundRect,0.225000X0.225000X0.250000X-0.225000X0.250000X-0.225000X-0.250000X0.225000X-0.250000X0*%
%TD*%
%TA.AperFunction,SMDPad,CuDef*%
%ADD15RoundRect,0.140000X0.170000X-0.140000X0.170000X0.140000X-0.170000X0.140000X-0.170000X-0.140000X0*%
%TD*%
%TA.AperFunction,SMDPad,CuDef*%
%ADD16R,1.000000X1.000000*%
%TD*%
%TA.AperFunction,SMDPad,CuDef*%
%ADD17RoundRect,0.140000X0.140000X0.170000X-0.140000X0.170000X-0.140000X-0.170000X0.140000X-0.170000X0*%
%TD*%
%TA.AperFunction,SMDPad,CuDef*%
%ADD18RoundRect,0.140000X-0.140000X-0.170000X0.140000X-0.170000X0.140000X0.170000X-0.140000X0.170000X0*%
%TD*%
%TA.AperFunction,SMDPad,CuDef*%
%ADD19R,0.300000X1.300000*%
%TD*%
%TA.AperFunction,SMDPad,CuDef*%
%ADD20R,1.000000X2.200000*%
%TD*%
%TA.AperFunction,SMDPad,CuDef*%
%ADD21RoundRect,0.140000X-0.170000X0.140000X-0.170000X-0.140000X0.170000X-0.140000X0.170000X0.140000X0*%
%TD*%
%TA.AperFunction,ViaPad*%
%ADD22C,0.584200*%
%TD*%
%TA.AperFunction,Conductor*%
%ADD23C,0.254000*%
%TD*%
%TA.AperFunction,Conductor*%
%ADD24C,0.101600*%
%TD*%
%TA.AperFunction,Conductor*%
%ADD25C,0.508000*%
%TD*%
%TA.AperFunction,Conductor*%
%ADD26C,0.152400*%
%TD*%
G04 APERTURE END LIST*
D10*
%TO.P,U1,57,GND*%
%TO.N,GND*%
X159800000Y-81620000D03*
X159800000Y-82620000D03*
X159800000Y-83620000D03*
X160800000Y-81620000D03*
X160800000Y-82620000D03*
D11*
X160800000Y-82620000D03*
D10*
X160800000Y-83620000D03*
X161800000Y-81620000D03*
X161800000Y-82620000D03*
X161800000Y-83620000D03*
%TD*%
D12*
%TO.P,J2,1,Pin_1*%
%TO.N,+BATT*%
X154500000Y-97470000D03*
D13*
%TO.P,J2,2,Pin_2*%
%TO.N,GPIO_1*%
X156500000Y-97470000D03*
%TO.P,J2,3,Pin_3*%
%TO.N,GPIO_2*%
X158500000Y-97470000D03*
%TO.P,J2,4,Pin_4*%
%TO.N,GPIO_3*%
X160500000Y-97470000D03*
%TO.P,J2,5,Pin_5*%
%TO.N,GPIO_4*%
X162500000Y-97470000D03*
%TO.P,J2,6,Pin_6*%
%TO.N,GPIO_5*%
X164500000Y-97470000D03*
%TO.P,J2,7,Pin_7*%
%TO.N,GND*%
X166500000Y-97470000D03*
%TD*%
D14*
%TO.P,C18,1*%
%TO.N,+BATT*%
X154490000Y-95660000D03*
%TO.P,C18,2*%
%TO.N,GND*%
X152930000Y-95660000D03*
%TD*%
D15*
%TO.P,R8,1*%
%TO.N,GND*%
X152660000Y-97850000D03*
%TO.P,R8,2*%
%TO.N,Net-(D2-K)*%
X152660000Y-96850000D03*
%TD*%
D16*
%TO.P,J11,1*%
%TO.N,USB+*%
X152410000Y-83125000D03*
%TD*%
D17*
%TO.P,C20,1*%
%TO.N,+3.3V*%
X160540000Y-94180000D03*
%TO.P,C20,2*%
%TO.N,GND*%
X159540000Y-94180000D03*
%TD*%
D18*
%TO.P,C21,1*%
%TO.N,VCC_1V3*%
X161750000Y-94180000D03*
%TO.P,C21,2*%
%TO.N,GND*%
X162750000Y-94180000D03*
%TD*%
D19*
%TO.P,J1,1,1*%
%TO.N,Net-(D1-K)*%
X154750000Y-92810000D03*
%TO.P,J1,2,2*%
%TO.N,Net-(J1-Pad2)*%
X155250000Y-92810000D03*
%TO.P,J1,3,3*%
%TO.N,GPIO_10*%
X155750000Y-92810000D03*
%TO.P,J1,4,4*%
%TO.N,GPIO_11*%
X156250000Y-92810000D03*
%TO.P,J1,5,5*%
%TO.N,GPIO_12*%
X156750000Y-92810000D03*
%TO.P,J1,6,6*%
%TO.N,GPIO_13*%
X157250000Y-92810000D03*
%TO.P,J1,7,7*%
%TO.N,GPIO_14*%
X157750000Y-92810000D03*
%TO.P,J1,8,8*%
%TO.N,GPIO_15*%
X158250000Y-92810000D03*
%TO.P,J1,9,9*%
%TO.N,GPIO_16*%
X158750000Y-92810000D03*
%TO.P,J1,10,10*%
%TO.N,GND*%
X159250000Y-92810000D03*
%TO.P,J1,11,11*%
%TO.N,GPIO_17*%
X159750000Y-92810000D03*
%TO.P,J1,12,12*%
%TO.N,GPIO_18*%
X160250000Y-92810000D03*
%TO.P,J1,13,13*%
%TO.N,GPIO_48*%
X160750000Y-92810000D03*
%TO.P,J1,14,14*%
%TO.N,+3.3V*%
X161250000Y-92810000D03*
%TO.P,J1,15,15*%
%TO.N,VCC_1V3*%
X161750000Y-92810000D03*
%TO.P,J1,16,16*%
%TO.N,GPIO_47*%
X162250000Y-92810000D03*
%TO.P,J1,17,17*%
%TO.N,Net-(J1-Pad17)*%
X162750000Y-92810000D03*
%TO.P,J1,18,18*%
%TO.N,GPIO_38*%
X163250000Y-92810000D03*
%TO.P,J1,19,19*%
%TO.N,Net-(C10-Pad1)*%
X163750000Y-92810000D03*
%TO.P,J1,20,20*%
%TO.N,GPIO_39*%
X164250000Y-92810000D03*
%TO.P,J1,21,21*%
%TO.N,AVCC_2V8*%
X164750000Y-92810000D03*
%TO.P,J1,22,22*%
%TO.N,GPIO_40*%
X165250000Y-92810000D03*
%TO.P,J1,23,23*%
%TO.N,GND*%
X165750000Y-92810000D03*
%TO.P,J1,24,24*%
%TO.N,unconnected-(J1-Pad24)*%
X166250000Y-92810000D03*
D20*
%TO.P,J1,P1,SHIELD*%
%TO.N,GND*%
X168150000Y-89560000D03*
%TO.P,J1,P2,SHIELD*%
X152850000Y-89560000D03*
%TD*%
D16*
%TO.P,J10,1*%
%TO.N,USB-*%
X152410000Y-84875000D03*
%TD*%
D17*
%TO.P,R6,1*%
%TO.N,GND*%
X158300000Y-94180000D03*
%TO.P,R6,2*%
%TO.N,Net-(J1-Pad2)*%
X157300000Y-94180000D03*
%TD*%
D21*
%TO.P,C15,1*%
%TO.N,+3.3V*%
X167150000Y-74080000D03*
%TO.P,C15,2*%
%TO.N,GND*%
X167150000Y-75080000D03*
%TD*%
D22*
%TO.N,+3.3V*%
X163740000Y-90100000D03*
X167140000Y-74080000D03*
X160540000Y-94180000D03*
X154960000Y-77680000D03*
X167270000Y-93660000D03*
X165500000Y-86325000D03*
X156020000Y-79950000D03*
X166700000Y-90360000D03*
X161625000Y-77075000D03*
%TO.N,GPIO_1*%
X154460000Y-82510000D03*
%TO.N,GPIO_14*%
X157750000Y-90730000D03*
%TO.N,GPIO_11*%
X156250000Y-89990000D03*
%TO.N,SPICS0*%
X163280000Y-75060000D03*
X167580000Y-82780000D03*
%TO.N,GPIO_12*%
X156750000Y-90730000D03*
%TO.N,GND*%
X160800000Y-71400000D03*
X167680000Y-95790000D03*
X155000000Y-76600000D03*
X157140000Y-79000000D03*
X160480000Y-77610000D03*
X168340000Y-97440000D03*
X156750000Y-72400000D03*
X166030000Y-95850000D03*
X152630000Y-81000000D03*
X168470000Y-92910000D03*
X156750000Y-75400000D03*
X160800000Y-73400000D03*
X158800000Y-71400000D03*
X153520000Y-77340000D03*
X158800000Y-73400000D03*
X160800000Y-72400000D03*
X152480000Y-81970000D03*
X154000000Y-76600000D03*
X156750000Y-74400000D03*
X168530000Y-94550000D03*
X167610000Y-86680000D03*
X159800000Y-73400000D03*
X163425000Y-96025000D03*
X168410000Y-74450000D03*
X157800000Y-73400000D03*
X167610000Y-85090000D03*
X156750000Y-73400000D03*
X157800000Y-72400000D03*
X157800000Y-71400000D03*
X159800000Y-71400000D03*
X161410000Y-96040000D03*
X156750000Y-71400000D03*
X158800000Y-72400000D03*
X166500000Y-86325000D03*
X153520000Y-78280000D03*
X152620000Y-79900000D03*
X159800000Y-72400000D03*
X156000000Y-76600000D03*
%TO.N,GPIO_2*%
X154360000Y-83460000D03*
%TO.N,GPIO_38*%
X163940000Y-78140000D03*
%TO.N,GPIO_17*%
X159250000Y-89970000D03*
%TO.N,GPIO_3*%
X155245000Y-83395000D03*
%TO.N,GPIO_10*%
X155750000Y-90730000D03*
%TO.N,SPIWP*%
X165790000Y-78590000D03*
X166650000Y-83890000D03*
%TO.N,GPIO_13*%
X157250000Y-89990000D03*
%TO.N,CHIP_PU*%
X165823333Y-72080000D03*
X154170000Y-80800000D03*
%TO.N,unconnected-(AE1-NC-Pad2)*%
X155250000Y-72010000D03*
%TO.N,GPIO_0*%
X153650000Y-81950000D03*
X162330000Y-72080000D03*
%TO.N,SPIQ*%
X165650000Y-82730000D03*
X163530000Y-76630000D03*
%TO.N,Net-(C10-Pad1)*%
X166700000Y-91210000D03*
%TO.N,GPIO_48*%
X166000000Y-79975000D03*
X160750000Y-90730000D03*
%TO.N,GPIO_47*%
X162250000Y-91100000D03*
X165175000Y-81150000D03*
%TO.N,GPIO_16*%
X158750000Y-90730000D03*
%TO.N,AVCC_2V8*%
X161480000Y-91490000D03*
X165100000Y-91480000D03*
%TO.N,GPIO_40*%
X162600000Y-75880000D03*
X167270000Y-94660000D03*
%TO.N,GPIO_15*%
X158250000Y-89990000D03*
%TO.N,GPIO_18*%
X159750000Y-90730000D03*
%TO.N,GPIO_39*%
X166423333Y-94660000D03*
X163000000Y-77720000D03*
%TO.N,GPIO_4*%
X155000000Y-84450000D03*
%TO.N,USB-*%
X161090000Y-89130000D03*
%TO.N,USB+*%
X162970000Y-87910000D03*
%TO.N,GPIO_5*%
X155925000Y-84375000D03*
%TO.N,+BATT*%
X155750000Y-87560000D03*
X165075000Y-94925000D03*
%TO.N,VCC_1V3*%
X152710000Y-92540000D03*
%TO.N,Net-(J1-Pad17)*%
X166700000Y-87810000D03*
X164220000Y-87810000D03*
%TO.N,Net-(D1-K)*%
X153870000Y-93770000D03*
%TO.N,Net-(D2-K)*%
X152660000Y-96850000D03*
%TO.N,Net-(AE1-Pad1)*%
X155250000Y-75410000D03*
%TD*%
D23*
%TO.N,+3.3V*%
X160610000Y-94180000D02*
X161250000Y-93540000D01*
X161250000Y-93540000D02*
X161250000Y-92810000D01*
X160540000Y-94180000D02*
X160610000Y-94180000D01*
D24*
%TO.N,GPIO_14*%
X157750000Y-90730000D02*
X157750000Y-92810000D01*
%TO.N,GPIO_11*%
X156250000Y-92810000D02*
X156250000Y-89990000D01*
%TO.N,SPICS0*%
X163280000Y-75440000D02*
X163280000Y-75060000D01*
X165180000Y-75690000D02*
X163530000Y-75690000D01*
X167580000Y-78090000D02*
X165180000Y-75690000D01*
X163530000Y-75690000D02*
X163280000Y-75440000D01*
X167580000Y-82780000D02*
X167580000Y-78090000D01*
%TO.N,GPIO_12*%
X156750000Y-90730000D02*
X156750000Y-92810000D01*
%TO.N,GPIO_38*%
X164480000Y-78290000D02*
X164480000Y-83440000D01*
X164940000Y-83900000D02*
X164940000Y-88070000D01*
X163940000Y-78140000D02*
X164330000Y-78140000D01*
X164330000Y-78140000D02*
X164480000Y-78290000D01*
X163250000Y-89760000D02*
X163250000Y-92810000D01*
X164480000Y-83440000D02*
X164940000Y-83900000D01*
X164940000Y-88070000D02*
X163250000Y-89760000D01*
%TO.N,GPIO_17*%
X159250000Y-91170000D02*
X159750000Y-91670000D01*
X159750000Y-91670000D02*
X159750000Y-92810000D01*
X159250000Y-89970000D02*
X159250000Y-91170000D01*
%TO.N,GPIO_10*%
X155750000Y-92810000D02*
X155750000Y-90730000D01*
%TO.N,SPIWP*%
X165790000Y-78590000D02*
X166650000Y-79450000D01*
X166650000Y-79450000D02*
X166650000Y-83890000D01*
%TO.N,GPIO_13*%
X157250000Y-89990000D02*
X157250000Y-92810000D01*
%TO.N,CHIP_PU*%
X165823333Y-72080000D02*
X164520000Y-72080000D01*
X159020000Y-77580000D02*
X156900000Y-77580000D01*
X156900000Y-77580000D02*
X154170000Y-80310000D01*
X154170000Y-80310000D02*
X154170000Y-80800000D01*
X164520000Y-72080000D02*
X159020000Y-77580000D01*
%TO.N,GPIO_0*%
X153650000Y-80400000D02*
X156750000Y-77300000D01*
X156750000Y-77300000D02*
X158900000Y-77300000D01*
X153650000Y-81950000D02*
X153650000Y-80400000D01*
X162330000Y-73870000D02*
X162330000Y-72080000D01*
X158900000Y-77300000D02*
X162330000Y-73870000D01*
%TO.N,SPIQ*%
X163530000Y-76630000D02*
X164160000Y-77260000D01*
X165170000Y-80070000D02*
X165650000Y-80550000D01*
X164500000Y-77260000D02*
X165170000Y-77930000D01*
X165170000Y-77930000D02*
X165170000Y-80070000D01*
X164160000Y-77260000D02*
X164500000Y-77260000D01*
X165650000Y-80550000D02*
X165650000Y-82730000D01*
%TO.N,Net-(C10-Pad1)*%
X166700000Y-91210000D02*
X166220000Y-90730000D01*
X163750000Y-91470000D02*
X163750000Y-92810000D01*
X164490000Y-90730000D02*
X163750000Y-91470000D01*
X166220000Y-90730000D02*
X164490000Y-90730000D01*
%TO.N,GPIO_48*%
X160750000Y-90730000D02*
X160750000Y-92810000D01*
%TO.N,GPIO_47*%
X162250000Y-91100000D02*
X162250000Y-92810000D01*
%TO.N,GPIO_16*%
X158750000Y-90710000D02*
X158750000Y-92810000D01*
D23*
%TO.N,AVCC_2V8*%
X164750000Y-92810000D02*
X164750000Y-91830000D01*
X164750000Y-91830000D02*
X165100000Y-91480000D01*
D24*
%TO.N,GPIO_40*%
X166415800Y-93805800D02*
X167270000Y-94660000D01*
X165465800Y-93805800D02*
X166415800Y-93805800D01*
X165250000Y-93590000D02*
X165465800Y-93805800D01*
X165250000Y-92810000D02*
X165250000Y-93590000D01*
%TO.N,GPIO_15*%
X158250000Y-89990000D02*
X158250000Y-92810000D01*
%TO.N,GPIO_18*%
X159750000Y-90730000D02*
X159750000Y-91130000D01*
X159750000Y-91130000D02*
X160250000Y-91630000D01*
X160250000Y-91630000D02*
X160250000Y-92810000D01*
%TO.N,GPIO_39*%
X164250000Y-92810000D02*
X164250000Y-93590000D01*
X165853333Y-94090000D02*
X166423333Y-94660000D01*
X164250000Y-93590000D02*
X164750000Y-94090000D01*
X164750000Y-94090000D02*
X165853333Y-94090000D01*
%TO.N,USB-*%
X161090000Y-89130000D02*
X155440000Y-89130000D01*
X152400000Y-86090000D02*
X152400000Y-84875000D01*
X155440000Y-89130000D02*
X152400000Y-86090000D01*
%TO.N,USB+*%
X153360000Y-84085000D02*
X152400000Y-83125000D01*
X153360000Y-86650000D02*
X153360000Y-84085000D01*
X155270000Y-88560000D02*
X153360000Y-86650000D01*
X162970000Y-87910000D02*
X162320000Y-88560000D01*
X162320000Y-88560000D02*
X155270000Y-88560000D01*
D25*
%TO.N,+BATT*%
X154500000Y-97400000D02*
X154500000Y-95670000D01*
X154500000Y-95670000D02*
X154490000Y-95660000D01*
D23*
%TO.N,VCC_1V3*%
X153320000Y-94820000D02*
X155240000Y-94820000D01*
X152710000Y-92540000D02*
X152710000Y-94210000D01*
X155240000Y-94820000D02*
X155770000Y-95350000D01*
X160690000Y-95350000D02*
X161750000Y-94290000D01*
X161750000Y-94290000D02*
X161750000Y-92810000D01*
X155770000Y-95350000D02*
X160690000Y-95350000D01*
X152710000Y-94210000D02*
X153320000Y-94820000D01*
D24*
%TO.N,Net-(J1-Pad17)*%
X164220000Y-87820000D02*
X162750000Y-89290000D01*
X162750000Y-89290000D02*
X162750000Y-92810000D01*
D26*
%TO.N,Net-(J1-Pad2)*%
X155250000Y-93570000D02*
X155860000Y-94180000D01*
X155860000Y-94180000D02*
X157300000Y-94180000D01*
X155250000Y-92810000D02*
X155250000Y-93570000D01*
D23*
%TO.N,Net-(D1-K)*%
X154750000Y-92890000D02*
X153870000Y-93770000D01*
X154750000Y-92810000D02*
X154750000Y-92890000D01*
%TD*%
%TA.AperFunction,Conductor*%
%TO.N,GND*%
G36*
X169070238Y-70967593D02*
G01*
X169095958Y-71012142D01*
X169097100Y-71025200D01*
X169097100Y-98271900D01*
X169079507Y-98320238D01*
X169034958Y-98345958D01*
X169021900Y-98347100D01*
X166969508Y-98347100D01*
X166921170Y-98329507D01*
X166895450Y-98284958D01*
X166904383Y-98234300D01*
X166927729Y-98209374D01*
X167043370Y-98132104D01*
X167048855Y-98126618D01*
X167048855Y-98126617D01*
X166724502Y-97802264D01*
X166745606Y-97790080D01*
X166820080Y-97715606D01*
X166832264Y-97694501D01*
X167156618Y-98018855D01*
X167162104Y-98013370D01*
X167255385Y-97873765D01*
X167319640Y-97718639D01*
X167319641Y-97718637D01*
X167352400Y-97553955D01*
X167352400Y-97386044D01*
X167319641Y-97221362D01*
X167319640Y-97221360D01*
X167255385Y-97066234D01*
X167162105Y-96926630D01*
X167162097Y-96926621D01*
X167156620Y-96921144D01*
X167156618Y-96921144D01*
X166832264Y-97245497D01*
X166820080Y-97224394D01*
X166745606Y-97149920D01*
X166724501Y-97137735D01*
X167048855Y-96813381D01*
X167048855Y-96813379D01*
X167043378Y-96807902D01*
X167043369Y-96807894D01*
X166903765Y-96714614D01*
X166748639Y-96650359D01*
X166748637Y-96650358D01*
X166583956Y-96617600D01*
X166416044Y-96617600D01*
X166251362Y-96650358D01*
X166251360Y-96650359D01*
X166096234Y-96714614D01*
X165956633Y-96807893D01*
X165956625Y-96807899D01*
X165951143Y-96813380D01*
X166275498Y-97137735D01*
X166254394Y-97149920D01*
X166179920Y-97224394D01*
X166167735Y-97245498D01*
X165843380Y-96921144D01*
X165837899Y-96926625D01*
X165837893Y-96926633D01*
X165744614Y-97066234D01*
X165680359Y-97221360D01*
X165680358Y-97221362D01*
X165647600Y-97386044D01*
X165647600Y-97553955D01*
X165680358Y-97718637D01*
X165680359Y-97718639D01*
X165744614Y-97873765D01*
X165837894Y-98013369D01*
X165837902Y-98013378D01*
X165843379Y-98018855D01*
X165843381Y-98018855D01*
X166167735Y-97694500D01*
X166179920Y-97715606D01*
X166254394Y-97790080D01*
X166275497Y-97802264D01*
X165951144Y-98126618D01*
X165951144Y-98126620D01*
X165956621Y-98132097D01*
X165956630Y-98132105D01*
X166072271Y-98209374D01*
X166102688Y-98250857D01*
X166099323Y-98302187D01*
X166063752Y-98339345D01*
X166030492Y-98347100D01*
X164970408Y-98347100D01*
X164922070Y-98329507D01*
X164896350Y-98284958D01*
X164905283Y-98234300D01*
X164928627Y-98209374D01*
X165043692Y-98132491D01*
X165162491Y-98013692D01*
X165255830Y-97874000D01*
X165320124Y-97718782D01*
X165352900Y-97554003D01*
X165352900Y-97385997D01*
X165352392Y-97383445D01*
X165323029Y-97235824D01*
X165320124Y-97221218D01*
X165255830Y-97066000D01*
X165162491Y-96926308D01*
X165162488Y-96926305D01*
X165162486Y-96926302D01*
X165043697Y-96807513D01*
X165043694Y-96807511D01*
X165043692Y-96807509D01*
X164904000Y-96714170D01*
X164894758Y-96710342D01*
X164788355Y-96666268D01*
X164748782Y-96649876D01*
X164748780Y-96649875D01*
X164748779Y-96649875D01*
X164584004Y-96617100D01*
X164584003Y-96617100D01*
X164415997Y-96617100D01*
X164415996Y-96617100D01*
X164251220Y-96649875D01*
X164251218Y-96649876D01*
X164096001Y-96714169D01*
X163956305Y-96807511D01*
X163956302Y-96807513D01*
X163837513Y-96926302D01*
X163837511Y-96926305D01*
X163744169Y-97066001D01*
X163679876Y-97221218D01*
X163679875Y-97221220D01*
X163647100Y-97385996D01*
X163647100Y-97554003D01*
X163679847Y-97718639D01*
X163679876Y-97718782D01*
X163709409Y-97790080D01*
X163744072Y-97873765D01*
X163744170Y-97874000D01*
X163837509Y-98013692D01*
X163837511Y-98013694D01*
X163837513Y-98013697D01*
X163956302Y-98132486D01*
X163956305Y-98132488D01*
X163956308Y-98132491D01*
X164071371Y-98209373D01*
X164101788Y-98250857D01*
X164098423Y-98302186D01*
X164062852Y-98339345D01*
X164029592Y-98347100D01*
X162970408Y-98347100D01*
X162922070Y-98329507D01*
X162896350Y-98284958D01*
X162905283Y-98234300D01*
X162928627Y-98209374D01*
X163043692Y-98132491D01*
X163162491Y-98013692D01*
X163255830Y-97874000D01*
X163320124Y-97718782D01*
X163352900Y-97554003D01*
X163352900Y-97385997D01*
X163352392Y-97383445D01*
X163323029Y-97235824D01*
X163320124Y-97221218D01*
X163255830Y-97066000D01*
X163162491Y-96926308D01*
X163162488Y-96926305D01*
X163162486Y-96926302D01*
X163043697Y-96807513D01*
X163043694Y-96807511D01*
X163043692Y-96807509D01*
X162904000Y-96714170D01*
X162894758Y-96710342D01*
X162788355Y-96666268D01*
X162748782Y-96649876D01*
X162748780Y-96649875D01*
X162748779Y-96649875D01*
X162584004Y-96617100D01*
X162584003Y-96617100D01*
X162415997Y-96617100D01*
X162415996Y-96617100D01*
X162251220Y-96649875D01*
X162251218Y-96649876D01*
X162096001Y-96714169D01*
X161956305Y-96807511D01*
X161956302Y-96807513D01*
X161837513Y-96926302D01*
X161837511Y-96926305D01*
X161744169Y-97066001D01*
X161679876Y-97221218D01*
X161679875Y-97221220D01*
X161647100Y-97385996D01*
X161647100Y-97554003D01*
X161679847Y-97718639D01*
X161679876Y-97718782D01*
X161709409Y-97790080D01*
X161744072Y-97873765D01*
X161744170Y-97874000D01*
X161837509Y-98013692D01*
X161837511Y-98013694D01*
X161837513Y-98013697D01*
X161956302Y-98132486D01*
X161956305Y-98132488D01*
X161956308Y-98132491D01*
X162071371Y-98209373D01*
X162101788Y-98250857D01*
X162098423Y-98302186D01*
X162062852Y-98339345D01*
X162029592Y-98347100D01*
X160970408Y-98347100D01*
X160922070Y-98329507D01*
X160896350Y-98284958D01*
X160905283Y-98234300D01*
X160928627Y-98209374D01*
X161043692Y-98132491D01*
X161162491Y-98013692D01*
X161255830Y-97874000D01*
X161320124Y-97718782D01*
X161352900Y-97554003D01*
X161352900Y-97385997D01*
X161352392Y-97383445D01*
X161323029Y-97235824D01*
X161320124Y-97221218D01*
X161255830Y-97066000D01*
X161162491Y-96926308D01*
X161162488Y-96926305D01*
X161162486Y-96926302D01*
X161043697Y-96807513D01*
X161043694Y-96807511D01*
X161043692Y-96807509D01*
X160904000Y-96714170D01*
X160894758Y-96710342D01*
X160788355Y-96666268D01*
X160748782Y-96649876D01*
X160748780Y-96649875D01*
X160748779Y-96649875D01*
X160584004Y-96617100D01*
X160584003Y-96617100D01*
X160415997Y-96617100D01*
X160415996Y-96617100D01*
X160251220Y-96649875D01*
X160251218Y-96649876D01*
X160096001Y-96714169D01*
X159956305Y-96807511D01*
X159956302Y-96807513D01*
X159837513Y-96926302D01*
X159837511Y-96926305D01*
X159744169Y-97066001D01*
X159679876Y-97221218D01*
X159679875Y-97221220D01*
X159647100Y-97385996D01*
X159647100Y-97554003D01*
X159679847Y-97718639D01*
X159679876Y-97718782D01*
X159709409Y-97790080D01*
X159744072Y-97873765D01*
X159744170Y-97874000D01*
X159837509Y-98013692D01*
X159837511Y-98013694D01*
X159837513Y-98013697D01*
X159956302Y-98132486D01*
X159956305Y-98132488D01*
X159956308Y-98132491D01*
X160071371Y-98209373D01*
X160101788Y-98250857D01*
X160098423Y-98302186D01*
X160062852Y-98339345D01*
X160029592Y-98347100D01*
X158970408Y-98347100D01*
X158922070Y-98329507D01*
X158896350Y-98284958D01*
X158905283Y-98234300D01*
X158928627Y-98209374D01*
X159043692Y-98132491D01*
X159162491Y-98013692D01*
X159255830Y-97874000D01*
X159320124Y-97718782D01*
X159352900Y-97554003D01*
X159352900Y-97385997D01*
X159352392Y-97383445D01*
X159323029Y-97235824D01*
X159320124Y-97221218D01*
X159255830Y-97066000D01*
X159162491Y-96926308D01*
X159162488Y-96926305D01*
X159162486Y-96926302D01*
X159043697Y-96807513D01*
X159043694Y-96807511D01*
X159043692Y-96807509D01*
X158904000Y-96714170D01*
X158894758Y-96710342D01*
X158788355Y-96666268D01*
X158748782Y-96649876D01*
X158748780Y-96649875D01*
X158748779Y-96649875D01*
X158584004Y-96617100D01*
X158584003Y-96617100D01*
X158415997Y-96617100D01*
X158415996Y-96617100D01*
X158251220Y-96649875D01*
X158251218Y-96649876D01*
X158096001Y-96714169D01*
X157956305Y-96807511D01*
X157956302Y-96807513D01*
X157837513Y-96926302D01*
X157837511Y-96926305D01*
X157744169Y-97066001D01*
X157679876Y-97221218D01*
X157679875Y-97221220D01*
X157647100Y-97385996D01*
X157647100Y-97554003D01*
X157679847Y-97718639D01*
X157679876Y-97718782D01*
X157709409Y-97790080D01*
X157744072Y-97873765D01*
X157744170Y-97874000D01*
X157837509Y-98013692D01*
X157837511Y-98013694D01*
X157837513Y-98013697D01*
X157956302Y-98132486D01*
X157956305Y-98132488D01*
X157956308Y-98132491D01*
X158071371Y-98209373D01*
X158101788Y-98250857D01*
X158098423Y-98302186D01*
X158062852Y-98339345D01*
X158029592Y-98347100D01*
X156970408Y-98347100D01*
X156922070Y-98329507D01*
X156896350Y-98284958D01*
X156905283Y-98234300D01*
X156928627Y-98209374D01*
X157043692Y-98132491D01*
X157162491Y-98013692D01*
X157255830Y-97874000D01*
X157320124Y-97718782D01*
X157352900Y-97554003D01*
X157352900Y-97385997D01*
X157352392Y-97383445D01*
X157323029Y-97235824D01*
X157320124Y-97221218D01*
X157255830Y-97066000D01*
X157162491Y-96926308D01*
X157162488Y-96926305D01*
X157162486Y-96926302D01*
X157043697Y-96807513D01*
X157043694Y-96807511D01*
X157043692Y-96807509D01*
X156904000Y-96714170D01*
X156894758Y-96710342D01*
X156788355Y-96666268D01*
X156748782Y-96649876D01*
X156748780Y-96649875D01*
X156748779Y-96649875D01*
X156584004Y-96617100D01*
X156584003Y-96617100D01*
X156415997Y-96617100D01*
X156415996Y-96617100D01*
X156251220Y-96649875D01*
X156251218Y-96649876D01*
X156096001Y-96714169D01*
X155956305Y-96807511D01*
X155956302Y-96807513D01*
X155837513Y-96926302D01*
X155837511Y-96926305D01*
X155744169Y-97066001D01*
X155679876Y-97221218D01*
X155679875Y-97221220D01*
X155647100Y-97385996D01*
X155647100Y-97554003D01*
X155679847Y-97718639D01*
X155679876Y-97718782D01*
X155709409Y-97790080D01*
X155744072Y-97873765D01*
X155744170Y-97874000D01*
X155837509Y-98013692D01*
X155837511Y-98013694D01*
X155837513Y-98013697D01*
X155956302Y-98132486D01*
X155956305Y-98132488D01*
X155956308Y-98132491D01*
X156071371Y-98209373D01*
X156101788Y-98250857D01*
X156098423Y-98302186D01*
X156062852Y-98339345D01*
X156029592Y-98347100D01*
X155406245Y-98347100D01*
X155357907Y-98329507D01*
X155332187Y-98284958D01*
X155341120Y-98234300D01*
X155343709Y-98230134D01*
X155344028Y-98229658D01*
X155352900Y-98185057D01*
X155352899Y-96754944D01*
X155344028Y-96710342D01*
X155314577Y-96666266D01*
X155310235Y-96659767D01*
X155310231Y-96659764D01*
X155259658Y-96625972D01*
X155259656Y-96625971D01*
X155215057Y-96617100D01*
X154982100Y-96617100D01*
X154933762Y-96599507D01*
X154908042Y-96554958D01*
X154906900Y-96541900D01*
X154906900Y-96282452D01*
X154924493Y-96234114D01*
X154935454Y-96223977D01*
X155026804Y-96132627D01*
X155026806Y-96132625D01*
X155082198Y-96019319D01*
X155092900Y-95945863D01*
X155092899Y-95374138D01*
X155082198Y-95300681D01*
X155048041Y-95230813D01*
X155042618Y-95179662D01*
X155071343Y-95136990D01*
X155120777Y-95122765D01*
X155167789Y-95143644D01*
X155168775Y-95144613D01*
X155598137Y-95573976D01*
X155634986Y-95595250D01*
X155661962Y-95610825D01*
X155733150Y-95629900D01*
X155733153Y-95629900D01*
X160726848Y-95629900D01*
X160726850Y-95629900D01*
X160798037Y-95610825D01*
X160861862Y-95573976D01*
X161237602Y-95198236D01*
X161569424Y-94866415D01*
X164630000Y-94866415D01*
X164630000Y-94983585D01*
X164643134Y-95032601D01*
X164660326Y-95096766D01*
X164718910Y-95198236D01*
X164801763Y-95281089D01*
X164903233Y-95339673D01*
X164903235Y-95339673D01*
X164903236Y-95339674D01*
X165016415Y-95370000D01*
X165016418Y-95370000D01*
X165133582Y-95370000D01*
X165133585Y-95370000D01*
X165246764Y-95339674D01*
X165314304Y-95300680D01*
X165348236Y-95281089D01*
X165431089Y-95198236D01*
X165489673Y-95096766D01*
X165489674Y-95096764D01*
X165520000Y-94983585D01*
X165520000Y-94866415D01*
X165489674Y-94753236D01*
X165489673Y-94753235D01*
X165489673Y-94753233D01*
X165431089Y-94651763D01*
X165348236Y-94568910D01*
X165246766Y-94510326D01*
X165182680Y-94493155D01*
X165133585Y-94480000D01*
X165016415Y-94480000D01*
X164967320Y-94493155D01*
X164903233Y-94510326D01*
X164801763Y-94568910D01*
X164718910Y-94651763D01*
X164660326Y-94753233D01*
X164642130Y-94821143D01*
X164630000Y-94866415D01*
X161569424Y-94866415D01*
X161627527Y-94808312D01*
X161770913Y-94664926D01*
X161817533Y-94643186D01*
X161824087Y-94642900D01*
X161933732Y-94642900D01*
X161933734Y-94642900D01*
X161958221Y-94640059D01*
X162058396Y-94595828D01*
X162135828Y-94518396D01*
X162180059Y-94418221D01*
X162180059Y-94418216D01*
X162181479Y-94415002D01*
X162217098Y-94377889D01*
X162268239Y-94372354D01*
X162310973Y-94400987D01*
X162319064Y-94415001D01*
X162364589Y-94518104D01*
X162364594Y-94518111D01*
X162441888Y-94595405D01*
X162441891Y-94595407D01*
X162541896Y-94639564D01*
X162566342Y-94642399D01*
X162673800Y-94642399D01*
X162826200Y-94642399D01*
X162933651Y-94642399D01*
X162958108Y-94639563D01*
X163058104Y-94595410D01*
X163058111Y-94595405D01*
X163135405Y-94518111D01*
X163135407Y-94518108D01*
X163179564Y-94418103D01*
X163182400Y-94393657D01*
X163182400Y-94256200D01*
X162826200Y-94256200D01*
X162826200Y-94642399D01*
X162673800Y-94642399D01*
X162673800Y-94255200D01*
X162680482Y-94236840D01*
X162683875Y-94217600D01*
X162689071Y-94213239D01*
X162691393Y-94206862D01*
X162708315Y-94197092D01*
X162723280Y-94184535D01*
X162733048Y-94182812D01*
X162735942Y-94181142D01*
X162749000Y-94180000D01*
X162750000Y-94180000D01*
X162750000Y-94179000D01*
X162767593Y-94130662D01*
X162812142Y-94104942D01*
X162825200Y-94103800D01*
X163182399Y-94103800D01*
X163182399Y-93966349D01*
X163179563Y-93941891D01*
X163135410Y-93841895D01*
X163135405Y-93841888D01*
X163058111Y-93764594D01*
X163058107Y-93764591D01*
X163035349Y-93754542D01*
X162998238Y-93718922D01*
X162992705Y-93667780D01*
X163021339Y-93625047D01*
X163070743Y-93610718D01*
X163080398Y-93611995D01*
X163084943Y-93612900D01*
X163415056Y-93612899D01*
X163459658Y-93604028D01*
X163459660Y-93604026D01*
X163466503Y-93601193D01*
X163467168Y-93602799D01*
X163508181Y-93592760D01*
X163533217Y-93601872D01*
X163533499Y-93601193D01*
X163540340Y-93604026D01*
X163540342Y-93604028D01*
X163584943Y-93612900D01*
X163915056Y-93612899D01*
X163959658Y-93604028D01*
X163959658Y-93604027D01*
X163966922Y-93602583D01*
X163967501Y-93605497D01*
X164006153Y-93603806D01*
X164046966Y-93635117D01*
X164053022Y-93646750D01*
X164077156Y-93705013D01*
X164077311Y-93705387D01*
X164134613Y-93762689D01*
X164134614Y-93762689D01*
X164577310Y-94205385D01*
X164577311Y-94205387D01*
X164634613Y-94262689D01*
X164665625Y-94275534D01*
X164674954Y-94279398D01*
X164674955Y-94279399D01*
X164685442Y-94283743D01*
X164709482Y-94293701D01*
X164799271Y-94293701D01*
X164799279Y-94293700D01*
X165737810Y-94293700D01*
X165786148Y-94311293D01*
X165790984Y-94315726D01*
X165968413Y-94493155D01*
X165990153Y-94539775D01*
X165987877Y-94565789D01*
X165978333Y-94601413D01*
X165978333Y-94601415D01*
X165978333Y-94718585D01*
X165979303Y-94722204D01*
X166008659Y-94831766D01*
X166067243Y-94933236D01*
X166150096Y-95016089D01*
X166251566Y-95074673D01*
X166251568Y-95074673D01*
X166251569Y-95074674D01*
X166364748Y-95105000D01*
X166364751Y-95105000D01*
X166481915Y-95105000D01*
X166481918Y-95105000D01*
X166595097Y-95074674D01*
X166603020Y-95070100D01*
X166696569Y-95016089D01*
X166779422Y-94933236D01*
X166781539Y-94929570D01*
X166820942Y-94896503D01*
X166872382Y-94896500D01*
X166911789Y-94929562D01*
X166911790Y-94929563D01*
X166913911Y-94933237D01*
X166996763Y-95016089D01*
X167098233Y-95074673D01*
X167098235Y-95074673D01*
X167098236Y-95074674D01*
X167211415Y-95105000D01*
X167211418Y-95105000D01*
X167328582Y-95105000D01*
X167328585Y-95105000D01*
X167441764Y-95074674D01*
X167449687Y-95070100D01*
X167543236Y-95016089D01*
X167626089Y-94933236D01*
X167684673Y-94831766D01*
X167684674Y-94831764D01*
X167715000Y-94718585D01*
X167715000Y-94601415D01*
X167684674Y-94488236D01*
X167684673Y-94488235D01*
X167684673Y-94488233D01*
X167626089Y-94386763D01*
X167543236Y-94303910D01*
X167441766Y-94245326D01*
X167416606Y-94238585D01*
X167394407Y-94232636D01*
X167352272Y-94203133D01*
X167338958Y-94153446D01*
X167360697Y-94106826D01*
X167394406Y-94087363D01*
X167441764Y-94074674D01*
X167543236Y-94016089D01*
X167626089Y-93933236D01*
X167678993Y-93841604D01*
X167684673Y-93831766D01*
X167684674Y-93831764D01*
X167715000Y-93718585D01*
X167715000Y-93601415D01*
X167684674Y-93488236D01*
X167684673Y-93488235D01*
X167684673Y-93488233D01*
X167626089Y-93386763D01*
X167543236Y-93303910D01*
X167441766Y-93245326D01*
X167396492Y-93233195D01*
X167328585Y-93215000D01*
X167211415Y-93215000D01*
X167154825Y-93230163D01*
X167098233Y-93245326D01*
X166996763Y-93303910D01*
X166913910Y-93386763D01*
X166855326Y-93488233D01*
X166840371Y-93544049D01*
X166825000Y-93601415D01*
X166825000Y-93718585D01*
X166828620Y-93732098D01*
X166828029Y-93738855D01*
X166830897Y-93745005D01*
X166825840Y-93763877D01*
X166824137Y-93783340D01*
X166819339Y-93788137D01*
X166817583Y-93794692D01*
X166801577Y-93805899D01*
X166787764Y-93819713D01*
X166781006Y-93820304D01*
X166775447Y-93824197D01*
X166755983Y-93822493D01*
X166736520Y-93824197D01*
X166729566Y-93820182D01*
X166724202Y-93819713D01*
X166702809Y-93804734D01*
X166652615Y-93754540D01*
X166599064Y-93700989D01*
X166599064Y-93700988D01*
X166537080Y-93639004D01*
X166515340Y-93592384D01*
X166527728Y-93544052D01*
X166544028Y-93519658D01*
X166552900Y-93475057D01*
X166552899Y-92144944D01*
X166544028Y-92100342D01*
X166510234Y-92049766D01*
X166459658Y-92015972D01*
X166459656Y-92015971D01*
X166415057Y-92007100D01*
X166084944Y-92007100D01*
X166084939Y-92007101D01*
X166040345Y-92015970D01*
X166033503Y-92018805D01*
X166032910Y-92017373D01*
X165991356Y-92027537D01*
X165966615Y-92018531D01*
X165966307Y-92019277D01*
X165959462Y-92016441D01*
X165915013Y-92007600D01*
X165826200Y-92007600D01*
X165826200Y-92734800D01*
X165819517Y-92753159D01*
X165816125Y-92772400D01*
X165810928Y-92776760D01*
X165808607Y-92783138D01*
X165791684Y-92792907D01*
X165776720Y-92805465D01*
X165766951Y-92807187D01*
X165764058Y-92808858D01*
X165751000Y-92810000D01*
X165749000Y-92810000D01*
X165700662Y-92792407D01*
X165674942Y-92747858D01*
X165673800Y-92734800D01*
X165673800Y-92007600D01*
X165584987Y-92007600D01*
X165540537Y-92016441D01*
X165533692Y-92019277D01*
X165532987Y-92017575D01*
X165492245Y-92027535D01*
X165489563Y-92027192D01*
X165472774Y-92024736D01*
X165459658Y-92015972D01*
X165415057Y-92007100D01*
X165352216Y-92007100D01*
X165346801Y-92006308D01*
X165328688Y-91996546D01*
X165309348Y-91989507D01*
X165306511Y-91984593D01*
X165301519Y-91981903D01*
X165293918Y-91962781D01*
X165283628Y-91944958D01*
X165284613Y-91939371D01*
X165282518Y-91934101D01*
X165288987Y-91914564D01*
X165292561Y-91894300D01*
X165297251Y-91889609D01*
X165298689Y-91885269D01*
X165306270Y-91880590D01*
X165320085Y-91866775D01*
X165373236Y-91836089D01*
X165456089Y-91753236D01*
X165474146Y-91721961D01*
X165514673Y-91651766D01*
X165514674Y-91651764D01*
X165545000Y-91538585D01*
X165545000Y-91421415D01*
X165514674Y-91308236D01*
X165514673Y-91308235D01*
X165514673Y-91308233D01*
X165456089Y-91206763D01*
X165373236Y-91123910D01*
X165286832Y-91074025D01*
X165253767Y-91034620D01*
X165253767Y-90983180D01*
X165286832Y-90943775D01*
X165324432Y-90933700D01*
X166104477Y-90933700D01*
X166119904Y-90939315D01*
X166136258Y-90940746D01*
X166149702Y-90950160D01*
X166152815Y-90951293D01*
X166157651Y-90955726D01*
X166245080Y-91043155D01*
X166266820Y-91089775D01*
X166264544Y-91115789D01*
X166255000Y-91151413D01*
X166255000Y-91151415D01*
X166255000Y-91268585D01*
X166267742Y-91316138D01*
X166285326Y-91381766D01*
X166343910Y-91483236D01*
X166426763Y-91566089D01*
X166528233Y-91624673D01*
X166528235Y-91624673D01*
X166528236Y-91624674D01*
X166641415Y-91655000D01*
X166641418Y-91655000D01*
X166758582Y-91655000D01*
X166758585Y-91655000D01*
X166871764Y-91624674D01*
X166973236Y-91566089D01*
X167056089Y-91483236D01*
X167091780Y-91421417D01*
X167114673Y-91381766D01*
X167117400Y-91371589D01*
X167145000Y-91268585D01*
X167145000Y-91151415D01*
X167114674Y-91038236D01*
X167114673Y-91038235D01*
X167114673Y-91038233D01*
X167056089Y-90936763D01*
X166973236Y-90853910D01*
X166966681Y-90850126D01*
X166933615Y-90810722D01*
X166933613Y-90759282D01*
X166966677Y-90719876D01*
X166966681Y-90719874D01*
X166973236Y-90716089D01*
X167014313Y-90675012D01*
X167497600Y-90675012D01*
X167506441Y-90719462D01*
X167506442Y-90719464D01*
X167540126Y-90769873D01*
X167590535Y-90803557D01*
X167590537Y-90803558D01*
X167634987Y-90812400D01*
X168073800Y-90812400D01*
X168226200Y-90812400D01*
X168665013Y-90812400D01*
X168709462Y-90803558D01*
X168709464Y-90803557D01*
X168759873Y-90769873D01*
X168793557Y-90719464D01*
X168793558Y-90719462D01*
X168802400Y-90675012D01*
X168802400Y-89636200D01*
X168226200Y-89636200D01*
X168226200Y-90812400D01*
X168073800Y-90812400D01*
X168073800Y-89636200D01*
X167497600Y-89636200D01*
X167497600Y-90675012D01*
X167014313Y-90675012D01*
X167056089Y-90633236D01*
X167114673Y-90531766D01*
X167114674Y-90531764D01*
X167145000Y-90418585D01*
X167145000Y-90301415D01*
X167114674Y-90188236D01*
X167114673Y-90188235D01*
X167114673Y-90188233D01*
X167056089Y-90086763D01*
X166973236Y-90003910D01*
X166871766Y-89945326D01*
X166826492Y-89933195D01*
X166758585Y-89915000D01*
X166641415Y-89915000D01*
X166584825Y-89930163D01*
X166528233Y-89945326D01*
X166426763Y-90003910D01*
X166343910Y-90086763D01*
X166285326Y-90188233D01*
X166276049Y-90222858D01*
X166255000Y-90301415D01*
X166255000Y-90418585D01*
X166258497Y-90431639D01*
X166254014Y-90482881D01*
X166217641Y-90519254D01*
X166185860Y-90526300D01*
X164449481Y-90526300D01*
X164374613Y-90557311D01*
X164374612Y-90557312D01*
X164374610Y-90557313D01*
X164353127Y-90578797D01*
X164317311Y-90614613D01*
X163634615Y-91297308D01*
X163634614Y-91297310D01*
X163634613Y-91297311D01*
X163589235Y-91342689D01*
X163582074Y-91349850D01*
X163535453Y-91371589D01*
X163485766Y-91358275D01*
X163456262Y-91316138D01*
X163453700Y-91296675D01*
X163453700Y-90578797D01*
X163471293Y-90530459D01*
X163515842Y-90504739D01*
X163563531Y-90513148D01*
X163563681Y-90512788D01*
X163565307Y-90513461D01*
X163566500Y-90513672D01*
X163568236Y-90514674D01*
X163681415Y-90545000D01*
X163681418Y-90545000D01*
X163798582Y-90545000D01*
X163798585Y-90545000D01*
X163911764Y-90514674D01*
X164013236Y-90456089D01*
X164096089Y-90373236D01*
X164123309Y-90326089D01*
X164154673Y-90271766D01*
X164155841Y-90267407D01*
X164185000Y-90158585D01*
X164185000Y-90041415D01*
X164154674Y-89928236D01*
X164154673Y-89928235D01*
X164154673Y-89928233D01*
X164096089Y-89826763D01*
X164013236Y-89743910D01*
X163911765Y-89685326D01*
X163898317Y-89681723D01*
X163801746Y-89655847D01*
X163759611Y-89626343D01*
X163746297Y-89576656D01*
X163768034Y-89530039D01*
X164853087Y-88444987D01*
X167497600Y-88444987D01*
X167497600Y-89483800D01*
X168073800Y-89483800D01*
X168226200Y-89483800D01*
X168802400Y-89483800D01*
X168802400Y-88444987D01*
X168793558Y-88400537D01*
X168793557Y-88400535D01*
X168759873Y-88350126D01*
X168709464Y-88316442D01*
X168709462Y-88316441D01*
X168665013Y-88307600D01*
X168226200Y-88307600D01*
X168226200Y-89483800D01*
X168073800Y-89483800D01*
X168073800Y-88307600D01*
X167634987Y-88307600D01*
X167590537Y-88316441D01*
X167590535Y-88316442D01*
X167540126Y-88350126D01*
X167506442Y-88400535D01*
X167506441Y-88400537D01*
X167497600Y-88444987D01*
X164853087Y-88444987D01*
X165055385Y-88242689D01*
X165055387Y-88242689D01*
X165112689Y-88185387D01*
X165121772Y-88163458D01*
X165143701Y-88110519D01*
X165143701Y-88029481D01*
X165143701Y-88023426D01*
X165143700Y-88023412D01*
X165143700Y-87751415D01*
X166255000Y-87751415D01*
X166255000Y-87868585D01*
X166267729Y-87916089D01*
X166285326Y-87981766D01*
X166343910Y-88083236D01*
X166426763Y-88166089D01*
X166528233Y-88224673D01*
X166528235Y-88224673D01*
X166528236Y-88224674D01*
X166641415Y-88255000D01*
X166641418Y-88255000D01*
X166758582Y-88255000D01*
X166758585Y-88255000D01*
X166871764Y-88224674D01*
X166973236Y-88166089D01*
X167056089Y-88083236D01*
X167090620Y-88023426D01*
X167114673Y-87981766D01*
X167114674Y-87981764D01*
X167145000Y-87868585D01*
X167145000Y-87751415D01*
X167114674Y-87638236D01*
X167114673Y-87638235D01*
X167114673Y-87638233D01*
X167056089Y-87536763D01*
X166973236Y-87453910D01*
X166871766Y-87395326D01*
X166826492Y-87383195D01*
X166758585Y-87365000D01*
X166641415Y-87365000D01*
X166584825Y-87380163D01*
X166528233Y-87395326D01*
X166426763Y-87453910D01*
X166343910Y-87536763D01*
X166285326Y-87638233D01*
X166267130Y-87706143D01*
X166255000Y-87751415D01*
X165143700Y-87751415D01*
X165143700Y-86763382D01*
X165161293Y-86715044D01*
X165205842Y-86689324D01*
X165256499Y-86698256D01*
X165328236Y-86739674D01*
X165441415Y-86770000D01*
X165441418Y-86770000D01*
X165558582Y-86770000D01*
X165558585Y-86770000D01*
X165671764Y-86739674D01*
X165773236Y-86681089D01*
X165856089Y-86598236D01*
X165914674Y-86496764D01*
X165945000Y-86383585D01*
X165945000Y-86266415D01*
X165914674Y-86153236D01*
X165914673Y-86153235D01*
X165914673Y-86153233D01*
X165856089Y-86051763D01*
X165773236Y-85968910D01*
X165671766Y-85910326D01*
X165626492Y-85898195D01*
X165558585Y-85880000D01*
X165441415Y-85880000D01*
X165384825Y-85895163D01*
X165328233Y-85910326D01*
X165256500Y-85951742D01*
X165205841Y-85960674D01*
X165161293Y-85934954D01*
X165143700Y-85886617D01*
X165143700Y-83859482D01*
X165143700Y-83859481D01*
X165112689Y-83784613D01*
X165055387Y-83727311D01*
X165055386Y-83727310D01*
X164705726Y-83377650D01*
X164683986Y-83331030D01*
X164683700Y-83324476D01*
X164683700Y-81468558D01*
X164701293Y-81420220D01*
X164745842Y-81394500D01*
X164796500Y-81403433D01*
X164815276Y-81419899D01*
X164815425Y-81419751D01*
X164817682Y-81422008D01*
X164818560Y-81422778D01*
X164818916Y-81423242D01*
X164901763Y-81506089D01*
X165003233Y-81564673D01*
X165003235Y-81564673D01*
X165003236Y-81564674D01*
X165116415Y-81595000D01*
X165116418Y-81595000D01*
X165233582Y-81595000D01*
X165233585Y-81595000D01*
X165346764Y-81564674D01*
X165346765Y-81564673D01*
X165351525Y-81563398D01*
X165352262Y-81566151D01*
X165393381Y-81564166D01*
X165434335Y-81595291D01*
X165446300Y-81635989D01*
X165446300Y-82290347D01*
X165428707Y-82338685D01*
X165408700Y-82355472D01*
X165376763Y-82373910D01*
X165293910Y-82456763D01*
X165235326Y-82558233D01*
X165221471Y-82609944D01*
X165205000Y-82671415D01*
X165205000Y-82788585D01*
X165223195Y-82856492D01*
X165235326Y-82901766D01*
X165293910Y-83003236D01*
X165376763Y-83086089D01*
X165478233Y-83144673D01*
X165478235Y-83144673D01*
X165478236Y-83144674D01*
X165591415Y-83175000D01*
X165591418Y-83175000D01*
X165708582Y-83175000D01*
X165708585Y-83175000D01*
X165821764Y-83144674D01*
X165892368Y-83103911D01*
X165923236Y-83086089D01*
X166006089Y-83003236D01*
X166064673Y-82901766D01*
X166074232Y-82866091D01*
X166095000Y-82788585D01*
X166095000Y-82671415D01*
X166064674Y-82558236D01*
X166064673Y-82558235D01*
X166064673Y-82558233D01*
X166006089Y-82456763D01*
X165923236Y-82373910D01*
X165891300Y-82355472D01*
X165858235Y-82316067D01*
X165853700Y-82290347D01*
X165853700Y-80599837D01*
X165853700Y-80590521D01*
X165853701Y-80590519D01*
X165853701Y-80509482D01*
X165852267Y-80506020D01*
X165852101Y-80495137D01*
X165858425Y-80476900D01*
X165861360Y-80457823D01*
X165866649Y-80453184D01*
X165868954Y-80446537D01*
X165885521Y-80436630D01*
X165900032Y-80423904D01*
X165908518Y-80422880D01*
X165913104Y-80420139D01*
X165920887Y-80421389D01*
X165937112Y-80419433D01*
X165941413Y-80419999D01*
X165941415Y-80420000D01*
X165941417Y-80420000D01*
X166058582Y-80420000D01*
X166058585Y-80420000D01*
X166171764Y-80389674D01*
X166193178Y-80377311D01*
X166273236Y-80331089D01*
X166317926Y-80286400D01*
X166364546Y-80264660D01*
X166414233Y-80277974D01*
X166443738Y-80320111D01*
X166446300Y-80339574D01*
X166446300Y-83450347D01*
X166428707Y-83498685D01*
X166408700Y-83515472D01*
X166376763Y-83533910D01*
X166293910Y-83616763D01*
X166235326Y-83718233D01*
X166226523Y-83751089D01*
X166205000Y-83831415D01*
X166205000Y-83948585D01*
X166214590Y-83984375D01*
X166235326Y-84061766D01*
X166293910Y-84163236D01*
X166376763Y-84246089D01*
X166478233Y-84304673D01*
X166478235Y-84304673D01*
X166478236Y-84304674D01*
X166591415Y-84335000D01*
X166591418Y-84335000D01*
X166708582Y-84335000D01*
X166708585Y-84335000D01*
X166821764Y-84304674D01*
X166923236Y-84246089D01*
X167006089Y-84163236D01*
X167046114Y-84093911D01*
X167064673Y-84061766D01*
X167064674Y-84061764D01*
X167095000Y-83948585D01*
X167095000Y-83831415D01*
X167064674Y-83718236D01*
X167064673Y-83718235D01*
X167064673Y-83718233D01*
X167006089Y-83616763D01*
X166923236Y-83533910D01*
X166891300Y-83515472D01*
X166858235Y-83476067D01*
X166853700Y-83450347D01*
X166853700Y-79499279D01*
X166853701Y-79499270D01*
X166853701Y-79409483D01*
X166822689Y-79334614D01*
X166822689Y-79334613D01*
X166761100Y-79273024D01*
X166761093Y-79273018D01*
X166244918Y-78756843D01*
X166223178Y-78710223D01*
X166225454Y-78684208D01*
X166235000Y-78648585D01*
X166235000Y-78531415D01*
X166204674Y-78418236D01*
X166204673Y-78418235D01*
X166204673Y-78418233D01*
X166146089Y-78316763D01*
X166063236Y-78233910D01*
X165961766Y-78175326D01*
X165916492Y-78163195D01*
X165848585Y-78145000D01*
X165731415Y-78145000D01*
X165674825Y-78160163D01*
X165618233Y-78175326D01*
X165516763Y-78233910D01*
X165502074Y-78248600D01*
X165455454Y-78270340D01*
X165405767Y-78257026D01*
X165376262Y-78214889D01*
X165373700Y-78195426D01*
X165373700Y-77889482D01*
X165373700Y-77889481D01*
X165342689Y-77814613D01*
X165342685Y-77814609D01*
X165342684Y-77814607D01*
X165281108Y-77753031D01*
X165281093Y-77753018D01*
X164683266Y-77155191D01*
X164683265Y-77155189D01*
X164683265Y-77155190D01*
X164672689Y-77144613D01*
X164615387Y-77087311D01*
X164540519Y-77056300D01*
X164540518Y-77056300D01*
X164275523Y-77056300D01*
X164227185Y-77038707D01*
X164222349Y-77034274D01*
X163984918Y-76796843D01*
X163963178Y-76750223D01*
X163965454Y-76724208D01*
X163975000Y-76688585D01*
X163975000Y-76571415D01*
X163944674Y-76458236D01*
X163944673Y-76458235D01*
X163944673Y-76458233D01*
X163886089Y-76356763D01*
X163803236Y-76273910D01*
X163701766Y-76215326D01*
X163644566Y-76200000D01*
X163588585Y-76185000D01*
X163471415Y-76185000D01*
X163415434Y-76200000D01*
X163358233Y-76215326D01*
X163256763Y-76273910D01*
X163173910Y-76356763D01*
X163115326Y-76458233D01*
X163097130Y-76526143D01*
X163085000Y-76571415D01*
X163085000Y-76688585D01*
X163093126Y-76718911D01*
X163115326Y-76801766D01*
X163173910Y-76903236D01*
X163256763Y-76986089D01*
X163358233Y-77044673D01*
X163358235Y-77044673D01*
X163358236Y-77044674D01*
X163471415Y-77075000D01*
X163471418Y-77075000D01*
X163588585Y-77075000D01*
X163624206Y-77065455D01*
X163675448Y-77069937D01*
X163696843Y-77084918D01*
X163987310Y-77375385D01*
X163987311Y-77375387D01*
X164044613Y-77432689D01*
X164075625Y-77445534D01*
X164084954Y-77449398D01*
X164084955Y-77449399D01*
X164103943Y-77457264D01*
X164119482Y-77463701D01*
X164209271Y-77463701D01*
X164209279Y-77463700D01*
X164384477Y-77463700D01*
X164432815Y-77481293D01*
X164437651Y-77485726D01*
X164944274Y-77992349D01*
X164966014Y-78038969D01*
X164966300Y-78045523D01*
X164966300Y-80110519D01*
X164997311Y-80185387D01*
X165054613Y-80242689D01*
X165054614Y-80242689D01*
X165065190Y-80253265D01*
X165422185Y-80610260D01*
X165443925Y-80656880D01*
X165430611Y-80706567D01*
X165388474Y-80736072D01*
X165349548Y-80736072D01*
X165346764Y-80735326D01*
X165233585Y-80705000D01*
X165116415Y-80705000D01*
X165059825Y-80720163D01*
X165003233Y-80735326D01*
X164901763Y-80793910D01*
X164818911Y-80876762D01*
X164818555Y-80877227D01*
X164818257Y-80877416D01*
X164815425Y-80880249D01*
X164814796Y-80879620D01*
X164775167Y-80904860D01*
X164724168Y-80898140D01*
X164689421Y-80860210D01*
X164683700Y-80831441D01*
X164683700Y-78249482D01*
X164683335Y-78248600D01*
X164652689Y-78174613D01*
X164652685Y-78174609D01*
X164652684Y-78174607D01*
X164591108Y-78113031D01*
X164591093Y-78113018D01*
X164513266Y-78035191D01*
X164513265Y-78035189D01*
X164513265Y-78035190D01*
X164502689Y-78024613D01*
X164445387Y-77967311D01*
X164370519Y-77936300D01*
X164370517Y-77936299D01*
X164365205Y-77935243D01*
X164321228Y-77908557D01*
X164314755Y-77899095D01*
X164296089Y-77866764D01*
X164296088Y-77866762D01*
X164213236Y-77783910D01*
X164111766Y-77725326D01*
X164066492Y-77713195D01*
X163998585Y-77695000D01*
X163881415Y-77695000D01*
X163824825Y-77710163D01*
X163768233Y-77725326D01*
X163666763Y-77783910D01*
X163583908Y-77866765D01*
X163566209Y-77897421D01*
X163526803Y-77930485D01*
X163475364Y-77930484D01*
X163435959Y-77897419D01*
X163427028Y-77846760D01*
X163428444Y-77840369D01*
X163445000Y-77778585D01*
X163445000Y-77661415D01*
X163414674Y-77548236D01*
X163414673Y-77548235D01*
X163414673Y-77548233D01*
X163356089Y-77446763D01*
X163273236Y-77363910D01*
X163171766Y-77305326D01*
X163126492Y-77293195D01*
X163058585Y-77275000D01*
X162941415Y-77275000D01*
X162884825Y-77290163D01*
X162828233Y-77305326D01*
X162726763Y-77363910D01*
X162643910Y-77446763D01*
X162585326Y-77548233D01*
X162567130Y-77616143D01*
X162555000Y-77661415D01*
X162555000Y-77778585D01*
X162564654Y-77814613D01*
X162585326Y-77891766D01*
X162643910Y-77993236D01*
X162726763Y-78076089D01*
X162828233Y-78134673D01*
X162828235Y-78134673D01*
X162828236Y-78134674D01*
X162941415Y-78165000D01*
X162941418Y-78165000D01*
X163058582Y-78165000D01*
X163058585Y-78165000D01*
X163171764Y-78134674D01*
X163273236Y-78076089D01*
X163356089Y-77993236D01*
X163373788Y-77962579D01*
X163413193Y-77929514D01*
X163464633Y-77929514D01*
X163504039Y-77962578D01*
X163512972Y-78013236D01*
X163511552Y-78019641D01*
X163495000Y-78081415D01*
X163495000Y-78198585D01*
X163508638Y-78249482D01*
X163525326Y-78311766D01*
X163583910Y-78413236D01*
X163666763Y-78496089D01*
X163768233Y-78554673D01*
X163768235Y-78554673D01*
X163768236Y-78554674D01*
X163881415Y-78585000D01*
X163881418Y-78585000D01*
X163998582Y-78585000D01*
X163998585Y-78585000D01*
X164111764Y-78554674D01*
X164163500Y-78524803D01*
X164214158Y-78515871D01*
X164258706Y-78541591D01*
X164276300Y-78589928D01*
X164276300Y-83480519D01*
X164307311Y-83555387D01*
X164364613Y-83612689D01*
X164364614Y-83612689D01*
X164375190Y-83623265D01*
X164714274Y-83962349D01*
X164736014Y-84008969D01*
X164736300Y-84015523D01*
X164736300Y-87533606D01*
X164718707Y-87581944D01*
X164674158Y-87607664D01*
X164623500Y-87598731D01*
X164595975Y-87571206D01*
X164576089Y-87536763D01*
X164493236Y-87453910D01*
X164391766Y-87395326D01*
X164346492Y-87383195D01*
X164278585Y-87365000D01*
X164161415Y-87365000D01*
X164104825Y-87380163D01*
X164048233Y-87395326D01*
X163946763Y-87453910D01*
X163863910Y-87536763D01*
X163805326Y-87638233D01*
X163787130Y-87706143D01*
X163775000Y-87751415D01*
X163775000Y-87751417D01*
X163775000Y-87868584D01*
X163786657Y-87912095D01*
X163782172Y-87963339D01*
X163767193Y-87984730D01*
X163087118Y-88664806D01*
X162634614Y-89117310D01*
X162634613Y-89117311D01*
X162605963Y-89145961D01*
X162577313Y-89174610D01*
X162577312Y-89174612D01*
X162577311Y-89174613D01*
X162571525Y-89188582D01*
X162546300Y-89249482D01*
X162546300Y-90626976D01*
X162528707Y-90675314D01*
X162484158Y-90701034D01*
X162433501Y-90692102D01*
X162421765Y-90685326D01*
X162383271Y-90675012D01*
X162308585Y-90655000D01*
X162191415Y-90655000D01*
X162134825Y-90670163D01*
X162078233Y-90685326D01*
X161976763Y-90743910D01*
X161893910Y-90826763D01*
X161835326Y-90928233D01*
X161804998Y-91041424D01*
X161804714Y-91043580D01*
X161804109Y-91044740D01*
X161803725Y-91046176D01*
X161803406Y-91046090D01*
X161780955Y-91089205D01*
X161733428Y-91108883D01*
X161692559Y-91098879D01*
X161651765Y-91075326D01*
X161614443Y-91065326D01*
X161538585Y-91045000D01*
X161421415Y-91045000D01*
X161375742Y-91057238D01*
X161308233Y-91075326D01*
X161206763Y-91133910D01*
X161123910Y-91216763D01*
X161094025Y-91268527D01*
X161088828Y-91272887D01*
X161086507Y-91279265D01*
X161069584Y-91289034D01*
X161054620Y-91301592D01*
X161047835Y-91301592D01*
X161041958Y-91304985D01*
X161022717Y-91301592D01*
X161003180Y-91301592D01*
X160997981Y-91297230D01*
X160991300Y-91296052D01*
X160978741Y-91281085D01*
X160963775Y-91268527D01*
X160961697Y-91260773D01*
X160958235Y-91256647D01*
X160953700Y-91230927D01*
X160953700Y-91169652D01*
X160971293Y-91121314D01*
X160991301Y-91104527D01*
X161023231Y-91086092D01*
X161023231Y-91086091D01*
X161023236Y-91086089D01*
X161106089Y-91003236D01*
X161164674Y-90901764D01*
X161195000Y-90788585D01*
X161195000Y-90671415D01*
X161164674Y-90558236D01*
X161164673Y-90558234D01*
X161164673Y-90558233D01*
X161106089Y-90456763D01*
X161023236Y-90373910D01*
X160921766Y-90315326D01*
X160876492Y-90303195D01*
X160808585Y-90285000D01*
X160691415Y-90285000D01*
X160634825Y-90300163D01*
X160578233Y-90315326D01*
X160476763Y-90373910D01*
X160393910Y-90456763D01*
X160335326Y-90558234D01*
X160322638Y-90605590D01*
X160293133Y-90647727D01*
X160243446Y-90661041D01*
X160196826Y-90639302D01*
X160177362Y-90605590D01*
X160164673Y-90558234D01*
X160106089Y-90456763D01*
X160023236Y-90373910D01*
X159921766Y-90315326D01*
X159876492Y-90303195D01*
X159808585Y-90285000D01*
X159712227Y-90285000D01*
X159663889Y-90267407D01*
X159638169Y-90222858D01*
X159647102Y-90172200D01*
X159664673Y-90141765D01*
X159664674Y-90141764D01*
X159695000Y-90028585D01*
X159695000Y-89911415D01*
X159664674Y-89798236D01*
X159664673Y-89798235D01*
X159664673Y-89798233D01*
X159606089Y-89696763D01*
X159523236Y-89613910D01*
X159421766Y-89555326D01*
X159376492Y-89543195D01*
X159308585Y-89525000D01*
X159191415Y-89525000D01*
X159134825Y-89540163D01*
X159078233Y-89555326D01*
X158976763Y-89613910D01*
X158893910Y-89696763D01*
X158835327Y-89798233D01*
X158835326Y-89798235D01*
X158835326Y-89798236D01*
X158819958Y-89855591D01*
X158790453Y-89897727D01*
X158740766Y-89911041D01*
X158694145Y-89889301D01*
X158674683Y-89855591D01*
X158664674Y-89818236D01*
X158653125Y-89798233D01*
X158606089Y-89716763D01*
X158523236Y-89633910D01*
X158421766Y-89575326D01*
X158376492Y-89563195D01*
X158308585Y-89545000D01*
X158191415Y-89545000D01*
X158134825Y-89560163D01*
X158078233Y-89575326D01*
X157976763Y-89633910D01*
X157893910Y-89716763D01*
X157835326Y-89818234D01*
X157833041Y-89826763D01*
X157825318Y-89855589D01*
X157822638Y-89865590D01*
X157793133Y-89907727D01*
X157743446Y-89921041D01*
X157696826Y-89899302D01*
X157677362Y-89865590D01*
X157674683Y-89855591D01*
X157664674Y-89818236D01*
X157653125Y-89798233D01*
X157606089Y-89716763D01*
X157523236Y-89633910D01*
X157421766Y-89575326D01*
X157376492Y-89563195D01*
X157308585Y-89545000D01*
X157191415Y-89545000D01*
X157134825Y-89560163D01*
X157078233Y-89575326D01*
X156976763Y-89633910D01*
X156893910Y-89716763D01*
X156835326Y-89818234D01*
X156833041Y-89826763D01*
X156825318Y-89855589D01*
X156822638Y-89865590D01*
X156793133Y-89907727D01*
X156743446Y-89921041D01*
X156696826Y-89899302D01*
X156677362Y-89865590D01*
X156674683Y-89855591D01*
X156664674Y-89818236D01*
X156653125Y-89798233D01*
X156606089Y-89716763D01*
X156523236Y-89633910D01*
X156421766Y-89575326D01*
X156376492Y-89563195D01*
X156308585Y-89545000D01*
X156191415Y-89545000D01*
X156134825Y-89560163D01*
X156078233Y-89575326D01*
X155976763Y-89633910D01*
X155893910Y-89716763D01*
X155835326Y-89818233D01*
X155817130Y-89886143D01*
X155805000Y-89931415D01*
X155805000Y-90048585D01*
X155815230Y-90086763D01*
X155835326Y-90161765D01*
X155841351Y-90172200D01*
X155850284Y-90222858D01*
X155824564Y-90267406D01*
X155776226Y-90285000D01*
X155691415Y-90285000D01*
X155634825Y-90300163D01*
X155578233Y-90315326D01*
X155476763Y-90373910D01*
X155393910Y-90456763D01*
X155335326Y-90558233D01*
X155320220Y-90614613D01*
X155305000Y-90671415D01*
X155305000Y-90788585D01*
X155315230Y-90826763D01*
X155335326Y-90901766D01*
X155393910Y-91003236D01*
X155476759Y-91086085D01*
X155476768Y-91086092D01*
X155508699Y-91104527D01*
X155541765Y-91143932D01*
X155546300Y-91169652D01*
X155546300Y-91941574D01*
X155528707Y-91989912D01*
X155484158Y-92015632D01*
X155456429Y-92015329D01*
X155415058Y-92007100D01*
X155084944Y-92007100D01*
X155084942Y-92007101D01*
X155040340Y-92015972D01*
X155033496Y-92018807D01*
X155032830Y-92017201D01*
X154991812Y-92027238D01*
X154966783Y-92018128D01*
X154966502Y-92018807D01*
X154959659Y-92015973D01*
X154959658Y-92015972D01*
X154915057Y-92007100D01*
X154584944Y-92007100D01*
X154584942Y-92007101D01*
X154540340Y-92015972D01*
X154489767Y-92049764D01*
X154455972Y-92100342D01*
X154455971Y-92100343D01*
X154447100Y-92144942D01*
X154447100Y-92765913D01*
X154429507Y-92814251D01*
X154425074Y-92819087D01*
X153941188Y-93302974D01*
X153894568Y-93324714D01*
X153888014Y-93325000D01*
X153811415Y-93325000D01*
X153754825Y-93340163D01*
X153698233Y-93355326D01*
X153596763Y-93413910D01*
X153513910Y-93496763D01*
X153455326Y-93598233D01*
X153442911Y-93644568D01*
X153425000Y-93711415D01*
X153425000Y-93828585D01*
X153434563Y-93864274D01*
X153455326Y-93941766D01*
X153513910Y-94043236D01*
X153596763Y-94126089D01*
X153698233Y-94184673D01*
X153698235Y-94184673D01*
X153698236Y-94184674D01*
X153811415Y-94215000D01*
X153811418Y-94215000D01*
X153928582Y-94215000D01*
X153928585Y-94215000D01*
X154041764Y-94184674D01*
X154051918Y-94178812D01*
X154143236Y-94126089D01*
X154226089Y-94043236D01*
X154284673Y-93941766D01*
X154286959Y-93933236D01*
X154315000Y-93828585D01*
X154315000Y-93751986D01*
X154320614Y-93736560D01*
X154322045Y-93720205D01*
X154331461Y-93706757D01*
X154332593Y-93703648D01*
X154337015Y-93698822D01*
X154431643Y-93604193D01*
X154478261Y-93582455D01*
X154526593Y-93594841D01*
X154540342Y-93604028D01*
X154584943Y-93612900D01*
X154915056Y-93612899D01*
X154951294Y-93605691D01*
X155002132Y-93613516D01*
X155035436Y-93650666D01*
X155055778Y-93699775D01*
X155055780Y-93699777D01*
X155055782Y-93699780D01*
X155730223Y-94374221D01*
X155730225Y-94374222D01*
X155777332Y-94393734D01*
X155787719Y-94398036D01*
X155787720Y-94398037D01*
X155798783Y-94402619D01*
X155814429Y-94409100D01*
X155814430Y-94409100D01*
X155905570Y-94409100D01*
X156816913Y-94409100D01*
X156865251Y-94426693D01*
X156885705Y-94453923D01*
X156914172Y-94518396D01*
X156914173Y-94518397D01*
X156914175Y-94518400D01*
X156991599Y-94595824D01*
X156991601Y-94595825D01*
X156991604Y-94595828D01*
X157091779Y-94640059D01*
X157116266Y-94642900D01*
X157116268Y-94642900D01*
X157483732Y-94642900D01*
X157483734Y-94642900D01*
X157508221Y-94640059D01*
X157608396Y-94595828D01*
X157685828Y-94518396D01*
X157730059Y-94418221D01*
X157730059Y-94418216D01*
X157731479Y-94415002D01*
X157767098Y-94377889D01*
X157818239Y-94372354D01*
X157860973Y-94400987D01*
X157869064Y-94415001D01*
X157914589Y-94518104D01*
X157914594Y-94518111D01*
X157991888Y-94595405D01*
X157991891Y-94595407D01*
X158091896Y-94639564D01*
X158116342Y-94642399D01*
X158223800Y-94642399D01*
X158376200Y-94642399D01*
X158483651Y-94642399D01*
X158508108Y-94639563D01*
X158608104Y-94595410D01*
X158608111Y-94595405D01*
X158685405Y-94518111D01*
X158685407Y-94518108D01*
X158729564Y-94418103D01*
X158732400Y-94393657D01*
X158732400Y-94393650D01*
X159107601Y-94393650D01*
X159110436Y-94418108D01*
X159154589Y-94518104D01*
X159154594Y-94518111D01*
X159231888Y-94595405D01*
X159231891Y-94595407D01*
X159331896Y-94639564D01*
X159356342Y-94642399D01*
X159463800Y-94642399D01*
X159463800Y-94256200D01*
X159107601Y-94256200D01*
X159107601Y-94393650D01*
X158732400Y-94393650D01*
X158732400Y-94256200D01*
X158376200Y-94256200D01*
X158376200Y-94642399D01*
X158223800Y-94642399D01*
X158223800Y-94255200D01*
X158230482Y-94236840D01*
X158233875Y-94217600D01*
X158239071Y-94213239D01*
X158241393Y-94206862D01*
X158258315Y-94197092D01*
X158273280Y-94184535D01*
X158283048Y-94182812D01*
X158285942Y-94181142D01*
X158299000Y-94180000D01*
X158300000Y-94180000D01*
X158300000Y-94179000D01*
X158317593Y-94130662D01*
X158362142Y-94104942D01*
X158375200Y-94103800D01*
X158732399Y-94103800D01*
X158732399Y-93966349D01*
X158729563Y-93941891D01*
X158685410Y-93841895D01*
X158685405Y-93841888D01*
X158608111Y-93764594D01*
X158608105Y-93764590D01*
X158590669Y-93756891D01*
X158553557Y-93721271D01*
X158548023Y-93670130D01*
X158576658Y-93627397D01*
X158621042Y-93612899D01*
X158915056Y-93612899D01*
X158959658Y-93604028D01*
X158959660Y-93604026D01*
X158966503Y-93601193D01*
X158967097Y-93602627D01*
X159008623Y-93592460D01*
X159033383Y-93601470D01*
X159033693Y-93600723D01*
X159040537Y-93603558D01*
X159084987Y-93612400D01*
X159173800Y-93612400D01*
X159173800Y-92007600D01*
X159084985Y-92007600D01*
X159043570Y-92015838D01*
X158992729Y-92008013D01*
X158958813Y-91969338D01*
X158953700Y-91942083D01*
X158953700Y-91343324D01*
X158961441Y-91322054D01*
X158967299Y-91300192D01*
X158970116Y-91298219D01*
X158971293Y-91294986D01*
X158990901Y-91283665D01*
X159009436Y-91270687D01*
X159012861Y-91270986D01*
X159015842Y-91269266D01*
X159038134Y-91273197D01*
X159060680Y-91275169D01*
X159064504Y-91277847D01*
X159066500Y-91278199D01*
X159082069Y-91290145D01*
X159134613Y-91342689D01*
X159134614Y-91342689D01*
X159145191Y-91353266D01*
X159524274Y-91732349D01*
X159546014Y-91778969D01*
X159546300Y-91785523D01*
X159546300Y-91942083D01*
X159528707Y-91990421D01*
X159484158Y-92016141D01*
X159456430Y-92015838D01*
X159415014Y-92007600D01*
X159326200Y-92007600D01*
X159326200Y-93613473D01*
X159347003Y-93658084D01*
X159333689Y-93707771D01*
X159302464Y-93733430D01*
X159231895Y-93764589D01*
X159231888Y-93764594D01*
X159154594Y-93841888D01*
X159154592Y-93841891D01*
X159110435Y-93941896D01*
X159107600Y-93966342D01*
X159107600Y-94103800D01*
X159464800Y-94103800D01*
X159483159Y-94110482D01*
X159502400Y-94113875D01*
X159506760Y-94119071D01*
X159513138Y-94121393D01*
X159522907Y-94138315D01*
X159535465Y-94153280D01*
X159537187Y-94163048D01*
X159538858Y-94165942D01*
X159540000Y-94179000D01*
X159540000Y-94180000D01*
X159541000Y-94180000D01*
X159589338Y-94197593D01*
X159615058Y-94242142D01*
X159616200Y-94255200D01*
X159616200Y-94642399D01*
X159723651Y-94642399D01*
X159748108Y-94639563D01*
X159848104Y-94595410D01*
X159848111Y-94595405D01*
X159925405Y-94518111D01*
X159925407Y-94518108D01*
X159970934Y-94415000D01*
X160006553Y-94377888D01*
X160057694Y-94372353D01*
X160100428Y-94400986D01*
X160108520Y-94415001D01*
X160109940Y-94418218D01*
X160109941Y-94418221D01*
X160154172Y-94518396D01*
X160154173Y-94518397D01*
X160154175Y-94518400D01*
X160231599Y-94595824D01*
X160231601Y-94595825D01*
X160231604Y-94595828D01*
X160331779Y-94640059D01*
X160356266Y-94642900D01*
X160356268Y-94642900D01*
X160723732Y-94642900D01*
X160723734Y-94642900D01*
X160748221Y-94640059D01*
X160838410Y-94600236D01*
X160889734Y-94596807D01*
X160931256Y-94627171D01*
X160943546Y-94677121D01*
X160921958Y-94722203D01*
X160596087Y-95048074D01*
X160549468Y-95069814D01*
X160542914Y-95070100D01*
X155917086Y-95070100D01*
X155868748Y-95052507D01*
X155863912Y-95048074D01*
X155411866Y-94596027D01*
X155411860Y-94596023D01*
X155411522Y-94595828D01*
X155398373Y-94588236D01*
X155348038Y-94559175D01*
X155324308Y-94552816D01*
X155276850Y-94540100D01*
X155276848Y-94540100D01*
X153467086Y-94540100D01*
X153418748Y-94522507D01*
X153413912Y-94518074D01*
X153011926Y-94116088D01*
X152990186Y-94069468D01*
X152989900Y-94062914D01*
X152989900Y-92920573D01*
X153007493Y-92872235D01*
X153011915Y-92867409D01*
X153066089Y-92813236D01*
X153124674Y-92711764D01*
X153155000Y-92598585D01*
X153155000Y-92481415D01*
X153124674Y-92368236D01*
X153124673Y-92368235D01*
X153124673Y-92368233D01*
X153066089Y-92266763D01*
X152983236Y-92183910D01*
X152881766Y-92125326D01*
X152836492Y-92113195D01*
X152768585Y-92095000D01*
X152651415Y-92095000D01*
X152594825Y-92110163D01*
X152538233Y-92125326D01*
X152436763Y-92183910D01*
X152353910Y-92266763D01*
X152295326Y-92368233D01*
X152277130Y-92436143D01*
X152265000Y-92481415D01*
X152265000Y-92598585D01*
X152283195Y-92666492D01*
X152295326Y-92711766D01*
X152353909Y-92813234D01*
X152353910Y-92813235D01*
X152353911Y-92813236D01*
X152408074Y-92867399D01*
X152429814Y-92914018D01*
X152430100Y-92920573D01*
X152430100Y-94173150D01*
X152430100Y-94246850D01*
X152437786Y-94275534D01*
X152449175Y-94318038D01*
X152486023Y-94381860D01*
X152486027Y-94381866D01*
X153018306Y-94914144D01*
X153040046Y-94960764D01*
X153026732Y-95010451D01*
X153018307Y-95020492D01*
X153006200Y-95032599D01*
X153006200Y-95583800D01*
X153532399Y-95583800D01*
X153532399Y-95374189D01*
X153532398Y-95374184D01*
X153521712Y-95300826D01*
X153521711Y-95300824D01*
X153476394Y-95208128D01*
X153470970Y-95156975D01*
X153499695Y-95114303D01*
X153543953Y-95099900D01*
X153875490Y-95099900D01*
X153923828Y-95117493D01*
X153949548Y-95162042D01*
X153943049Y-95208126D01*
X153927246Y-95240450D01*
X153897801Y-95300681D01*
X153887100Y-95374126D01*
X153887100Y-95945858D01*
X153887101Y-95945863D01*
X153897801Y-96019317D01*
X153897802Y-96019319D01*
X153953195Y-96132627D01*
X154042373Y-96221805D01*
X154050926Y-96225986D01*
X154086626Y-96263021D01*
X154093100Y-96293546D01*
X154093100Y-96541900D01*
X154075507Y-96590238D01*
X154030958Y-96615958D01*
X154017900Y-96617100D01*
X153784944Y-96617100D01*
X153784942Y-96617101D01*
X153740340Y-96625972D01*
X153689767Y-96659764D01*
X153655972Y-96710342D01*
X153655971Y-96710343D01*
X153647100Y-96754942D01*
X153647100Y-98185055D01*
X153647101Y-98185057D01*
X153655972Y-98229658D01*
X153656280Y-98230119D01*
X153656449Y-98230811D01*
X153658807Y-98236504D01*
X153657931Y-98236866D01*
X153668508Y-98280084D01*
X153645759Y-98326220D01*
X153598676Y-98346939D01*
X153593755Y-98347100D01*
X153067965Y-98347100D01*
X153019627Y-98329507D01*
X152993907Y-98284958D01*
X153002840Y-98234300D01*
X153014791Y-98218726D01*
X153075405Y-98158111D01*
X153075407Y-98158108D01*
X153119564Y-98058103D01*
X153122400Y-98033657D01*
X153122400Y-97926200D01*
X152197601Y-97926200D01*
X152197601Y-98033650D01*
X152200436Y-98058108D01*
X152244589Y-98158104D01*
X152244594Y-98158111D01*
X152305209Y-98218726D01*
X152326949Y-98265346D01*
X152313635Y-98315033D01*
X152271498Y-98344538D01*
X152252035Y-98347100D01*
X151978100Y-98347100D01*
X151929762Y-98329507D01*
X151904042Y-98284958D01*
X151902900Y-98271900D01*
X151902900Y-96666268D01*
X152197100Y-96666268D01*
X152197100Y-97033731D01*
X152199940Y-97058219D01*
X152199941Y-97058221D01*
X152244172Y-97158396D01*
X152244173Y-97158397D01*
X152244175Y-97158400D01*
X152321599Y-97235824D01*
X152321601Y-97235825D01*
X152321604Y-97235828D01*
X152421779Y-97280059D01*
X152421781Y-97280059D01*
X152424997Y-97281479D01*
X152462110Y-97317098D01*
X152467645Y-97368239D01*
X152439012Y-97410973D01*
X152424999Y-97419064D01*
X152321894Y-97464590D01*
X152321888Y-97464594D01*
X152244594Y-97541888D01*
X152244592Y-97541891D01*
X152200435Y-97641896D01*
X152197600Y-97666342D01*
X152197600Y-97773800D01*
X153122399Y-97773800D01*
X153122399Y-97666349D01*
X153119563Y-97641891D01*
X153075410Y-97541895D01*
X153075405Y-97541888D01*
X152998111Y-97464594D01*
X152998104Y-97464589D01*
X152895000Y-97419064D01*
X152857887Y-97383445D01*
X152852353Y-97332304D01*
X152880987Y-97289570D01*
X152895001Y-97281479D01*
X152898215Y-97280059D01*
X152898221Y-97280059D01*
X152998396Y-97235828D01*
X153075828Y-97158396D01*
X153120059Y-97058221D01*
X153122900Y-97033734D01*
X153122900Y-96666266D01*
X153120059Y-96641779D01*
X153075828Y-96541604D01*
X153075825Y-96541601D01*
X153075824Y-96541599D01*
X152998400Y-96464175D01*
X152998397Y-96464173D01*
X152998396Y-96464172D01*
X152898221Y-96419941D01*
X152898219Y-96419940D01*
X152898214Y-96419939D01*
X152894109Y-96419463D01*
X152848123Y-96396412D01*
X152827713Y-96349195D01*
X152842428Y-96299905D01*
X152849609Y-96291590D01*
X152853800Y-96287399D01*
X153006200Y-96287399D01*
X153190811Y-96287399D01*
X153190815Y-96287398D01*
X153264173Y-96276712D01*
X153264175Y-96276711D01*
X153377332Y-96221391D01*
X153466391Y-96132332D01*
X153521712Y-96019174D01*
X153532399Y-95945825D01*
X153532400Y-95945813D01*
X153532400Y-95736200D01*
X153006200Y-95736200D01*
X153006200Y-96287399D01*
X152853800Y-96287399D01*
X152853800Y-95736200D01*
X152327601Y-95736200D01*
X152327601Y-95945815D01*
X152338287Y-96019173D01*
X152338288Y-96019175D01*
X152393608Y-96132332D01*
X152482667Y-96221391D01*
X152586871Y-96272334D01*
X152604264Y-96290378D01*
X152621994Y-96308105D01*
X152622058Y-96308839D01*
X152622570Y-96309370D01*
X152624295Y-96334378D01*
X152626483Y-96359348D01*
X152626060Y-96359951D01*
X152626111Y-96360688D01*
X152611361Y-96380949D01*
X152596983Y-96401489D01*
X152596114Y-96401894D01*
X152595837Y-96402275D01*
X152573314Y-96412529D01*
X152568085Y-96413930D01*
X152565825Y-96414536D01*
X152546356Y-96417100D01*
X152446266Y-96417100D01*
X152441176Y-96417690D01*
X152421780Y-96419940D01*
X152421779Y-96419941D01*
X152321604Y-96464172D01*
X152321599Y-96464175D01*
X152244175Y-96541599D01*
X152244172Y-96541604D01*
X152199941Y-96641779D01*
X152199940Y-96641780D01*
X152197100Y-96666268D01*
X151902900Y-96666268D01*
X151902900Y-95374174D01*
X152327600Y-95374174D01*
X152327600Y-95583800D01*
X152853800Y-95583800D01*
X152853800Y-95032600D01*
X152669189Y-95032600D01*
X152669184Y-95032601D01*
X152595826Y-95043287D01*
X152595824Y-95043288D01*
X152482667Y-95098608D01*
X152393608Y-95187667D01*
X152338287Y-95300825D01*
X152327600Y-95374174D01*
X151902900Y-95374174D01*
X151902900Y-90675012D01*
X152197600Y-90675012D01*
X152206441Y-90719462D01*
X152206442Y-90719464D01*
X152240126Y-90769873D01*
X152290535Y-90803557D01*
X152290537Y-90803558D01*
X152334987Y-90812400D01*
X152773800Y-90812400D01*
X152926200Y-90812400D01*
X153365013Y-90812400D01*
X153409462Y-90803558D01*
X153409464Y-90803557D01*
X153459873Y-90769873D01*
X153493557Y-90719464D01*
X153493558Y-90719462D01*
X153502400Y-90675012D01*
X153502400Y-89636200D01*
X152926200Y-89636200D01*
X152926200Y-90812400D01*
X152773800Y-90812400D01*
X152773800Y-89636200D01*
X152197600Y-89636200D01*
X152197600Y-90675012D01*
X151902900Y-90675012D01*
X151902900Y-88444987D01*
X152197600Y-88444987D01*
X152197600Y-89483800D01*
X152773800Y-89483800D01*
X152926200Y-89483800D01*
X153502400Y-89483800D01*
X153502400Y-88444987D01*
X153493558Y-88400537D01*
X153493557Y-88400535D01*
X153459873Y-88350126D01*
X153409464Y-88316442D01*
X153409462Y-88316441D01*
X153365013Y-88307600D01*
X152926200Y-88307600D01*
X152926200Y-89483800D01*
X152773800Y-89483800D01*
X152773800Y-88307600D01*
X152334987Y-88307600D01*
X152290537Y-88316441D01*
X152290535Y-88316442D01*
X152240126Y-88350126D01*
X152206442Y-88400535D01*
X152206441Y-88400537D01*
X152197600Y-88444987D01*
X151902900Y-88444987D01*
X151902900Y-85603099D01*
X151920493Y-85554761D01*
X151965042Y-85529041D01*
X151978100Y-85527899D01*
X152121100Y-85527899D01*
X152169438Y-85545492D01*
X152195158Y-85590041D01*
X152196300Y-85603099D01*
X152196300Y-86130519D01*
X152227311Y-86205387D01*
X152284613Y-86262689D01*
X152284614Y-86262689D01*
X152295190Y-86273265D01*
X152295191Y-86273266D01*
X155324607Y-89302684D01*
X155324609Y-89302685D01*
X155324613Y-89302689D01*
X155399481Y-89333700D01*
X155480518Y-89333700D01*
X160650347Y-89333700D01*
X160698685Y-89351293D01*
X160715472Y-89371300D01*
X160733910Y-89403236D01*
X160816763Y-89486089D01*
X160918233Y-89544673D01*
X160918235Y-89544673D01*
X160918236Y-89544674D01*
X161031415Y-89575000D01*
X161031418Y-89575000D01*
X161148582Y-89575000D01*
X161148585Y-89575000D01*
X161261764Y-89544674D01*
X161287120Y-89530035D01*
X161363236Y-89486089D01*
X161446089Y-89403236D01*
X161504673Y-89301766D01*
X161504674Y-89301764D01*
X161535000Y-89188585D01*
X161535000Y-89071415D01*
X161504674Y-88958236D01*
X161486236Y-88926300D01*
X161457484Y-88876500D01*
X161448551Y-88825842D01*
X161474271Y-88781293D01*
X161522609Y-88763700D01*
X162360517Y-88763700D01*
X162360519Y-88763700D01*
X162435387Y-88732689D01*
X162492689Y-88675387D01*
X162492689Y-88675386D01*
X162503265Y-88664810D01*
X162503266Y-88664808D01*
X162803156Y-88364917D01*
X162849775Y-88343178D01*
X162875787Y-88345453D01*
X162911415Y-88355000D01*
X162911418Y-88355000D01*
X163028582Y-88355000D01*
X163028585Y-88355000D01*
X163141764Y-88324674D01*
X163243236Y-88266089D01*
X163326089Y-88183236D01*
X163384674Y-88081764D01*
X163415000Y-87968585D01*
X163415000Y-87851415D01*
X163384674Y-87738236D01*
X163384673Y-87738235D01*
X163384673Y-87738233D01*
X163326089Y-87636763D01*
X163243236Y-87553910D01*
X163141766Y-87495326D01*
X163096492Y-87483195D01*
X163028585Y-87465000D01*
X162911415Y-87465000D01*
X162854825Y-87480163D01*
X162798233Y-87495326D01*
X162696763Y-87553910D01*
X162613910Y-87636763D01*
X162555326Y-87738233D01*
X162551794Y-87751417D01*
X162525000Y-87851415D01*
X162525000Y-87968585D01*
X162527916Y-87979468D01*
X162534544Y-88004207D01*
X162530060Y-88055451D01*
X162515081Y-88076842D01*
X162257651Y-88334274D01*
X162211030Y-88356014D01*
X162204476Y-88356300D01*
X155385523Y-88356300D01*
X155337185Y-88338707D01*
X155332349Y-88334274D01*
X154499490Y-87501415D01*
X155305000Y-87501415D01*
X155305000Y-87618585D01*
X155323195Y-87686492D01*
X155335326Y-87731766D01*
X155393910Y-87833236D01*
X155476763Y-87916089D01*
X155578233Y-87974673D01*
X155578235Y-87974673D01*
X155578236Y-87974674D01*
X155691415Y-88005000D01*
X155691418Y-88005000D01*
X155808582Y-88005000D01*
X155808585Y-88005000D01*
X155921764Y-87974674D01*
X155932311Y-87968585D01*
X156023236Y-87916089D01*
X156106089Y-87833236D01*
X156164673Y-87731766D01*
X156164674Y-87731764D01*
X156195000Y-87618585D01*
X156195000Y-87501415D01*
X156164674Y-87388236D01*
X156164673Y-87388235D01*
X156164673Y-87388233D01*
X156106089Y-87286763D01*
X156023236Y-87203910D01*
X155921766Y-87145326D01*
X155876492Y-87133195D01*
X155808585Y-87115000D01*
X155691415Y-87115000D01*
X155634825Y-87130163D01*
X155578233Y-87145326D01*
X155476763Y-87203910D01*
X155393910Y-87286763D01*
X155335326Y-87388233D01*
X155333426Y-87395326D01*
X155305000Y-87501415D01*
X154499490Y-87501415D01*
X153585726Y-86587651D01*
X153563986Y-86541031D01*
X153563700Y-86534477D01*
X153563700Y-84391415D01*
X154555000Y-84391415D01*
X154555000Y-84508585D01*
X154573195Y-84576492D01*
X154585326Y-84621766D01*
X154643910Y-84723236D01*
X154726763Y-84806089D01*
X154828233Y-84864673D01*
X154828235Y-84864673D01*
X154828236Y-84864674D01*
X154941415Y-84895000D01*
X154941418Y-84895000D01*
X155058582Y-84895000D01*
X155058585Y-84895000D01*
X155171764Y-84864674D01*
X155249142Y-84820000D01*
X155273236Y-84806089D01*
X155356089Y-84723236D01*
X155417139Y-84617495D01*
X155418332Y-84618184D01*
X155449109Y-84584590D01*
X155500108Y-84577870D01*
X155543495Y-84605503D01*
X155548965Y-84613690D01*
X155568908Y-84648234D01*
X155651763Y-84731089D01*
X155753233Y-84789673D01*
X155753235Y-84789673D01*
X155753236Y-84789674D01*
X155866415Y-84820000D01*
X155866418Y-84820000D01*
X155983582Y-84820000D01*
X155983585Y-84820000D01*
X156096764Y-84789674D01*
X156198236Y-84731089D01*
X156281089Y-84648236D01*
X156281090Y-84648234D01*
X156339673Y-84546766D01*
X156339674Y-84546764D01*
X156370000Y-84433585D01*
X156370000Y-84316415D01*
X156339674Y-84203236D01*
X156339673Y-84203235D01*
X156339673Y-84203233D01*
X156281089Y-84101763D01*
X156198236Y-84018910D01*
X156096766Y-83960326D01*
X156051492Y-83948195D01*
X155983585Y-83930000D01*
X155866415Y-83930000D01*
X155809825Y-83945163D01*
X155753233Y-83960326D01*
X155651763Y-84018910D01*
X155568910Y-84101763D01*
X155507861Y-84207505D01*
X155506671Y-84206818D01*
X155475869Y-84240420D01*
X155424868Y-84247124D01*
X155381489Y-84219477D01*
X155376037Y-84211315D01*
X155356089Y-84176764D01*
X155356088Y-84176762D01*
X155273236Y-84093910D01*
X155171766Y-84035326D01*
X155126492Y-84023195D01*
X155058585Y-84005000D01*
X154941415Y-84005000D01*
X154889502Y-84018910D01*
X154828233Y-84035326D01*
X154726763Y-84093910D01*
X154643910Y-84176763D01*
X154585326Y-84278233D01*
X154570116Y-84335000D01*
X154555000Y-84391415D01*
X153563700Y-84391415D01*
X153563700Y-84044482D01*
X153563700Y-84044481D01*
X153532689Y-83969613D01*
X153532685Y-83969609D01*
X153532684Y-83969607D01*
X153471108Y-83908031D01*
X153471093Y-83908018D01*
X153084925Y-83521850D01*
X153063185Y-83475230D01*
X153062899Y-83468676D01*
X153062899Y-82609944D01*
X153054028Y-82565342D01*
X153020234Y-82514766D01*
X152969658Y-82480972D01*
X152969656Y-82480971D01*
X152925057Y-82472100D01*
X151978100Y-82472100D01*
X151929762Y-82454507D01*
X151904042Y-82409958D01*
X151902900Y-82396900D01*
X151902900Y-81891415D01*
X153205000Y-81891415D01*
X153205000Y-82008585D01*
X153220116Y-82065000D01*
X153235326Y-82121766D01*
X153293910Y-82223236D01*
X153376763Y-82306089D01*
X153478233Y-82364673D01*
X153478235Y-82364673D01*
X153478236Y-82364674D01*
X153591415Y-82395000D01*
X153591418Y-82395000D01*
X153708582Y-82395000D01*
X153708585Y-82395000D01*
X153821764Y-82364674D01*
X153920634Y-82307590D01*
X153971292Y-82298658D01*
X154015840Y-82324378D01*
X154033434Y-82372716D01*
X154030872Y-82392178D01*
X154015000Y-82451415D01*
X154015000Y-82568585D01*
X154026082Y-82609944D01*
X154045326Y-82681766D01*
X154103910Y-82783236D01*
X154186765Y-82866091D01*
X154242043Y-82898005D01*
X154275109Y-82937410D01*
X154275109Y-82988849D01*
X154242045Y-83028255D01*
X154223908Y-83035767D01*
X154188236Y-83045325D01*
X154086763Y-83103910D01*
X154003910Y-83186763D01*
X153945326Y-83288233D01*
X153932416Y-83336417D01*
X153915000Y-83401415D01*
X153915000Y-83518585D01*
X153927910Y-83566766D01*
X153945326Y-83631766D01*
X154003910Y-83733236D01*
X154086763Y-83816089D01*
X154188233Y-83874673D01*
X154188235Y-83874673D01*
X154188236Y-83874674D01*
X154301415Y-83905000D01*
X154301418Y-83905000D01*
X154418582Y-83905000D01*
X154418585Y-83905000D01*
X154531764Y-83874674D01*
X154633236Y-83816089D01*
X154716089Y-83733236D01*
X154756139Y-83663867D01*
X154795542Y-83630803D01*
X154846982Y-83630803D01*
X154886387Y-83663866D01*
X154888910Y-83668236D01*
X154971763Y-83751089D01*
X155073233Y-83809673D01*
X155073235Y-83809673D01*
X155073236Y-83809674D01*
X155186415Y-83840000D01*
X155186418Y-83840000D01*
X155303582Y-83840000D01*
X155303585Y-83840000D01*
X155416764Y-83809674D01*
X155518236Y-83751089D01*
X155601089Y-83668236D01*
X155627053Y-83623265D01*
X155659673Y-83566766D01*
X155659674Y-83566764D01*
X155690000Y-83453585D01*
X155690000Y-83336415D01*
X155659674Y-83223236D01*
X155659673Y-83223235D01*
X155659673Y-83223233D01*
X155601089Y-83121763D01*
X155518236Y-83038910D01*
X155416766Y-82980326D01*
X155371492Y-82968195D01*
X155303585Y-82950000D01*
X155186415Y-82950000D01*
X155129825Y-82965163D01*
X155073233Y-82980326D01*
X154971763Y-83038910D01*
X154888910Y-83121763D01*
X154848861Y-83191131D01*
X154809456Y-83224196D01*
X154758016Y-83224196D01*
X154718611Y-83191131D01*
X154716089Y-83186763D01*
X154633236Y-83103910D01*
X154577955Y-83071994D01*
X154544890Y-83032589D01*
X154544890Y-82981149D01*
X154577955Y-82941744D01*
X154596086Y-82934233D01*
X154631764Y-82924674D01*
X154733236Y-82866089D01*
X154816089Y-82783236D01*
X154851780Y-82721417D01*
X154874673Y-82681766D01*
X154877446Y-82671417D01*
X154905000Y-82568585D01*
X154905000Y-82451415D01*
X154874674Y-82338236D01*
X154874673Y-82338235D01*
X154874673Y-82338233D01*
X154816089Y-82236763D01*
X154733236Y-82153910D01*
X154631766Y-82095326D01*
X154586492Y-82083195D01*
X154518585Y-82065000D01*
X154401415Y-82065000D01*
X154344825Y-82080163D01*
X154288233Y-82095326D01*
X154189365Y-82152408D01*
X154138706Y-82161340D01*
X154094158Y-82135620D01*
X154076565Y-82087283D01*
X154079125Y-82067829D01*
X154095000Y-82008585D01*
X154095000Y-81891415D01*
X154064674Y-81778236D01*
X154064673Y-81778235D01*
X154064673Y-81778233D01*
X154006089Y-81676763D01*
X153923236Y-81593910D01*
X153891300Y-81575472D01*
X153858235Y-81536067D01*
X153853700Y-81510347D01*
X153853700Y-81261476D01*
X153871293Y-81213138D01*
X153915842Y-81187418D01*
X153966500Y-81196351D01*
X153998236Y-81214674D01*
X154111415Y-81245000D01*
X154111418Y-81245000D01*
X154228582Y-81245000D01*
X154228585Y-81245000D01*
X154341764Y-81214674D01*
X154344425Y-81213138D01*
X154443236Y-81156089D01*
X154526089Y-81073236D01*
X154584673Y-80971766D01*
X154584674Y-80971764D01*
X154615000Y-80858585D01*
X154615000Y-80741415D01*
X154584674Y-80628236D01*
X154584673Y-80628235D01*
X154584673Y-80628233D01*
X154526089Y-80526763D01*
X154439751Y-80440425D01*
X154440728Y-80439447D01*
X154416253Y-80401035D01*
X154422963Y-80350035D01*
X154436492Y-80331582D01*
X154876659Y-79891415D01*
X155575000Y-79891415D01*
X155575000Y-80008585D01*
X155586232Y-80050502D01*
X155605326Y-80121766D01*
X155663910Y-80223236D01*
X155746763Y-80306089D01*
X155848233Y-80364673D01*
X155848235Y-80364673D01*
X155848236Y-80364674D01*
X155961415Y-80395000D01*
X155961418Y-80395000D01*
X156078582Y-80395000D01*
X156078585Y-80395000D01*
X156191764Y-80364674D01*
X156217120Y-80350035D01*
X156293236Y-80306089D01*
X156376089Y-80223236D01*
X156434673Y-80121766D01*
X156437687Y-80110519D01*
X156465000Y-80008585D01*
X156465000Y-79891415D01*
X156434674Y-79778236D01*
X156434673Y-79778235D01*
X156434673Y-79778233D01*
X156376089Y-79676763D01*
X156293236Y-79593910D01*
X156191766Y-79535326D01*
X156146492Y-79523195D01*
X156078585Y-79505000D01*
X155961415Y-79505000D01*
X155904825Y-79520163D01*
X155848233Y-79535326D01*
X155746763Y-79593910D01*
X155663910Y-79676763D01*
X155605326Y-79778233D01*
X155587130Y-79846143D01*
X155575000Y-79891415D01*
X154876659Y-79891415D01*
X156962349Y-77805726D01*
X157008969Y-77783986D01*
X157015523Y-77783700D01*
X159060517Y-77783700D01*
X159060519Y-77783700D01*
X159135387Y-77752689D01*
X159192689Y-77695387D01*
X159192689Y-77695386D01*
X159203265Y-77684810D01*
X159203265Y-77684808D01*
X159871658Y-77016415D01*
X161180000Y-77016415D01*
X161180000Y-77133585D01*
X161193673Y-77184613D01*
X161210326Y-77246766D01*
X161268910Y-77348236D01*
X161351763Y-77431089D01*
X161453233Y-77489673D01*
X161453235Y-77489673D01*
X161453236Y-77489674D01*
X161566415Y-77520000D01*
X161566418Y-77520000D01*
X161683582Y-77520000D01*
X161683585Y-77520000D01*
X161796764Y-77489674D01*
X161811281Y-77481293D01*
X161898236Y-77431089D01*
X161981089Y-77348236D01*
X162039673Y-77246766D01*
X162042826Y-77235000D01*
X162070000Y-77133585D01*
X162070000Y-77016415D01*
X162039674Y-76903236D01*
X162039673Y-76903235D01*
X162039673Y-76903233D01*
X161981089Y-76801763D01*
X161898236Y-76718910D01*
X161796766Y-76660326D01*
X161751492Y-76648195D01*
X161683585Y-76630000D01*
X161566415Y-76630000D01*
X161509825Y-76645163D01*
X161453233Y-76660326D01*
X161351763Y-76718910D01*
X161268910Y-76801763D01*
X161210326Y-76903233D01*
X161192130Y-76971143D01*
X161180000Y-77016415D01*
X159871658Y-77016415D01*
X161066659Y-75821415D01*
X162155000Y-75821415D01*
X162155000Y-75938585D01*
X162173195Y-76006492D01*
X162185326Y-76051766D01*
X162243910Y-76153236D01*
X162326763Y-76236089D01*
X162428233Y-76294673D01*
X162428235Y-76294673D01*
X162428236Y-76294674D01*
X162541415Y-76325000D01*
X162541418Y-76325000D01*
X162658582Y-76325000D01*
X162658585Y-76325000D01*
X162771764Y-76294674D01*
X162873236Y-76236089D01*
X162956089Y-76153236D01*
X163014674Y-76051764D01*
X163045000Y-75938585D01*
X163045000Y-75821415D01*
X163014674Y-75708236D01*
X163014673Y-75708235D01*
X163014673Y-75708233D01*
X162956089Y-75606763D01*
X162873236Y-75523910D01*
X162771766Y-75465326D01*
X162726492Y-75453195D01*
X162658585Y-75435000D01*
X162541415Y-75435000D01*
X162484825Y-75450163D01*
X162428233Y-75465326D01*
X162326763Y-75523910D01*
X162243910Y-75606763D01*
X162185326Y-75708233D01*
X162167130Y-75776143D01*
X162155000Y-75821415D01*
X161066659Y-75821415D01*
X161886659Y-75001415D01*
X162835000Y-75001415D01*
X162835000Y-75118585D01*
X162845079Y-75156200D01*
X162865326Y-75231766D01*
X162923910Y-75333236D01*
X163006759Y-75416085D01*
X163006762Y-75416087D01*
X163006764Y-75416089D01*
X163041335Y-75436048D01*
X163073053Y-75473846D01*
X163073466Y-75473676D01*
X163074008Y-75474985D01*
X163074400Y-75475452D01*
X163074812Y-75476926D01*
X163076300Y-75480518D01*
X163076300Y-75480519D01*
X163107311Y-75555387D01*
X163164613Y-75612689D01*
X163164614Y-75612689D01*
X163414613Y-75862689D01*
X163489481Y-75893700D01*
X163570518Y-75893700D01*
X165064477Y-75893700D01*
X165112815Y-75911293D01*
X165117651Y-75915726D01*
X167354274Y-78152349D01*
X167376014Y-78198969D01*
X167376300Y-78205523D01*
X167376300Y-82340347D01*
X167358707Y-82388685D01*
X167338700Y-82405472D01*
X167306763Y-82423910D01*
X167223910Y-82506763D01*
X167165326Y-82608233D01*
X167164868Y-82609944D01*
X167135000Y-82721415D01*
X167135000Y-82838585D01*
X167151929Y-82901764D01*
X167165326Y-82951766D01*
X167223910Y-83053236D01*
X167306763Y-83136089D01*
X167408233Y-83194673D01*
X167408235Y-83194673D01*
X167408236Y-83194674D01*
X167521415Y-83225000D01*
X167521418Y-83225000D01*
X167638582Y-83225000D01*
X167638585Y-83225000D01*
X167751764Y-83194674D01*
X167765465Y-83186764D01*
X167853236Y-83136089D01*
X167936089Y-83053236D01*
X167994673Y-82951766D01*
X167994674Y-82951764D01*
X168025000Y-82838585D01*
X168025000Y-82721415D01*
X167994674Y-82608236D01*
X167994673Y-82608235D01*
X167994673Y-82608233D01*
X167936089Y-82506763D01*
X167853236Y-82423910D01*
X167821300Y-82405472D01*
X167788235Y-82366067D01*
X167783700Y-82340347D01*
X167783700Y-78139279D01*
X167783701Y-78139270D01*
X167783701Y-78049483D01*
X167777780Y-78035189D01*
X167752689Y-77974614D01*
X167752689Y-77974613D01*
X167695387Y-77917311D01*
X167691100Y-77913024D01*
X167691093Y-77913018D01*
X165363266Y-75585191D01*
X165363265Y-75585189D01*
X165363265Y-75585190D01*
X165352689Y-75574613D01*
X165295387Y-75517311D01*
X165220519Y-75486300D01*
X165220518Y-75486300D01*
X163664574Y-75486300D01*
X163616236Y-75468707D01*
X163590516Y-75424158D01*
X163599449Y-75373500D01*
X163611400Y-75357926D01*
X163636089Y-75333236D01*
X163676265Y-75263650D01*
X166687601Y-75263650D01*
X166690436Y-75288108D01*
X166734589Y-75388104D01*
X166734594Y-75388111D01*
X166811888Y-75465405D01*
X166811891Y-75465407D01*
X166911896Y-75509564D01*
X166936342Y-75512399D01*
X167073800Y-75512399D01*
X167226200Y-75512399D01*
X167363651Y-75512399D01*
X167388108Y-75509563D01*
X167488104Y-75465410D01*
X167488111Y-75465405D01*
X167565405Y-75388111D01*
X167565407Y-75388108D01*
X167609564Y-75288103D01*
X167612400Y-75263657D01*
X167612400Y-75156200D01*
X167226200Y-75156200D01*
X167226200Y-75512399D01*
X167073800Y-75512399D01*
X167073800Y-75156200D01*
X166687601Y-75156200D01*
X166687601Y-75263650D01*
X163676265Y-75263650D01*
X163694673Y-75231766D01*
X163694674Y-75231764D01*
X163725000Y-75118585D01*
X163725000Y-75001415D01*
X163694674Y-74888236D01*
X163694673Y-74888235D01*
X163694673Y-74888233D01*
X163636089Y-74786763D01*
X163553236Y-74703910D01*
X163451766Y-74645326D01*
X163406492Y-74633195D01*
X163338585Y-74615000D01*
X163221415Y-74615000D01*
X163164825Y-74630163D01*
X163108233Y-74645326D01*
X163006763Y-74703910D01*
X162923910Y-74786763D01*
X162865326Y-74888233D01*
X162847130Y-74956143D01*
X162835000Y-75001415D01*
X161886659Y-75001415D01*
X162991806Y-73896268D01*
X166687100Y-73896268D01*
X166687100Y-74263731D01*
X166689940Y-74288219D01*
X166689941Y-74288221D01*
X166734172Y-74388396D01*
X166734173Y-74388397D01*
X166734175Y-74388400D01*
X166811599Y-74465824D01*
X166811601Y-74465825D01*
X166811604Y-74465828D01*
X166911779Y-74510059D01*
X166911781Y-74510059D01*
X166914997Y-74511479D01*
X166952110Y-74547098D01*
X166957645Y-74598239D01*
X166929012Y-74640973D01*
X166914999Y-74649064D01*
X166811894Y-74694590D01*
X166811888Y-74694594D01*
X166734594Y-74771888D01*
X166734592Y-74771891D01*
X166690435Y-74871896D01*
X166687600Y-74896342D01*
X166687600Y-75003800D01*
X167612399Y-75003800D01*
X167612399Y-74896349D01*
X167609563Y-74871891D01*
X167565410Y-74771895D01*
X167565405Y-74771888D01*
X167488111Y-74694594D01*
X167488104Y-74694589D01*
X167385000Y-74649064D01*
X167347887Y-74613445D01*
X167342353Y-74562304D01*
X167370987Y-74519570D01*
X167385001Y-74511479D01*
X167388215Y-74510059D01*
X167388221Y-74510059D01*
X167488396Y-74465828D01*
X167565828Y-74388396D01*
X167610059Y-74288221D01*
X167612900Y-74263734D01*
X167612900Y-73896266D01*
X167610059Y-73871779D01*
X167565828Y-73771604D01*
X167565825Y-73771601D01*
X167565824Y-73771599D01*
X167488400Y-73694175D01*
X167488397Y-73694173D01*
X167488396Y-73694172D01*
X167388221Y-73649941D01*
X167388219Y-73649940D01*
X167369414Y-73647758D01*
X167363734Y-73647100D01*
X167363732Y-73647100D01*
X167253644Y-73647100D01*
X167234182Y-73644538D01*
X167221500Y-73641140D01*
X167198585Y-73635000D01*
X167081415Y-73635000D01*
X167058499Y-73641140D01*
X167045818Y-73644538D01*
X167026356Y-73647100D01*
X166936266Y-73647100D01*
X166931176Y-73647690D01*
X166911780Y-73649940D01*
X166911779Y-73649941D01*
X166811604Y-73694172D01*
X166811599Y-73694175D01*
X166734175Y-73771599D01*
X166734172Y-73771604D01*
X166689941Y-73871779D01*
X166689940Y-73871780D01*
X166687100Y-73896268D01*
X162991806Y-73896268D01*
X164582349Y-72305726D01*
X164628969Y-72283986D01*
X164635523Y-72283700D01*
X165383680Y-72283700D01*
X165432018Y-72301293D01*
X165448805Y-72321300D01*
X165467243Y-72353236D01*
X165550096Y-72436089D01*
X165651566Y-72494673D01*
X165651568Y-72494673D01*
X165651569Y-72494674D01*
X165764748Y-72525000D01*
X165764751Y-72525000D01*
X165881915Y-72525000D01*
X165881918Y-72525000D01*
X165995097Y-72494674D01*
X166096569Y-72436089D01*
X166179422Y-72353236D01*
X166238007Y-72251764D01*
X166268333Y-72138585D01*
X166268333Y-72021415D01*
X166238007Y-71908236D01*
X166238006Y-71908235D01*
X166238006Y-71908233D01*
X166179422Y-71806763D01*
X166096569Y-71723910D01*
X165995099Y-71665326D01*
X165949825Y-71653195D01*
X165881918Y-71635000D01*
X165764748Y-71635000D01*
X165708158Y-71650163D01*
X165651566Y-71665326D01*
X165550096Y-71723910D01*
X165467243Y-71806763D01*
X165448805Y-71838700D01*
X165409400Y-71871765D01*
X165383680Y-71876300D01*
X164569279Y-71876300D01*
X164569271Y-71876299D01*
X164560519Y-71876299D01*
X164479482Y-71876299D01*
X164435624Y-71894465D01*
X164404613Y-71907310D01*
X164375962Y-71935961D01*
X164347311Y-71964613D01*
X162662074Y-73649850D01*
X162615454Y-73671590D01*
X162565767Y-73658276D01*
X162536262Y-73616139D01*
X162533700Y-73596676D01*
X162533700Y-72519652D01*
X162551293Y-72471314D01*
X162571301Y-72454527D01*
X162603231Y-72436092D01*
X162603231Y-72436091D01*
X162603236Y-72436089D01*
X162686089Y-72353236D01*
X162744674Y-72251764D01*
X162775000Y-72138585D01*
X162775000Y-72021415D01*
X162744674Y-71908236D01*
X162744673Y-71908235D01*
X162744673Y-71908233D01*
X162686089Y-71806763D01*
X162603236Y-71723910D01*
X162501766Y-71665326D01*
X162456492Y-71653195D01*
X162388585Y-71635000D01*
X162271415Y-71635000D01*
X162214825Y-71650163D01*
X162158233Y-71665326D01*
X162056763Y-71723910D01*
X161973910Y-71806763D01*
X161915326Y-71908233D01*
X161900220Y-71964613D01*
X161885000Y-72021415D01*
X161885000Y-72138585D01*
X161903195Y-72206492D01*
X161915326Y-72251766D01*
X161973910Y-72353236D01*
X162056759Y-72436085D01*
X162056768Y-72436092D01*
X162088699Y-72454527D01*
X162121765Y-72493932D01*
X162126300Y-72519652D01*
X162126300Y-73754477D01*
X162108707Y-73802815D01*
X162104274Y-73807651D01*
X158837651Y-77074274D01*
X158791031Y-77096014D01*
X158784477Y-77096300D01*
X156709481Y-77096300D01*
X156634613Y-77127311D01*
X156634612Y-77127312D01*
X156634610Y-77127313D01*
X156617311Y-77144613D01*
X156577311Y-77184613D01*
X156577310Y-77184614D01*
X153534614Y-80227310D01*
X153534613Y-80227311D01*
X153519235Y-80242689D01*
X153477313Y-80284610D01*
X153477312Y-80284612D01*
X153477311Y-80284613D01*
X153454546Y-80339574D01*
X153446300Y-80359482D01*
X153446300Y-81510347D01*
X153428707Y-81558685D01*
X153408700Y-81575472D01*
X153376763Y-81593910D01*
X153293910Y-81676763D01*
X153235326Y-81778233D01*
X153217130Y-81846143D01*
X153205000Y-81891415D01*
X151902900Y-81891415D01*
X151902900Y-77621415D01*
X154515000Y-77621415D01*
X154515000Y-77738585D01*
X154527145Y-77783910D01*
X154545326Y-77851766D01*
X154603910Y-77953236D01*
X154686763Y-78036089D01*
X154788233Y-78094673D01*
X154788235Y-78094673D01*
X154788236Y-78094674D01*
X154901415Y-78125000D01*
X154901418Y-78125000D01*
X155018582Y-78125000D01*
X155018585Y-78125000D01*
X155131764Y-78094674D01*
X155154728Y-78081416D01*
X155233236Y-78036089D01*
X155316089Y-77953236D01*
X155374673Y-77851766D01*
X155374674Y-77851764D01*
X155405000Y-77738585D01*
X155405000Y-77621415D01*
X155374674Y-77508236D01*
X155374673Y-77508235D01*
X155374673Y-77508233D01*
X155316089Y-77406763D01*
X155233236Y-77323910D01*
X155131766Y-77265326D01*
X155086492Y-77253195D01*
X155018585Y-77235000D01*
X154901415Y-77235000D01*
X154844825Y-77250163D01*
X154788233Y-77265326D01*
X154686763Y-77323910D01*
X154603910Y-77406763D01*
X154545326Y-77508233D01*
X154534609Y-77548233D01*
X154515000Y-77621415D01*
X151902900Y-77621415D01*
X151902900Y-76275200D01*
X151920493Y-76226862D01*
X151965042Y-76201142D01*
X151978100Y-76200000D01*
X156300000Y-76200000D01*
X156300000Y-71025200D01*
X156317593Y-70976862D01*
X156362142Y-70951142D01*
X156375200Y-70950000D01*
X169021900Y-70950000D01*
X169070238Y-70967593D01*
G37*
%TD.AperFunction*%
%TD*%
M02*
